<ttFont>
<head>
    <!-- Most of this table will be recalculated by the compiler -->
    <tableVersion value="1.0"/>
    <fontRevision value="1.301"/>
    <checkSumAdjustment value="0xfd95d02d"/>
    <magicNumber value="0x5f0f3cf5"/>
    <flags value="00000000 00001011"/>
    <unitsPerEm value="1000"/>
    <created value="Tue Oct  2 22:59:00 2007"/>
    <modified value="Thu Mar  6 18:35:39 2014"/>
    <xMin value="-60"/>
    <yMin value="-309"/>
    <xMax value="818"/>
    <yMax value="1109"/>
    <macStyle value="00000000 00000000"/>
    <lowestRecPPEM value="9"/>
    <fontDirectionHint value="2"/>
    <indexToLocFormat value="0"/>
    <glyphDataFormat value="0"/>
  </head>
    <TTGlyph name="A" xMin="2" yMin="0" xMax="450" yMax="735">
      <contour>
        <pt x="315" y="0" on="1"/>
        <pt x="288" y="122" on="1"/>
        <pt x="162" y="122" on="1"/>
        <pt x="135" y="0" on="1"/>
        <pt x="2" y="0" on="1"/>
        <pt x="173" y="735" on="1"/>
        <pt x="280" y="735" on="1"/>
        <pt x="450" y="0" on="1"/>
      </contour>
      <contour>
        <pt x="225" y="458" on="1"/>
        <pt x="187" y="244" on="1"/>
        <pt x="263" y="244" on="1"/>
      </contour>
    </TTGlyph>
    <TTGlyph name="AE" xMin="1" yMin="0" xMax="626" yMax="733">
      <contour>
        <pt x="309" y="0" on="1"/>
        <pt x="309" y="122" on="1"/>
        <pt x="178" y="122" on="1"/>
        <pt x="136" y="0" on="1"/>
        <pt x="1" y="0" on="1"/>
        <pt x="261" y="733" on="1"/>
        <pt x="626" y="733" on="1"/>
        <pt x="626" y="605" on="1"/>
        <pt x="447" y="605" on="1"/>
        <pt x="447" y="439" on="1"/>
        <pt x="600" y="439" on="1"/>
        <pt x="600" y="315" on="1"/>
        <pt x="447" y="315" on="1"/>
        <pt x="447" y="128" on="1"/>
        <pt x="626" y="128" on="1"/>
        <pt x="626" y="0" on="1"/>
      </contour>
      <contour>
        <pt x="311" y="512" on="1"/>
        <pt x="217" y="244" on="1"/>
        <pt x="311" y="244" on="1"/>
      </contour>
    </TTGlyph>
    <TTGlyph name="AEacute" xMin="1" yMin="0" xMax="626" yMax="983">
      <component glyphName="AE" x="0" y="0" flags="0x204"/>
      <component glyphName="acute" x="257" y="280" flags="0x4"/>
    </TTGlyph>
    <TTGlyph name="Aacute" xMin="2" yMin="0" xMax="450" yMax="983">
      <component glyphName="A" x="0" y="0" flags="0x204"/>
      <component glyphName="acute" x="92" y="280" flags="0x4"/>
    </TTGlyph>
    <TTGlyph name="Abreve" xMin="2" yMin="0" xMax="450" yMax="932">
      <component glyphName="A" x="0" y="0" flags="0x204"/>
      <component glyphName="breve" x="26" y="280" flags="0x4"/>
    </TTGlyph>
    <TTGlyph name="Acircumflex" xMin="2" yMin="0" xMax="450" yMax="943">
      <component glyphName="A" x="0" y="0" flags="0x204"/>
      <component glyphName="circumflex" x="26" y="280" flags="0x4"/>
    </TTGlyph>
    <TTGlyph name="Adieresis" xMin="2" yMin="0" xMax="450" yMax="919">
      <component glyphName="A" x="0" y="0" flags="0x204"/>
      <component glyphName="dieresis" x="26" y="280" flags="0x4"/>
    </TTGlyph>
    <TTGlyph name="Agrave" xMin="2" yMin="0" xMax="450" yMax="985">
      <component glyphName="A" x="0" y="0" flags="0x204"/>
      <component glyphName="grave" x="-39" y="280" flags="0x4"/>
    </TTGlyph>
    <TTGlyph name="Amacron" xMin="2" yMin="0" xMax="450" yMax="880">
      <component glyphName="A" x="0" y="0" flags="0x204"/>
      <component glyphName="macron" x="27" y="280" flags="0x4"/>
    </TTGlyph>
    <TTGlyph name="Aogonek" xMin="2" yMin="-198" xMax="452" yMax="735">
      <contour>
        <pt x="452" y="-157" on="1"/>
        <pt x="438" y="-172" on="0"/>
        <pt x="388" y="-198" on="0"/>
        <pt x="356" y="-198" on="1"/>
        <pt x="318" y="-198" on="0"/>
        <pt x="280" y="-154" on="0"/>
        <pt x="280" y="-122" on="1"/>
        <pt x="280" y="-95" on="0"/>
        <pt x="304" y="-38" on="0"/>
        <pt x="333" y="0" on="1"/>
        <pt x="315" y="0" on="1"/>
        <pt x="288" y="122" on="1"/>
        <pt x="162" y="122" on="1"/>
        <pt x="135" y="0" on="1"/>
        <pt x="2" y="0" on="1"/>
        <pt x="173" y="735" on="1"/>
        <pt x="280" y="735" on="1"/>
        <pt x="450" y="0" on="1"/>
        <pt x="403" y="0" on="1"/>
        <pt x="378" y="-37" on="0"/>
        <pt x="362" y="-77" on="0"/>
        <pt x="362" y="-94" on="1"/>
        <pt x="362" y="-111" on="0"/>
        <pt x="381" y="-129" on="0"/>
        <pt x="396" y="-129" on="1"/>
        <pt x="406" y="-129" on="0"/>
        <pt x="426" y="-123" on="0"/>
        <pt x="433" y="-118" on="1"/>
      </contour>
      <contour>
        <pt x="225" y="458" on="1"/>
        <pt x="187" y="244" on="1"/>
        <pt x="263" y="244" on="1"/>
      </contour>
    </TTGlyph>
    <TTGlyph name="Aring" xMin="2" yMin="0" xMax="450" yMax="890">
      <contour>
        <pt x="333" y="788" on="1"/>
        <pt x="333" y="762" on="0"/>
        <pt x="310" y="715" on="0"/>
        <pt x="288" y="701" on="1"/>
        <pt x="450" y="0" on="1"/>
        <pt x="315" y="0" on="1"/>
        <pt x="288" y="122" on="1"/>
        <pt x="162" y="122" on="1"/>
        <pt x="135" y="0" on="1"/>
        <pt x="2" y="0" on="1"/>
        <pt x="165" y="702" on="1"/>
        <pt x="143" y="716" on="0"/>
        <pt x="119" y="762" on="0"/>
        <pt x="119" y="788" on="1"/>
        <pt x="119" y="809" on="0"/>
        <pt x="134" y="846" on="0"/>
        <pt x="162" y="874" on="0"/>
        <pt x="202" y="890" on="0"/>
        <pt x="228" y="890" on="1"/>
        <pt x="278" y="890" on="0"/>
        <pt x="333" y="830" on="0"/>
      </contour>
      <contour>
        <pt x="225" y="458" on="1"/>
        <pt x="187" y="244" on="1"/>
        <pt x="263" y="244" on="1"/>
      </contour>
      <contour>
        <pt x="268" y="788" on="1"/>
        <pt x="268" y="808" on="0"/>
        <pt x="245" y="833" on="0"/>
        <pt x="228" y="833" on="1"/>
        <pt x="210" y="833" on="0"/>
        <pt x="187" y="808" on="0"/>
        <pt x="187" y="788" on="1"/>
        <pt x="187" y="767" on="0"/>
        <pt x="210" y="741" on="0"/>
        <pt x="228" y="741" on="1"/>
        <pt x="245" y="741" on="0"/>
        <pt x="268" y="767" on="0"/>
      </contour>
    </TTGlyph>
    <TTGlyph name="Aringacute" xMin="2" yMin="0" xMax="450" yMax="1109">
      <component glyphName="acute" x="94" y="406" flags="0x4"/>
      <component glyphName="Aring" x="0" y="0" flags="0x4"/>
    </TTGlyph>
    <TTGlyph name="Atilde" xMin="2" yMin="0" xMax="450" yMax="916">
      <component glyphName="A" x="0" y="0" flags="0x204"/>
      <component glyphName="tilde" x="26" y="280" flags="0x4"/>
    </TTGlyph>
    <TTGlyph name="B" xMin="43" yMin="-6" xMax="416" yMax="739">
      <contour>
        <pt x="416" y="205" on="1"/>
        <pt x="416" y="107" on="0"/>
        <pt x="298" y="-6" on="0"/>
        <pt x="176" y="-6" on="1"/>
        <pt x="165" y="-6" on="0"/>
        <pt x="133" y="-5" on="0"/>
        <pt x="97" y="-3" on="0"/>
        <pt x="59" y="0" on="0"/>
        <pt x="43" y="3" on="1"/>
        <pt x="43" y="729" on="1"/>
        <pt x="55" y="731" on="0"/>
        <pt x="92" y="735" on="0"/>
        <pt x="131" y="738" on="0"/>
        <pt x="165" y="739" on="0"/>
        <pt x="175" y="739" on="1"/>
        <pt x="236" y="739" on="0"/>
        <pt x="323" y="706" on="0"/>
        <pt x="378" y="652" on="0"/>
        <pt x="404" y="582" on="0"/>
        <pt x="404" y="544" on="1"/>
        <pt x="404" y="486" on="0"/>
        <pt x="357" y="405" on="0"/>
        <pt x="322" y="379" on="1"/>
        <pt x="364" y="357" on="0"/>
        <pt x="416" y="267" on="0"/>
      </contour>
      <contour>
        <pt x="268" y="520" on="1"/>
        <pt x="268" y="570" on="0"/>
        <pt x="227" y="614" on="0"/>
        <pt x="193" y="614" on="1"/>
        <pt x="188" y="614" on="0"/>
        <pt x="179" y="613" on="0"/>
        <pt x="177" y="612" on="1"/>
        <pt x="177" y="424" on="1"/>
        <pt x="179" y="423" on="0"/>
        <pt x="191" y="422" on="0"/>
        <pt x="193" y="422" on="1"/>
        <pt x="228" y="422" on="0"/>
        <pt x="268" y="468" on="0"/>
      </contour>
      <contour>
        <pt x="276" y="220" on="1"/>
        <pt x="276" y="265" on="0"/>
        <pt x="234" y="324" on="0"/>
        <pt x="201" y="324" on="1"/>
        <pt x="196" y="324" on="0"/>
        <pt x="179" y="323" on="0"/>
        <pt x="177" y="321" on="1"/>
        <pt x="177" y="118" on="1"/>
        <pt x="180" y="117" on="0"/>
        <pt x="190" y="116" on="0"/>
        <pt x="198" y="116" on="1"/>
        <pt x="230" y="116" on="0"/>
        <pt x="276" y="162" on="0"/>
      </contour>
    </TTGlyph>
    <TTGlyph name="C" xMin="23" yMin="-11" xMax="392" yMax="744">
      <contour>
        <pt x="392" y="31" on="1"/>
        <pt x="358" y="7" on="0"/>
        <pt x="299" y="-11" on="0"/>
        <pt x="263" y="-11" on="1"/>
        <pt x="214" y="-11" on="0"/>
        <pt x="127" y="41" on="0"/>
        <pt x="61" y="139" on="0"/>
        <pt x="23" y="276" on="0"/>
        <pt x="23" y="362" on="1"/>
        <pt x="23" y="447" on="0"/>
        <pt x="60" y="588" on="0"/>
        <pt x="125" y="689" on="0"/>
        <pt x="215" y="744" on="0"/>
        <pt x="268" y="744" on="1"/>
        <pt x="303" y="744" on="0"/>
        <pt x="360" y="726" on="0"/>
        <pt x="392" y="702" on="1"/>
        <pt x="339" y="586" on="1"/>
        <pt x="322" y="599" on="0"/>
        <pt x="293" y="614" on="0"/>
        <pt x="273" y="614" on="1"/>
        <pt x="252" y="614" on="0"/>
        <pt x="213" y="583" on="0"/>
        <pt x="183" y="523" on="0"/>
        <pt x="165" y="433" on="0"/>
        <pt x="165" y="374" on="1"/>
        <pt x="165" y="253" on="0"/>
        <pt x="228" y="119" on="0"/>
        <pt x="278" y="119" on="1"/>
        <pt x="298" y="119" on="0"/>
        <pt x="327" y="131" on="0"/>
        <pt x="344" y="145" on="1"/>
        <pt x="392" y="31" on="1"/>
      </contour>
    </TTGlyph>
    <TTGlyph name="Cacute" xMin="23" yMin="-11" xMax="399" yMax="983">
      <component glyphName="C" x="0" y="0" flags="0x204"/>
      <component glyphName="acute" x="113" y="280" flags="0x4"/>
    </TTGlyph>
    <TTGlyph name="Ccaron" xMin="23" yMin="-11" xMax="392" yMax="938">
      <component glyphName="C" x="0" y="0" flags="0x204"/>
      <component glyphName="caron" x="47" y="280" flags="0x4"/>
    </TTGlyph>
    <TTGlyph name="Ccedilla" xMin="23" yMin="-199" xMax="392" yMax="744">
      <contour>
        <pt x="347" y="-112" on="1"/>
        <pt x="347" y="-147" on="0"/>
        <pt x="296" y="-199" on="0"/>
        <pt x="247" y="-199" on="1"/>
        <pt x="222" y="-199" on="0"/>
        <pt x="174" y="-181" on="0"/>
        <pt x="148" y="-167" on="1"/>
        <pt x="172" y="-105" on="1"/>
        <pt x="216" y="-137" on="0"/>
        <pt x="252" y="-137" on="1"/>
        <pt x="263" y="-137" on="0"/>
        <pt x="276" y="-127" on="0"/>
        <pt x="276" y="-113" on="1"/>
        <pt x="276" y="-104" on="0"/>
        <pt x="246" y="-87" on="0"/>
        <pt x="202" y="-87" on="1"/>
        <pt x="200" y="-79" on="1"/>
        <pt x="219" y="-5" on="1"/>
        <pt x="178" y="5" on="0"/>
        <pt x="106" y="66" on="0"/>
        <pt x="53" y="160" on="0"/>
        <pt x="23" y="286" on="0"/>
        <pt x="23" y="362" on="1"/>
        <pt x="23" y="447" on="0"/>
        <pt x="60" y="588" on="0"/>
        <pt x="125" y="689" on="0"/>
        <pt x="215" y="744" on="0"/>
        <pt x="268" y="744" on="1"/>
        <pt x="303" y="744" on="0"/>
        <pt x="360" y="726" on="0"/>
        <pt x="392" y="702" on="1"/>
        <pt x="339" y="586" on="1"/>
        <pt x="322" y="599" on="0"/>
        <pt x="293" y="614" on="0"/>
        <pt x="273" y="614" on="1"/>
        <pt x="252" y="614" on="0"/>
        <pt x="213" y="583" on="0"/>
        <pt x="183" y="523" on="0"/>
        <pt x="165" y="433" on="0"/>
        <pt x="165" y="374" on="1"/>
        <pt x="165" y="253" on="0"/>
        <pt x="228" y="119" on="0"/>
        <pt x="278" y="119" on="1"/>
        <pt x="298" y="119" on="0"/>
        <pt x="327" y="131" on="0"/>
        <pt x="344" y="145" on="1"/>
        <pt x="392" y="31" on="1"/>
        <pt x="358" y="7" on="0"/>
        <pt x="299" y="-11" on="0"/>
        <pt x="263" y="-11" on="1"/>
        <pt x="262" y="-11" on="1"/>
        <pt x="258" y="-33" on="1"/>
        <pt x="306" y="-44" on="0"/>
        <pt x="347" y="-84" on="0"/>
      </contour>
    </TTGlyph>
    <TTGlyph name="Cdotaccent" xMin="23" yMin="-11" xMax="392" yMax="919">
      <component glyphName="C" x="0" y="0" flags="0x204"/>
      <component glyphName="dotaccent" x="47" y="280" flags="0x4"/>
    </TTGlyph>
    <TTGlyph name="D" xMin="43" yMin="-6" xMax="452" yMax="739">
      <contour>
        <pt x="452" y="371" on="1"/>
        <pt x="452" y="189" on="0"/>
        <pt x="300" y="-6" on="0"/>
        <pt x="157" y="-6" on="1"/>
        <pt x="126" y="-6" on="0"/>
        <pt x="69" y="-1" on="0"/>
        <pt x="43" y="4" on="1"/>
        <pt x="43" y="729" on="1"/>
        <pt x="66" y="733" on="0"/>
        <pt x="122" y="739" on="0"/>
        <pt x="157" y="739" on="1"/>
        <pt x="300" y="739" on="0"/>
        <pt x="452" y="553" on="0"/>
      </contour>
      <contour>
        <pt x="310" y="370" on="1"/>
        <pt x="310" y="426" on="0"/>
        <pt x="293" y="516" on="0"/>
        <pt x="263" y="579" on="0"/>
        <pt x="221" y="613" on="0"/>
        <pt x="196" y="613" on="1"/>
        <pt x="192" y="613" on="0"/>
        <pt x="186" y="612" on="0"/>
        <pt x="181" y="611" on="1"/>
        <pt x="181" y="122" on="1"/>
        <pt x="184" y="121" on="0"/>
        <pt x="191" y="120" on="0"/>
        <pt x="196" y="120" on="1"/>
        <pt x="221" y="120" on="0"/>
        <pt x="263" y="155" on="0"/>
        <pt x="293" y="220" on="0"/>
        <pt x="310" y="312" on="0"/>
      </contour>
    </TTGlyph>
    <TTGlyph name="Dcaron" xMin="43" yMin="-6" xMax="452" yMax="938">
      <component glyphName="D" x="0" y="0" flags="0x204"/>
      <component glyphName="caron" x="27" y="280" flags="0x4"/>
    </TTGlyph>
    <TTGlyph name="Dcroat" xMin="5" yMin="-6" xMax="472" yMax="739">
      <component glyphName="Eth" x="0" y="0" flags="0x204"/>
    </TTGlyph>
    <TTGlyph name="E" xMin="43" yMin="0" xMax="360" yMax="733">
      <contour>
        <pt x="43" y="0" on="1"/>
        <pt x="43" y="733" on="1"/>
        <pt x="360" y="733" on="1"/>
        <pt x="360" y="605" on="1"/>
        <pt x="181" y="605" on="1"/>
        <pt x="181" y="439" on="1"/>
        <pt x="334" y="439" on="1"/>
        <pt x="334" y="315" on="1"/>
        <pt x="181" y="315" on="1"/>
        <pt x="181" y="128" on="1"/>
        <pt x="360" y="128" on="1"/>
        <pt x="360" y="0" on="1"/>
      </contour>
    </TTGlyph>
    <TTGlyph name="Eacute" xMin="43" yMin="0" xMax="360" yMax="983">
      <component glyphName="E" x="0" y="0" flags="0x204"/>
      <component glyphName="acute" x="67" y="280" flags="0x4"/>
    </TTGlyph>
    <TTGlyph name="Ebreve" xMin="43" yMin="0" xMax="360" yMax="932">
      <component glyphName="E" x="0" y="0" flags="0x204"/>
      <component glyphName="breve" x="1" y="280" flags="0x4"/>
    </TTGlyph>
    <TTGlyph name="Ecaron" xMin="43" yMin="0" xMax="360" yMax="938">
      <component glyphName="E" x="0" y="0" flags="0x204"/>
      <component glyphName="caron" x="1" y="280" flags="0x4"/>
    </TTGlyph>
    <TTGlyph name="Ecircumflex" xMin="43" yMin="0" xMax="360" yMax="943">
      <component glyphName="E" x="0" y="0" flags="0x204"/>
      <component glyphName="circumflex" x="1" y="280" flags="0x4"/>
    </TTGlyph>
    <TTGlyph name="Edieresis" xMin="43" yMin="0" xMax="360" yMax="919">
      <component glyphName="E" x="0" y="0" flags="0x204"/>
      <component glyphName="dieresis" x="1" y="280" flags="0x4"/>
    </TTGlyph>
    <TTGlyph name="Edotaccent" xMin="43" yMin="0" xMax="360" yMax="919">
      <component glyphName="E" x="0" y="0" flags="0x204"/>
      <component glyphName="dotaccent" x="1" y="280" flags="0x4"/>
    </TTGlyph>
    <TTGlyph name="Egrave" xMin="43" yMin="0" xMax="360" yMax="985">
      <component glyphName="E" x="0" y="0" flags="0x204"/>
      <component glyphName="grave" x="-64" y="280" flags="0x4"/>
    </TTGlyph>
    <TTGlyph name="Emacron" xMin="43" yMin="0" xMax="360" yMax="880">
      <component glyphName="E" x="0" y="0" flags="0x204"/>
      <component glyphName="macron" x="2" y="280" flags="0x4"/>
    </TTGlyph>
    <TTGlyph name="Eogonek" xMin="43" yMin="-198" xMax="360" yMax="733">
      <contour>
        <pt x="360" y="-157" on="1"/>
        <pt x="346" y="-172" on="0"/>
        <pt x="296" y="-198" on="0"/>
        <pt x="264" y="-198" on="1"/>
        <pt x="226" y="-198" on="0"/>
        <pt x="188" y="-154" on="0"/>
        <pt x="188" y="-122" on="1"/>
        <pt x="188" y="-95" on="0"/>
        <pt x="212" y="-38" on="0"/>
        <pt x="241" y="0" on="1"/>
        <pt x="43" y="0" on="1"/>
        <pt x="43" y="733" on="1"/>
        <pt x="360" y="733" on="1"/>
        <pt x="360" y="605" on="1"/>
        <pt x="181" y="605" on="1"/>
        <pt x="181" y="439" on="1"/>
        <pt x="334" y="439" on="1"/>
        <pt x="334" y="315" on="1"/>
        <pt x="181" y="315" on="1"/>
        <pt x="181" y="128" on="1"/>
        <pt x="360" y="128" on="1"/>
        <pt x="360" y="0" on="1"/>
        <pt x="311" y="0" on="1"/>
        <pt x="286" y="-37" on="0"/>
        <pt x="270" y="-77" on="0"/>
        <pt x="270" y="-94" on="1"/>
        <pt x="270" y="-111" on="0"/>
        <pt x="289" y="-129" on="0"/>
        <pt x="304" y="-129" on="1"/>
        <pt x="314" y="-129" on="0"/>
        <pt x="334" y="-123" on="0"/>
        <pt x="341" y="-118" on="1"/>
        <pt x="360" y="-157" on="1"/>
      </contour>
    </TTGlyph>
    <TTGlyph name="Eth" xMin="5" yMin="-6" xMax="472" yMax="739">
      <contour>
        <pt x="472" y="371" on="1"/>
        <pt x="472" y="189" on="0"/>
        <pt x="320" y="-6" on="0"/>
        <pt x="177" y="-6" on="1"/>
        <pt x="146" y="-6" on="0"/>
        <pt x="89" y="-1" on="0"/>
        <pt x="63" y="4" on="1"/>
        <pt x="63" y="316" on="1"/>
        <pt x="5" y="316" on="1"/>
        <pt x="5" y="420" on="1"/>
        <pt x="63" y="420" on="1"/>
        <pt x="63" y="729" on="1"/>
        <pt x="86" y="733" on="0"/>
        <pt x="142" y="739" on="0"/>
        <pt x="177" y="739" on="1"/>
        <pt x="320" y="739" on="0"/>
        <pt x="472" y="553" on="0"/>
      </contour>
      <contour>
        <pt x="330" y="370" on="1"/>
        <pt x="330" y="426" on="0"/>
        <pt x="313" y="516" on="0"/>
        <pt x="283" y="579" on="0"/>
        <pt x="241" y="613" on="0"/>
        <pt x="216" y="613" on="1"/>
        <pt x="212" y="613" on="0"/>
        <pt x="206" y="612" on="0"/>
        <pt x="201" y="611" on="1"/>
        <pt x="201" y="420" on="1"/>
        <pt x="263" y="420" on="1"/>
        <pt x="263" y="316" on="1"/>
        <pt x="201" y="316" on="1"/>
        <pt x="201" y="122" on="1"/>
        <pt x="204" y="121" on="0"/>
        <pt x="211" y="120" on="0"/>
        <pt x="216" y="120" on="1"/>
        <pt x="241" y="120" on="0"/>
        <pt x="283" y="155" on="0"/>
        <pt x="313" y="220" on="0"/>
        <pt x="330" y="312" on="0"/>
      </contour>
    </TTGlyph>
    <TTGlyph name="Euro" xMin="22" yMin="-11" xMax="432" yMax="733">
      <contour>
        <pt x="22" y="401" on="1"/>
        <pt x="22" y="491" on="1"/>
        <pt x="76" y="491" on="1"/>
        <pt x="101" y="604" on="0"/>
        <pt x="223" y="733" on="0"/>
        <pt x="308" y="733" on="1"/>
        <pt x="343" y="733" on="0"/>
        <pt x="400" y="715" on="0"/>
        <pt x="432" y="691" on="1"/>
        <pt x="379" y="575" on="1"/>
        <pt x="362" y="588" on="0"/>
        <pt x="333" y="603" on="0"/>
        <pt x="313" y="603" on="1"/>
        <pt x="284" y="603" on="0"/>
        <pt x="232" y="548" on="0"/>
        <pt x="218" y="491" on="1"/>
        <pt x="355" y="491" on="1"/>
        <pt x="355" y="401" on="1"/>
        <pt x="206" y="401" on="1"/>
        <pt x="205" y="393" on="0"/>
        <pt x="205" y="377" on="0"/>
        <pt x="205" y="369" on="1"/>
        <pt x="205" y="358" on="0"/>
        <pt x="205" y="336" on="0"/>
        <pt x="206" y="325" on="1"/>
        <pt x="355" y="325" on="1"/>
        <pt x="355" y="235" on="1"/>
        <pt x="219" y="235" on="1"/>
        <pt x="248" y="119" on="0"/>
        <pt x="318" y="119" on="1"/>
        <pt x="338" y="119" on="0"/>
        <pt x="367" y="131" on="0"/>
        <pt x="384" y="145" on="1"/>
        <pt x="432" y="31" on="1"/>
        <pt x="398" y="7" on="0"/>
        <pt x="339" y="-11" on="0"/>
        <pt x="303" y="-11" on="1"/>
        <pt x="264" y="-11" on="0"/>
        <pt x="191" y="22" on="0"/>
        <pt x="131" y="85" on="0"/>
        <pt x="87" y="177" on="0"/>
        <pt x="75" y="235" on="1"/>
        <pt x="22" y="235" on="1"/>
        <pt x="22" y="325" on="1"/>
        <pt x="64" y="325" on="1"/>
        <pt x="63" y="333" on="0"/>
        <pt x="63" y="349" on="0"/>
        <pt x="63" y="357" on="1"/>
        <pt x="63" y="368" on="0"/>
        <pt x="63" y="390" on="0"/>
        <pt x="64" y="401" on="1"/>
      </contour>
    </TTGlyph>
    <TTGlyph name="Euro.lin" xMin="22" yMin="-11" xMax="432" yMax="733">
      <contour>
        <pt x="22" y="401" on="1"/>
        <pt x="22" y="491" on="1"/>
        <pt x="76" y="491" on="1"/>
        <pt x="101" y="604" on="0"/>
        <pt x="223" y="733" on="0"/>
        <pt x="308" y="733" on="1"/>
        <pt x="343" y="733" on="0"/>
        <pt x="400" y="715" on="0"/>
        <pt x="432" y="691" on="1"/>
        <pt x="379" y="575" on="1"/>
        <pt x="362" y="588" on="0"/>
        <pt x="333" y="603" on="0"/>
        <pt x="313" y="603" on="1"/>
        <pt x="284" y="603" on="0"/>
        <pt x="232" y="548" on="0"/>
        <pt x="218" y="491" on="1"/>
        <pt x="355" y="491" on="1"/>
        <pt x="355" y="401" on="1"/>
        <pt x="206" y="401" on="1"/>
        <pt x="205" y="393" on="0"/>
        <pt x="205" y="377" on="0"/>
        <pt x="205" y="369" on="1"/>
        <pt x="205" y="358" on="0"/>
        <pt x="205" y="336" on="0"/>
        <pt x="206" y="325" on="1"/>
        <pt x="355" y="325" on="1"/>
        <pt x="355" y="235" on="1"/>
        <pt x="219" y="235" on="1"/>
        <pt x="248" y="119" on="0"/>
        <pt x="318" y="119" on="1"/>
        <pt x="338" y="119" on="0"/>
        <pt x="367" y="131" on="0"/>
        <pt x="384" y="145" on="1"/>
        <pt x="432" y="31" on="1"/>
        <pt x="398" y="7" on="0"/>
        <pt x="339" y="-11" on="0"/>
        <pt x="303" y="-11" on="1"/>
        <pt x="264" y="-11" on="0"/>
        <pt x="191" y="22" on="0"/>
        <pt x="131" y="85" on="0"/>
        <pt x="87" y="177" on="0"/>
        <pt x="75" y="235" on="1"/>
        <pt x="22" y="235" on="1"/>
        <pt x="22" y="325" on="1"/>
        <pt x="64" y="325" on="1"/>
        <pt x="63" y="333" on="0"/>
        <pt x="63" y="349" on="0"/>
        <pt x="63" y="357" on="1"/>
        <pt x="63" y="368" on="0"/>
        <pt x="63" y="390" on="0"/>
        <pt x="64" y="401" on="1"/>
      </contour>
    </TTGlyph>
    <TTGlyph name="F" xMin="43" yMin="0" xMax="355" yMax="733">
      <contour>
        <pt x="181" y="605" on="1"/>
        <pt x="181" y="423" on="1"/>
        <pt x="329" y="423" on="1"/>
        <pt x="329" y="299" on="1"/>
        <pt x="181" y="299" on="1"/>
        <pt x="181" y="0" on="1"/>
        <pt x="43" y="0" on="1"/>
        <pt x="43" y="733" on="1"/>
        <pt x="355" y="733" on="1"/>
        <pt x="355" y="605" on="1"/>
      </contour>
    </TTGlyph>
    <TTGlyph name="G" xMin="23" yMin="-11" xMax="416" yMax="744">
      <contour>
        <pt x="416" y="428" on="1"/>
        <pt x="416" y="40" on="1"/>
        <pt x="384" y="13" on="0"/>
        <pt x="302" y="-11" on="0"/>
        <pt x="262" y="-11" on="1"/>
        <pt x="210" y="-11" on="0"/>
        <pt x="123" y="36" on="0"/>
        <pt x="59" y="129" on="0"/>
        <pt x="23" y="269" on="0"/>
        <pt x="23" y="362" on="1"/>
        <pt x="23" y="447" on="0"/>
        <pt x="57" y="588" on="0"/>
        <pt x="122" y="689" on="0"/>
        <pt x="213" y="744" on="0"/>
        <pt x="270" y="744" on="1"/>
        <pt x="311" y="744" on="0"/>
        <pt x="388" y="712" on="0"/>
        <pt x="413" y="687" on="1"/>
        <pt x="360" y="571" on="1"/>
        <pt x="340" y="589" on="0"/>
        <pt x="297" y="614" on="0"/>
        <pt x="271" y="614" on="1"/>
        <pt x="221" y="614" on="0"/>
        <pt x="165" y="482" on="0"/>
        <pt x="165" y="364" on="1"/>
        <pt x="165" y="234" on="0"/>
        <pt x="224" y="109" on="0"/>
        <pt x="270" y="109" on="1"/>
        <pt x="274" y="109" on="0"/>
        <pt x="286" y="110" on="0"/>
        <pt x="290" y="112" on="1"/>
        <pt x="290" y="303" on="1"/>
        <pt x="229" y="303" on="1"/>
        <pt x="229" y="428" on="1"/>
      </contour>
    </TTGlyph>
    <TTGlyph name="G.alt" xMin="23" yMin="-12" xMax="451" yMax="744">
      <contour>
        <pt x="444" y="428" on="1"/>
        <pt x="451" y="311" on="0"/>
        <pt x="427" y="145" on="0"/>
        <pt x="373" y="38" on="0"/>
        <pt x="294" y="-12" on="0"/>
        <pt x="245" y="-12" on="1"/>
        <pt x="141" y="-12" on="0"/>
        <pt x="23" y="175" on="0"/>
        <pt x="23" y="362" on="1"/>
        <pt x="23" y="447" on="0"/>
        <pt x="56" y="588" on="0"/>
        <pt x="117" y="689" on="0"/>
        <pt x="205" y="744" on="0"/>
        <pt x="260" y="744" on="1"/>
        <pt x="316" y="744" on="0"/>
        <pt x="404" y="686" on="0"/>
        <pt x="432" y="648" on="1"/>
        <pt x="352" y="545" on="1"/>
        <pt x="329" y="576" on="0"/>
        <pt x="287" y="614" on="0"/>
        <pt x="258" y="614" on="1"/>
        <pt x="212" y="614" on="0"/>
        <pt x="165" y="482" on="0"/>
        <pt x="165" y="364" on="1"/>
        <pt x="165" y="235" on="0"/>
        <pt x="208" y="119" on="0"/>
        <pt x="243" y="119" on="1"/>
        <pt x="258" y="119" on="0"/>
        <pt x="284" y="137" on="0"/>
        <pt x="303" y="180" on="0"/>
        <pt x="313" y="250" on="0"/>
        <pt x="311" y="303" on="1"/>
        <pt x="229" y="303" on="1"/>
        <pt x="229" y="428" on="1"/>
      </contour>
    </TTGlyph>
    <TTGlyph name="Gbreve" xMin="23" yMin="-11" xMax="416" yMax="932">
      <component glyphName="G" x="0" y="0" flags="0x204"/>
      <component glyphName="breve" x="44" y="280" flags="0x4"/>
    </TTGlyph>
    <TTGlyph name="Gbreve.alt" xMin="23" yMin="-12" xMax="451" yMax="932">
      <component glyphName="G.alt" x="0" y="0" flags="0x204"/>
      <component glyphName="breve" x="54" y="280" flags="0x4"/>
    </TTGlyph>
    <TTGlyph name="Gcommaaccent" xMin="23" yMin="-309" xMax="416" yMax="744">
      <component glyphName="G" x="0" y="0" flags="0x204"/>
      <component glyphName="commaaccent" x="152" y="0" flags="0x4"/>
    </TTGlyph>
    <TTGlyph name="Gcommaaccent.alt" xMin="23" yMin="-309" xMax="451" yMax="744">
      <component glyphName="G.alt" x="0" y="0" flags="0x204"/>
      <component glyphName="commaaccent" x="162" y="0" flags="0x4"/>
    </TTGlyph>
    <TTGlyph name="Gdotaccent" xMin="23" yMin="-11" xMax="416" yMax="919">
      <component glyphName="G" x="0" y="0" flags="0x204"/>
      <component glyphName="dotaccent" x="44" y="280" flags="0x4"/>
    </TTGlyph>
    <TTGlyph name="Gdotaccent.alt" xMin="23" yMin="-12" xMax="451" yMax="919">
      <component glyphName="G.alt" x="0" y="0" flags="0x204"/>
      <component glyphName="dotaccent" x="54" y="280" flags="0x4"/>
    </TTGlyph>
    <TTGlyph name="H" xMin="43" yMin="0" xMax="437" yMax="733">
      <contour>
        <pt x="299" y="0" on="1"/>
        <pt x="299" y="307" on="1"/>
        <pt x="181" y="307" on="1"/>
        <pt x="181" y="0" on="1"/>
        <pt x="43" y="0" on="1"/>
        <pt x="43" y="733" on="1"/>
        <pt x="181" y="733" on="1"/>
        <pt x="181" y="435" on="1"/>
        <pt x="299" y="435" on="1"/>
        <pt x="299" y="733" on="1"/>
        <pt x="437" y="733" on="1"/>
        <pt x="437" y="0" on="1"/>
      </contour>
    </TTGlyph>
    <TTGlyph name="Hbar" xMin="-7" yMin="0" xMax="487" yMax="733">
      <contour>
        <pt x="299" y="0" on="1"/>
        <pt x="299" y="287" on="1"/>
        <pt x="181" y="287" on="1"/>
        <pt x="181" y="0" on="1"/>
        <pt x="43" y="0" on="1"/>
        <pt x="43" y="534" on="1"/>
        <pt x="-7" y="534" on="1"/>
        <pt x="-7" y="620" on="1"/>
        <pt x="43" y="620" on="1"/>
        <pt x="43" y="733" on="1"/>
        <pt x="181" y="733" on="1"/>
        <pt x="181" y="620" on="1"/>
        <pt x="299" y="620" on="1"/>
        <pt x="299" y="733" on="1"/>
        <pt x="437" y="733" on="1"/>
        <pt x="437" y="620" on="1"/>
        <pt x="487" y="620" on="1"/>
        <pt x="487" y="534" on="1"/>
        <pt x="437" y="534" on="1"/>
        <pt x="437" y="0" on="1"/>
      </contour>
      <contour>
        <pt x="299" y="415" on="1"/>
        <pt x="299" y="534" on="1"/>
        <pt x="181" y="534" on="1"/>
        <pt x="181" y="415" on="1"/>
      </contour>
    </TTGlyph>
    <TTGlyph name="I" xMin="43" yMin="0" xMax="181" yMax="733">
      <contour>
        <pt x="43" y="0" on="1"/>
        <pt x="43" y="733" on="1"/>
        <pt x="181" y="733" on="1"/>
        <pt x="181" y="0" on="1"/>
      </contour>
    </TTGlyph>
    <TTGlyph name="Iacute" xMin="43" yMin="0" xMax="265" yMax="983">
      <component glyphName="I" x="0" y="0" flags="0x204"/>
      <component glyphName="acute" x="-21" y="280" flags="0x4"/>
    </TTGlyph>
    <TTGlyph name="Ibreve" xMin="-23" yMin="0" xMax="250" yMax="932">
      <component glyphName="I" x="0" y="0" flags="0x204"/>
      <component glyphName="breve" x="-87" y="280" flags="0x4"/>
    </TTGlyph>
    <TTGlyph name="Icircumflex" xMin="-27" yMin="0" xMax="253" yMax="943">
      <component glyphName="I" x="0" y="0" flags="0x204"/>
      <component glyphName="circumflex" x="-87" y="280" flags="0x4"/>
    </TTGlyph>
    <TTGlyph name="Idieresis" xMin="-30" yMin="0" xMax="256" yMax="919">
      <component glyphName="I" x="0" y="0" flags="0x204"/>
      <component glyphName="dieresis" x="-87" y="280" flags="0x4"/>
    </TTGlyph>
    <TTGlyph name="Idotaccent" xMin="43" yMin="0" xMax="181" yMax="919">
      <component glyphName="I" x="0" y="0" flags="0x204"/>
      <component glyphName="dotaccent" x="-87" y="280" flags="0x4"/>
    </TTGlyph>
    <TTGlyph name="Igrave" xMin="-44" yMin="0" xMax="181" yMax="985">
      <component glyphName="I" x="0" y="0" flags="0x204"/>
      <component glyphName="grave" x="-153" y="280" flags="0x4"/>
    </TTGlyph>
    <TTGlyph name="Imacron" xMin="-4" yMin="0" xMax="231" yMax="880">
      <component glyphName="I" x="0" y="0" flags="0x204"/>
      <component glyphName="macron" x="-86" y="280" flags="0x4"/>
    </TTGlyph>
    <TTGlyph name="Iogonek" xMin="27" yMin="-198" xMax="199" yMax="733">
      <contour>
        <pt x="199" y="-157" on="1"/>
        <pt x="185" y="-172" on="0"/>
        <pt x="135" y="-198" on="0"/>
        <pt x="103" y="-198" on="1"/>
        <pt x="65" y="-198" on="0"/>
        <pt x="27" y="-154" on="0"/>
        <pt x="27" y="-122" on="1"/>
        <pt x="27" y="-95" on="0"/>
        <pt x="51" y="-38" on="0"/>
        <pt x="80" y="0" on="1"/>
        <pt x="43" y="0" on="1"/>
        <pt x="43" y="733" on="1"/>
        <pt x="181" y="733" on="1"/>
        <pt x="181" y="0" on="1"/>
        <pt x="150" y="0" on="1"/>
        <pt x="125" y="-37" on="0"/>
        <pt x="109" y="-77" on="0"/>
        <pt x="109" y="-94" on="1"/>
        <pt x="109" y="-111" on="0"/>
        <pt x="128" y="-129" on="0"/>
        <pt x="143" y="-129" on="1"/>
        <pt x="153" y="-129" on="0"/>
        <pt x="173" y="-123" on="0"/>
        <pt x="180" y="-118" on="1"/>
        <pt x="199" y="-157" on="1"/>
      </contour>
    </TTGlyph>
    <TTGlyph name="J" xMin="-3" yMin="-11" xMax="302" yMax="733">
      <contour>
        <pt x="302" y="169" on="1"/>
        <pt x="302" y="83" on="0"/>
        <pt x="227" y="-11" on="0"/>
        <pt x="138" y="-11" on="1"/>
        <pt x="104" y="-11" on="0"/>
        <pt x="31" y="13" on="0"/>
        <pt x="-3" y="34" on="1"/>
        <pt x="51" y="148" on="1"/>
        <pt x="72" y="135" on="0"/>
        <pt x="109" y="119" on="0"/>
        <pt x="126" y="119" on="1"/>
        <pt x="164" y="119" on="0"/>
        <pt x="164" y="160" on="1"/>
        <pt x="164" y="733" on="1"/>
        <pt x="302" y="733" on="1"/>
      </contour>
    </TTGlyph>
    <TTGlyph name="K" xMin="43" yMin="0" xMax="453" yMax="733">
      <contour>
        <pt x="305" y="0" on="1"/>
        <pt x="181" y="349" on="1"/>
        <pt x="181" y="0" on="1"/>
        <pt x="43" y="0" on="1"/>
        <pt x="43" y="733" on="1"/>
        <pt x="181" y="733" on="1"/>
        <pt x="181" y="406" on="1"/>
        <pt x="297" y="733" on="1"/>
        <pt x="443" y="733" on="1"/>
        <pt x="304" y="383" on="1"/>
        <pt x="453" y="0" on="1"/>
      </contour>
    </TTGlyph>
    <TTGlyph name="Kcommaaccent" xMin="43" yMin="-309" xMax="453" yMax="733">
      <component glyphName="K" x="0" y="0" flags="0x204"/>
      <component glyphName="commaaccent" x="146" y="0" flags="0x4"/>
    </TTGlyph>
    <TTGlyph name="L" xMin="43" yMin="0" xMax="337" yMax="733">
      <contour>
        <pt x="43" y="0" on="1"/>
        <pt x="43" y="733" on="1"/>
        <pt x="181" y="733" on="1"/>
        <pt x="181" y="127" on="1"/>
        <pt x="337" y="127" on="1"/>
        <pt x="337" y="0" on="1"/>
      </contour>
    </TTGlyph>
    <TTGlyph name="Lacute" xMin="43" yMin="0" xMax="337" yMax="983">
      <component glyphName="L" x="0" y="0" flags="0x204"/>
      <component glyphName="acute" x="-13" y="280" flags="0x4"/>
    </TTGlyph>
    <TTGlyph name="Lcaron" xMin="43" yMin="0" xMax="337" yMax="733">
      <component glyphName="L" x="0" y="0" flags="0x204"/>
      <component glyphName="caron.alt" x="163" y="-8" flags="0x4"/>
    </TTGlyph>
    <TTGlyph name="Lcommaaccent" xMin="43" yMin="-309" xMax="337" yMax="733">
      <component glyphName="L" x="0" y="0" flags="0x204"/>
      <component glyphName="commaaccent" x="98" y="0" flags="0x4"/>
    </TTGlyph>
    <TTGlyph name="Ldot" xMin="43" yMin="0" xMax="351" yMax="733">
      <component glyphName="L" x="0" y="0" flags="0x204"/>
      <component glyphName="dotaccent" x="88" y="-209" flags="0x4"/>
    </TTGlyph>
    <TTGlyph name="Lslash" xMin="5" yMin="0" xMax="357" yMax="733">
      <contour>
        <pt x="63" y="0" on="1"/>
        <pt x="63" y="244" on="1"/>
        <pt x="5" y="217" on="1"/>
        <pt x="5" y="342" on="1"/>
        <pt x="63" y="369" on="1"/>
        <pt x="63" y="733" on="1"/>
        <pt x="201" y="733" on="1"/>
        <pt x="201" y="433" on="1"/>
        <pt x="289" y="473" on="1"/>
        <pt x="289" y="348" on="1"/>
        <pt x="201" y="307" on="1"/>
        <pt x="201" y="127" on="1"/>
        <pt x="357" y="127" on="1"/>
        <pt x="357" y="0" on="1"/>
      </contour>
    </TTGlyph>
    <TTGlyph name="M" xMin="38" yMin="0" xMax="532" yMax="734">
      <contour>
        <pt x="399" y="0" on="1"/>
        <pt x="392" y="360" on="1"/>
        <pt x="300" y="129" on="1"/>
        <pt x="273" y="129" on="1"/>
        <pt x="176" y="360" on="1"/>
        <pt x="170" y="0" on="1"/>
        <pt x="38" y="0" on="1"/>
        <pt x="55" y="732" on="1"/>
        <pt x="128" y="734" on="1"/>
        <pt x="288" y="376" on="1"/>
        <pt x="441" y="734" on="1"/>
        <pt x="514" y="732" on="1"/>
        <pt x="532" y="0" on="1"/>
      </contour>
    </TTGlyph>
    <TTGlyph name="M.alt" xMin="38" yMin="0" xMax="532" yMax="734">
      <contour>
        <pt x="399" y="0" on="1"/>
        <pt x="392" y="360" on="1"/>
        <pt x="300" y="129" on="1"/>
        <pt x="273" y="129" on="1"/>
        <pt x="176" y="360" on="1"/>
        <pt x="170" y="0" on="1"/>
        <pt x="38" y="0" on="1"/>
        <pt x="55" y="732" on="1"/>
        <pt x="128" y="734" on="1"/>
        <pt x="288" y="376" on="1"/>
        <pt x="441" y="734" on="1"/>
        <pt x="514" y="732" on="1"/>
        <pt x="532" y="0" on="1"/>
      </contour>
    </TTGlyph>
    <TTGlyph name="N" xMin="43" yMin="-1" xMax="437" yMax="734">
      <contour>
        <pt x="368" y="-1" on="1"/>
        <pt x="177" y="371" on="1"/>
        <pt x="177" y="0" on="1"/>
        <pt x="43" y="0" on="1"/>
        <pt x="43" y="732" on="1"/>
        <pt x="112" y="734" on="1"/>
        <pt x="303" y="375" on="1"/>
        <pt x="303" y="733" on="1"/>
        <pt x="437" y="733" on="1"/>
        <pt x="437" y="1" on="1"/>
      </contour>
    </TTGlyph>
    <TTGlyph name="Nacute" xMin="43" yMin="-1" xMax="437" yMax="983">
      <component glyphName="N" x="0" y="0" flags="0x204"/>
      <component glyphName="acute" x="106" y="280" flags="0x4"/>
    </TTGlyph>
    <TTGlyph name="Ncaron" xMin="43" yMin="-1" xMax="437" yMax="938">
      <component glyphName="N" x="0" y="0" flags="0x204"/>
      <component glyphName="caron" x="40" y="280" flags="0x4"/>
    </TTGlyph>
    <TTGlyph name="Ncommaaccent" xMin="43" yMin="-309" xMax="437" yMax="734">
      <component glyphName="N" x="0" y="0" flags="0x204"/>
      <component glyphName="commaaccent" x="148" y="0" flags="0x4"/>
    </TTGlyph>
    <TTGlyph name="Ntilde" xMin="43" yMin="-1" xMax="437" yMax="916">
      <component glyphName="N" x="0" y="0" flags="0x204"/>
      <component glyphName="tilde" x="40" y="280" flags="0x4"/>
    </TTGlyph>
    <TTGlyph name="O" xMin="23" yMin="-11" xMax="455" yMax="744">
      <contour>
        <pt x="455" y="370" on="1"/>
        <pt x="455" y="281" on="0"/>
        <pt x="425" y="140" on="0"/>
        <pt x="369" y="42" on="0"/>
        <pt x="288" y="-11" on="0"/>
        <pt x="236" y="-11" on="1"/>
        <pt x="186" y="-11" on="0"/>
        <pt x="107" y="40" on="0"/>
        <pt x="52" y="138" on="0"/>
        <pt x="23" y="277" on="0"/>
        <pt x="23" y="366" on="1"/>
        <pt x="23" y="454" on="0"/>
        <pt x="53" y="595" on="0"/>
        <pt x="109" y="692" on="0"/>
        <pt x="190" y="744" on="0"/>
        <pt x="242" y="744" on="1"/>
        <pt x="292" y="744" on="0"/>
        <pt x="371" y="693" on="0"/>
        <pt x="426" y="597" on="0"/>
        <pt x="455" y="458" on="0"/>
      </contour>
      <contour>
        <pt x="313" y="368" on="1"/>
        <pt x="313" y="493" on="0"/>
        <pt x="277" y="623" on="0"/>
        <pt x="239" y="623" on="1"/>
        <pt x="201" y="623" on="0"/>
        <pt x="165" y="493" on="0"/>
        <pt x="165" y="368" on="1"/>
        <pt x="165" y="243" on="0"/>
        <pt x="201" y="110" on="0"/>
        <pt x="239" y="110" on="1"/>
        <pt x="277" y="110" on="0"/>
        <pt x="313" y="243" on="0"/>
      </contour>
    </TTGlyph>
    <TTGlyph name="OE" xMin="23" yMin="-3" xMax="611" yMax="737">
      <contour>
        <pt x="404" y="0" on="1"/>
        <pt x="384" y="-2" on="0"/>
        <pt x="334" y="-3" on="0"/>
        <pt x="318" y="-3" on="1"/>
        <pt x="180" y="-3" on="0"/>
        <pt x="23" y="182" on="0"/>
        <pt x="23" y="363" on="1"/>
        <pt x="23" y="453" on="0"/>
        <pt x="63" y="593" on="0"/>
        <pt x="140" y="688" on="0"/>
        <pt x="249" y="737" on="0"/>
        <pt x="318" y="737" on="1"/>
        <pt x="326" y="737" on="0"/>
        <pt x="348" y="736" on="0"/>
        <pt x="371" y="735" on="0"/>
        <pt x="392" y="734" on="0"/>
        <pt x="399" y="733" on="1"/>
        <pt x="611" y="733" on="1"/>
        <pt x="611" y="605" on="1"/>
        <pt x="432" y="605" on="1"/>
        <pt x="432" y="439" on="1"/>
        <pt x="585" y="439" on="1"/>
        <pt x="585" y="315" on="1"/>
        <pt x="432" y="315" on="1"/>
        <pt x="432" y="128" on="1"/>
        <pt x="611" y="128" on="1"/>
        <pt x="611" y="0" on="1"/>
      </contour>
      <contour>
        <pt x="294" y="612" on="1"/>
        <pt x="291" y="613" on="0"/>
        <pt x="284" y="614" on="0"/>
        <pt x="279" y="614" on="1"/>
        <pt x="253" y="614" on="0"/>
        <pt x="211" y="579" on="0"/>
        <pt x="181" y="514" on="0"/>
        <pt x="165" y="421" on="0"/>
        <pt x="165" y="363" on="1"/>
        <pt x="165" y="250" on="0"/>
        <pt x="228" y="121" on="0"/>
        <pt x="279" y="121" on="1"/>
        <pt x="283" y="121" on="0"/>
        <pt x="289" y="122" on="0"/>
        <pt x="294" y="123" on="1"/>
      </contour>
    </TTGlyph>
    <TTGlyph name="Oacute" xMin="23" yMin="-11" xMax="455" yMax="983">
      <component glyphName="O" x="0" y="0" flags="0x204"/>
      <component glyphName="acute" x="105" y="280" flags="0x4"/>
    </TTGlyph>
    <TTGlyph name="Obreve" xMin="23" yMin="-11" xMax="455" yMax="932">
      <component glyphName="O" x="0" y="0" flags="0x204"/>
      <component glyphName="breve" x="39" y="280" flags="0x4"/>
    </TTGlyph>
    <TTGlyph name="Ocircumflex" xMin="23" yMin="-11" xMax="455" yMax="943">
      <component glyphName="O" x="0" y="0" flags="0x204"/>
      <component glyphName="circumflex" x="39" y="280" flags="0x4"/>
    </TTGlyph>
    <TTGlyph name="Odieresis" xMin="23" yMin="-11" xMax="455" yMax="919">
      <component glyphName="O" x="0" y="0" flags="0x204"/>
      <component glyphName="dieresis" x="39" y="280" flags="0x4"/>
    </TTGlyph>
    <TTGlyph name="Ograve" xMin="23" yMin="-11" xMax="455" yMax="985">
      <component glyphName="O" x="0" y="0" flags="0x204"/>
      <component glyphName="grave" x="-26" y="280" flags="0x4"/>
    </TTGlyph>
    <TTGlyph name="Ohungarumlaut" xMin="23" yMin="-11" xMax="455" yMax="1010">
      <component glyphName="O" x="0" y="0" flags="0x204"/>
      <component glyphName="hungarumlaut" x="78" y="280" flags="0x4"/>
    </TTGlyph>
    <TTGlyph name="Omacron" xMin="23" yMin="-11" xMax="455" yMax="880">
      <component glyphName="O" x="0" y="0" flags="0x204"/>
      <component glyphName="macron" x="40" y="280" flags="0x4"/>
    </TTGlyph>
    <TTGlyph name="Oslash" xMin="23" yMin="-11" xMax="455" yMax="744">
      <contour>
        <pt x="455" y="370" on="1"/>
        <pt x="455" y="281" on="0"/>
        <pt x="425" y="140" on="0"/>
        <pt x="369" y="42" on="0"/>
        <pt x="288" y="-11" on="0"/>
        <pt x="236" y="-11" on="1"/>
        <pt x="159" y="-11" on="0"/>
        <pt x="109" y="48" on="1"/>
        <pt x="80" y="-11" on="1"/>
        <pt x="30" y="12" on="1"/>
        <pt x="74" y="100" on="1"/>
        <pt x="49" y="148" on="0"/>
        <pt x="23" y="282" on="0"/>
        <pt x="23" y="366" on="1"/>
        <pt x="23" y="454" on="0"/>
        <pt x="53" y="595" on="0"/>
        <pt x="109" y="692" on="0"/>
        <pt x="190" y="744" on="0"/>
        <pt x="242" y="744" on="1"/>
        <pt x="314" y="744" on="0"/>
        <pt x="364" y="692" on="1"/>
        <pt x="390" y="744" on="1"/>
        <pt x="439" y="721" on="1"/>
        <pt x="400" y="642" on="1"/>
        <pt x="426" y="594" on="0"/>
        <pt x="455" y="458" on="0"/>
      </contour>
      <contour>
        <pt x="292" y="569" on="1"/>
        <pt x="274" y="623" on="0"/>
        <pt x="239" y="623" on="1"/>
        <pt x="201" y="623" on="0"/>
        <pt x="165" y="493" on="0"/>
        <pt x="165" y="368" on="1"/>
        <pt x="165" y="320" on="0"/>
        <pt x="168" y="281" on="1"/>
      </contour>
      <contour>
        <pt x="313" y="368" on="1"/>
        <pt x="313" y="397" on="0"/>
        <pt x="311" y="449" on="0"/>
        <pt x="309" y="472" on="1"/>
        <pt x="183" y="176" on="1"/>
        <pt x="201" y="110" on="0"/>
        <pt x="239" y="110" on="1"/>
        <pt x="277" y="110" on="0"/>
        <pt x="313" y="243" on="0"/>
      </contour>
    </TTGlyph>
    <TTGlyph name="Oslashacute" xMin="23" yMin="-11" xMax="455" yMax="983">
      <component glyphName="Oslash" x="0" y="0" flags="0x204"/>
      <component glyphName="acute" x="105" y="280" flags="0x4"/>
    </TTGlyph>
    <TTGlyph name="Otilde" xMin="23" yMin="-11" xMax="455" yMax="916">
      <component glyphName="O" x="0" y="0" flags="0x204"/>
      <component glyphName="tilde" x="39" y="280" flags="0x4"/>
    </TTGlyph>
    <TTGlyph name="P" xMin="43" yMin="0" xMax="419" yMax="739">
      <contour>
        <pt x="419" y="489" on="1"/>
        <pt x="419" y="442" on="0"/>
        <pt x="392" y="351" on="0"/>
        <pt x="336" y="280" on="0"/>
        <pt x="253" y="236" on="0"/>
        <pt x="198" y="236" on="1"/>
        <pt x="185" y="236" on="0"/>
        <pt x="181" y="237" on="1"/>
        <pt x="181" y="0" on="1"/>
        <pt x="43" y="0" on="1"/>
        <pt x="43" y="729" on="1"/>
        <pt x="66" y="733" on="0"/>
        <pt x="128" y="739" on="0"/>
        <pt x="167" y="739" on="1"/>
        <pt x="233" y="739" on="0"/>
        <pt x="328" y="701" on="0"/>
        <pt x="390" y="634" on="0"/>
        <pt x="419" y="542" on="0"/>
      </contour>
      <contour>
        <pt x="281" y="487" on="1"/>
        <pt x="281" y="552" on="0"/>
        <pt x="232" y="613" on="0"/>
        <pt x="196" y="613" on="1"/>
        <pt x="191" y="613" on="0"/>
        <pt x="181" y="611" on="1"/>
        <pt x="181" y="359" on="1"/>
        <pt x="187" y="357" on="0"/>
        <pt x="196" y="357" on="1"/>
        <pt x="232" y="357" on="0"/>
        <pt x="281" y="421" on="0"/>
      </contour>
    </TTGlyph>
    <TTGlyph name="Q" xMin="23" yMin="-24" xMax="475" yMax="744">
      <contour>
        <pt x="402" y="-24" on="1"/>
        <pt x="352" y="34" on="1"/>
        <pt x="304" y="-11" on="0"/>
        <pt x="236" y="-11" on="1"/>
        <pt x="186" y="-11" on="0"/>
        <pt x="107" y="40" on="0"/>
        <pt x="52" y="138" on="0"/>
        <pt x="23" y="277" on="0"/>
        <pt x="23" y="366" on="1"/>
        <pt x="23" y="454" on="0"/>
        <pt x="53" y="595" on="0"/>
        <pt x="109" y="692" on="0"/>
        <pt x="190" y="744" on="0"/>
        <pt x="242" y="744" on="1"/>
        <pt x="292" y="744" on="0"/>
        <pt x="371" y="693" on="0"/>
        <pt x="426" y="597" on="0"/>
        <pt x="455" y="458" on="0"/>
        <pt x="455" y="370" on="1"/>
        <pt x="455" y="297" on="0"/>
        <pt x="435" y="177" on="0"/>
        <pt x="416" y="129" on="1"/>
        <pt x="475" y="68" on="1"/>
      </contour>
      <contour>
        <pt x="314" y="358" on="1"/>
        <pt x="314" y="623" on="0"/>
        <pt x="239" y="623" on="1"/>
        <pt x="201" y="623" on="0"/>
        <pt x="165" y="493" on="0"/>
        <pt x="165" y="368" on="1"/>
        <pt x="165" y="239" on="0"/>
        <pt x="200" y="110" on="0"/>
        <pt x="245" y="110" on="1"/>
        <pt x="263" y="110" on="0"/>
        <pt x="274" y="121" on="1"/>
        <pt x="205" y="195" on="1"/>
        <pt x="264" y="290" on="1"/>
        <pt x="309" y="237" on="1"/>
        <pt x="311" y="261" on="0"/>
        <pt x="314" y="321" on="0"/>
      </contour>
    </TTGlyph>
    <TTGlyph name="R" xMin="43" yMin="0" xMax="431" yMax="739">
      <contour>
        <pt x="285" y="0" on="1"/>
        <pt x="219" y="262" on="1"/>
        <pt x="215" y="261" on="0"/>
        <pt x="206" y="261" on="0"/>
        <pt x="201" y="261" on="1"/>
        <pt x="196" y="261" on="0"/>
        <pt x="185" y="261" on="0"/>
        <pt x="181" y="262" on="1"/>
        <pt x="181" y="0" on="1"/>
        <pt x="43" y="0" on="1"/>
        <pt x="43" y="729" on="1"/>
        <pt x="66" y="733" on="0"/>
        <pt x="137" y="739" on="0"/>
        <pt x="174" y="739" on="1"/>
        <pt x="238" y="739" on="0"/>
        <pt x="333" y="701" on="0"/>
        <pt x="395" y="637" on="0"/>
        <pt x="425" y="552" on="0"/>
        <pt x="425" y="505" on="1"/>
        <pt x="425" y="435" on="0"/>
        <pt x="382" y="343" on="0"/>
        <pt x="337" y="308" on="1"/>
        <pt x="431" y="0" on="1"/>
      </contour>
      <contour>
        <pt x="287" y="494" on="1"/>
        <pt x="287" y="549" on="0"/>
        <pt x="245" y="613" on="0"/>
        <pt x="197" y="613" on="1"/>
        <pt x="192" y="613" on="0"/>
        <pt x="186" y="612" on="0"/>
        <pt x="181" y="611" on="1"/>
        <pt x="181" y="375" on="1"/>
        <pt x="186" y="374" on="0"/>
        <pt x="190" y="374" on="0"/>
        <pt x="197" y="374" on="1"/>
        <pt x="287" y="374" on="0"/>
      </contour>
    </TTGlyph>
    <TTGlyph name="Racute" xMin="43" yMin="0" xMax="431" yMax="983">
      <component glyphName="R" x="0" y="0" flags="0x204"/>
      <component glyphName="acute" x="87" y="280" flags="0x4"/>
    </TTGlyph>
    <TTGlyph name="Rcaron" xMin="43" yMin="0" xMax="431" yMax="938">
      <component glyphName="R" x="0" y="0" flags="0x204"/>
      <component glyphName="caron" x="21" y="280" flags="0x4"/>
    </TTGlyph>
    <TTGlyph name="Rcommaaccent" xMin="43" yMin="-309" xMax="431" yMax="739">
      <component glyphName="R" x="0" y="0" flags="0x204"/>
      <component glyphName="commaaccent" x="129" y="0" flags="0x4"/>
    </TTGlyph>
    <TTGlyph name="S" xMin="13" yMin="-11" xMax="378" yMax="744">
      <contour>
        <pt x="378" y="193" on="1"/>
        <pt x="378" y="151" on="0"/>
        <pt x="354" y="77" on="0"/>
        <pt x="308" y="22" on="0"/>
        <pt x="239" y="-11" on="0"/>
        <pt x="193" y="-11" on="1"/>
        <pt x="151" y="-11" on="0"/>
        <pt x="56" y="21" on="0"/>
        <pt x="13" y="51" on="1"/>
        <pt x="57" y="176" on="1"/>
        <pt x="87" y="152" on="0"/>
        <pt x="150" y="119" on="0"/>
        <pt x="182" y="119" on="1"/>
        <pt x="212" y="119" on="0"/>
        <pt x="239" y="154" on="0"/>
        <pt x="239" y="180" on="1"/>
        <pt x="239" y="194" on="0"/>
        <pt x="230" y="221" on="0"/>
        <pt x="209" y="254" on="0"/>
        <pt x="172" y="297" on="0"/>
        <pt x="144" y="327" on="1"/>
        <pt x="83" y="391" on="0"/>
        <pt x="24" y="490" on="0"/>
        <pt x="24" y="546" on="1"/>
        <pt x="24" y="584" on="0"/>
        <pt x="50" y="655" on="0"/>
        <pt x="99" y="711" on="0"/>
        <pt x="169" y="744" on="0"/>
        <pt x="212" y="744" on="1"/>
        <pt x="258" y="744" on="0"/>
        <pt x="325" y="722" on="0"/>
        <pt x="363" y="699" on="1"/>
        <pt x="317" y="573" on="1"/>
        <pt x="286" y="595" on="0"/>
        <pt x="245" y="614" on="0"/>
        <pt x="220" y="614" on="1"/>
        <pt x="194" y="614" on="0"/>
        <pt x="163" y="583" on="0"/>
        <pt x="163" y="556" on="1"/>
        <pt x="163" y="543" on="0"/>
        <pt x="171" y="520" on="0"/>
        <pt x="191" y="491" on="0"/>
        <pt x="226" y="454" on="0"/>
        <pt x="252" y="427" on="1"/>
        <pt x="286" y="391" on="0"/>
        <pt x="334" y="332" on="0"/>
        <pt x="364" y="276" on="0"/>
        <pt x="378" y="223" on="0"/>
      </contour>
    </TTGlyph>
    <TTGlyph name="Sacute" xMin="13" yMin="-11" xMax="378" yMax="983">
      <component glyphName="S" x="0" y="0" flags="0x204"/>
      <component glyphName="acute" x="67" y="280" flags="0x4"/>
    </TTGlyph>
    <TTGlyph name="Scaron" xMin="13" yMin="-11" xMax="378" yMax="938">
      <component glyphName="S" x="0" y="0" flags="0x204"/>
      <component glyphName="caron" x="1" y="280" flags="0x4"/>
    </TTGlyph>
    <TTGlyph name="Scedilla" xMin="13" yMin="-199" xMax="378" yMax="744">
      <contour>
        <pt x="293" y="-112" on="1"/>
        <pt x="293" y="-147" on="0"/>
        <pt x="242" y="-199" on="0"/>
        <pt x="193" y="-199" on="1"/>
        <pt x="168" y="-199" on="0"/>
        <pt x="120" y="-181" on="0"/>
        <pt x="94" y="-167" on="1"/>
        <pt x="118" y="-105" on="1"/>
        <pt x="162" y="-137" on="0"/>
        <pt x="198" y="-137" on="1"/>
        <pt x="209" y="-137" on="0"/>
        <pt x="222" y="-127" on="0"/>
        <pt x="222" y="-113" on="1"/>
        <pt x="222" y="-104" on="0"/>
        <pt x="192" y="-87" on="0"/>
        <pt x="148" y="-87" on="1"/>
        <pt x="146" y="-79" on="1"/>
        <pt x="164" y="-9" on="1"/>
        <pt x="127" y="-4" on="0"/>
        <pt x="48" y="25" on="0"/>
        <pt x="13" y="51" on="1"/>
        <pt x="57" y="176" on="1"/>
        <pt x="87" y="152" on="0"/>
        <pt x="150" y="119" on="0"/>
        <pt x="182" y="119" on="1"/>
        <pt x="212" y="119" on="0"/>
        <pt x="239" y="154" on="0"/>
        <pt x="239" y="180" on="1"/>
        <pt x="239" y="194" on="0"/>
        <pt x="230" y="221" on="0"/>
        <pt x="209" y="254" on="0"/>
        <pt x="172" y="297" on="0"/>
        <pt x="144" y="327" on="1"/>
        <pt x="83" y="391" on="0"/>
        <pt x="24" y="490" on="0"/>
        <pt x="24" y="546" on="1"/>
        <pt x="24" y="584" on="0"/>
        <pt x="50" y="655" on="0"/>
        <pt x="99" y="711" on="0"/>
        <pt x="169" y="744" on="0"/>
        <pt x="212" y="744" on="1"/>
        <pt x="258" y="744" on="0"/>
        <pt x="325" y="722" on="0"/>
        <pt x="363" y="699" on="1"/>
        <pt x="317" y="573" on="1"/>
        <pt x="286" y="595" on="0"/>
        <pt x="245" y="614" on="0"/>
        <pt x="220" y="614" on="1"/>
        <pt x="194" y="614" on="0"/>
        <pt x="163" y="583" on="0"/>
        <pt x="163" y="556" on="1"/>
        <pt x="163" y="543" on="0"/>
        <pt x="171" y="520" on="0"/>
        <pt x="191" y="491" on="0"/>
        <pt x="226" y="454" on="0"/>
        <pt x="252" y="427" on="1"/>
        <pt x="286" y="391" on="0"/>
        <pt x="334" y="332" on="0"/>
        <pt x="364" y="276" on="0"/>
        <pt x="378" y="223" on="0"/>
        <pt x="378" y="193" on="1"/>
        <pt x="378" y="153" on="0"/>
        <pt x="356" y="82" on="0"/>
        <pt x="314" y="27" on="0"/>
        <pt x="251" y="-7" on="0"/>
        <pt x="209" y="-10" on="1"/>
        <pt x="204" y="-33" on="1"/>
        <pt x="252" y="-44" on="0"/>
        <pt x="293" y="-84" on="0"/>
      </contour>
    </TTGlyph>
    <TTGlyph name="Scommaaccent" xMin="13" yMin="-309" xMax="378" yMax="744">
      <component glyphName="S" x="0" y="0" flags="0x204"/>
      <component glyphName="commaaccent" x="109" y="0" flags="0x4"/>
    </TTGlyph>
    <TTGlyph name="T" xMin="15" yMin="0" xMax="377" yMax="733">
      <contour>
        <pt x="265" y="604" on="1"/>
        <pt x="265" y="0" on="1"/>
        <pt x="127" y="0" on="1"/>
        <pt x="127" y="604" on="1"/>
        <pt x="15" y="604" on="1"/>
        <pt x="15" y="733" on="1"/>
        <pt x="377" y="733" on="1"/>
        <pt x="377" y="604" on="1"/>
      </contour>
    </TTGlyph>
    <TTGlyph name="Tcaron" xMin="15" yMin="0" xMax="377" yMax="938">
      <component glyphName="T" x="0" y="0" flags="0x204"/>
      <component glyphName="caron" x="-3" y="280" flags="0x4"/>
    </TTGlyph>
    <TTGlyph name="Tcommaaccent" xMin="15" yMin="-309" xMax="377" yMax="733">
      <component glyphName="T" x="0" y="0" flags="0x204"/>
      <component glyphName="commaaccent" x="104" y="0" flags="0x4"/>
    </TTGlyph>
    <TTGlyph name="Thorn" xMin="43" yMin="0" xMax="419" yMax="733">
      <contour>
        <pt x="419" y="377" on="1"/>
        <pt x="419" y="330" on="0"/>
        <pt x="392" y="239" on="0"/>
        <pt x="336" y="168" on="0"/>
        <pt x="253" y="124" on="0"/>
        <pt x="198" y="124" on="1"/>
        <pt x="185" y="124" on="0"/>
        <pt x="181" y="125" on="1"/>
        <pt x="181" y="0" on="1"/>
        <pt x="43" y="0" on="1"/>
        <pt x="43" y="733" on="1"/>
        <pt x="181" y="733" on="1"/>
        <pt x="181" y="627" on="1"/>
        <pt x="182" y="627" on="1"/>
        <pt x="244" y="625" on="0"/>
        <pt x="334" y="585" on="0"/>
        <pt x="392" y="518" on="0"/>
        <pt x="419" y="429" on="0"/>
      </contour>
      <contour>
        <pt x="281" y="375" on="1"/>
        <pt x="281" y="440" on="0"/>
        <pt x="232" y="501" on="0"/>
        <pt x="196" y="501" on="1"/>
        <pt x="191" y="501" on="0"/>
        <pt x="181" y="499" on="1"/>
        <pt x="181" y="247" on="1"/>
        <pt x="187" y="245" on="0"/>
        <pt x="196" y="245" on="1"/>
        <pt x="232" y="245" on="0"/>
        <pt x="281" y="309" on="0"/>
      </contour>
    </TTGlyph>
    <TTGlyph name="U" xMin="41" yMin="-10" xMax="429" yMax="733">
      <contour>
        <pt x="429" y="197" on="1"/>
        <pt x="429" y="141" on="0"/>
        <pt x="399" y="62" on="0"/>
        <pt x="346" y="13" on="0"/>
        <pt x="274" y="-10" on="0"/>
        <pt x="232" y="-10" on="1"/>
        <pt x="191" y="-10" on="0"/>
        <pt x="121" y="14" on="0"/>
        <pt x="70" y="64" on="0"/>
        <pt x="41" y="143" on="0"/>
        <pt x="41" y="197" on="1"/>
        <pt x="41" y="733" on="1"/>
        <pt x="179" y="733" on="1"/>
        <pt x="179" y="185" on="1"/>
        <pt x="179" y="151" on="0"/>
        <pt x="209" y="114" on="0"/>
        <pt x="237" y="114" on="1"/>
        <pt x="291" y="114" on="0"/>
        <pt x="291" y="185" on="1"/>
        <pt x="291" y="733" on="1"/>
        <pt x="429" y="733" on="1"/>
        <pt x="429" y="197" on="1"/>
      </contour>
    </TTGlyph>
    <TTGlyph name="Uacute" xMin="41" yMin="-10" xMax="429" yMax="983">
      <component glyphName="U" x="0" y="0" flags="0x204"/>
      <component glyphName="acute" x="101" y="280" flags="0x4"/>
    </TTGlyph>
    <TTGlyph name="Ubreve" xMin="41" yMin="-10" xMax="429" yMax="932">
      <component glyphName="U" x="0" y="0" flags="0x204"/>
      <component glyphName="breve" x="35" y="280" flags="0x4"/>
    </TTGlyph>
    <TTGlyph name="Ucircumflex" xMin="41" yMin="-10" xMax="429" yMax="943">
      <component glyphName="U" x="0" y="0" flags="0x204"/>
      <component glyphName="circumflex" x="35" y="280" flags="0x4"/>
    </TTGlyph>
    <TTGlyph name="Udieresis" xMin="41" yMin="-10" xMax="429" yMax="919">
      <component glyphName="U" x="0" y="0" flags="0x204"/>
      <component glyphName="dieresis" x="35" y="280" flags="0x4"/>
    </TTGlyph>
    <TTGlyph name="Ugrave" xMin="41" yMin="-10" xMax="429" yMax="985">
      <component glyphName="U" x="0" y="0" flags="0x204"/>
      <component glyphName="grave" x="-30" y="280" flags="0x4"/>
    </TTGlyph>
    <TTGlyph name="Uhungarumlaut" xMin="41" yMin="-10" xMax="446" yMax="1010">
      <component glyphName="U" x="0" y="0" flags="0x204"/>
      <component glyphName="hungarumlaut" x="74" y="280" flags="0x4"/>
    </TTGlyph>
    <TTGlyph name="Umacron" xMin="41" yMin="-10" xMax="429" yMax="880">
      <component glyphName="U" x="0" y="0" flags="0x204"/>
      <component glyphName="macron" x="36" y="280" flags="0x4"/>
    </TTGlyph>
    <TTGlyph name="Uogonek" xMin="41" yMin="-198" xMax="429" yMax="733">
      <contour>
        <pt x="329" y="-157" on="1"/>
        <pt x="315" y="-172" on="0"/>
        <pt x="265" y="-198" on="0"/>
        <pt x="233" y="-198" on="1"/>
        <pt x="195" y="-198" on="0"/>
        <pt x="157" y="-154" on="0"/>
        <pt x="157" y="-122" on="1"/>
        <pt x="157" y="-96" on="0"/>
        <pt x="178" y="-43" on="0"/>
        <pt x="204" y="-8" on="1"/>
        <pt x="168" y="-5" on="0"/>
        <pt x="109" y="23" on="0"/>
        <pt x="65" y="73" on="0"/>
        <pt x="41" y="147" on="0"/>
        <pt x="41" y="197" on="1"/>
        <pt x="41" y="733" on="1"/>
        <pt x="179" y="733" on="1"/>
        <pt x="179" y="185" on="1"/>
        <pt x="179" y="151" on="0"/>
        <pt x="209" y="114" on="0"/>
        <pt x="237" y="114" on="1"/>
        <pt x="291" y="114" on="0"/>
        <pt x="291" y="185" on="1"/>
        <pt x="291" y="733" on="1"/>
        <pt x="429" y="733" on="1"/>
        <pt x="429" y="197" on="1"/>
        <pt x="429" y="149" on="0"/>
        <pt x="406" y="77" on="0"/>
        <pt x="366" y="27" on="0"/>
        <pt x="309" y="-1" on="0"/>
        <pt x="276" y="-6" on="1"/>
        <pt x="253" y="-40" on="0"/>
        <pt x="239" y="-77" on="0"/>
        <pt x="239" y="-94" on="1"/>
        <pt x="239" y="-111" on="0"/>
        <pt x="258" y="-129" on="0"/>
        <pt x="273" y="-129" on="1"/>
        <pt x="283" y="-129" on="0"/>
        <pt x="303" y="-123" on="0"/>
        <pt x="310" y="-118" on="1"/>
        <pt x="329" y="-157" on="1"/>
      </contour>
    </TTGlyph>
    <TTGlyph name="Uring" xMin="41" yMin="-10" xMax="429" yMax="999">
      <component glyphName="U" x="0" y="0" flags="0x204"/>
      <component glyphName="ring" x="35" y="280" flags="0x4"/>
    </TTGlyph>
    <TTGlyph name="V" xMin="5" yMin="-6" xMax="441" yMax="734">
      <contour>
        <pt x="283" y="-6" on="1"/>
        <pt x="162" y="-6" on="1"/>
        <pt x="5" y="734" on="1"/>
        <pt x="147" y="734" on="1"/>
        <pt x="224" y="279" on="1"/>
        <pt x="301" y="734" on="1"/>
        <pt x="441" y="734" on="1"/>
      </contour>
    </TTGlyph>
    <TTGlyph name="W" xMin="7" yMin="0" xMax="607" yMax="733">
      <contour>
        <pt x="495" y="0" on="1"/>
        <pt x="407" y="0" on="1"/>
        <pt x="303" y="394" on="1"/>
        <pt x="208" y="0" on="1"/>
        <pt x="120" y="0" on="1"/>
        <pt x="7" y="733" on="1"/>
        <pt x="147" y="733" on="1"/>
        <pt x="189" y="332" on="1"/>
        <pt x="266" y="733" on="1"/>
        <pt x="345" y="733" on="1"/>
        <pt x="427" y="332" on="1"/>
        <pt x="468" y="733" on="1"/>
        <pt x="607" y="733" on="1"/>
      </contour>
    </TTGlyph>
    <TTGlyph name="Wacute" xMin="7" yMin="0" xMax="607" yMax="983">
      <component glyphName="W" x="0" y="0" flags="0x204"/>
      <component glyphName="acute" x="173" y="280" flags="0x4"/>
    </TTGlyph>
    <TTGlyph name="Wcircumflex" xMin="7" yMin="0" xMax="607" yMax="943">
      <component glyphName="W" x="0" y="0" flags="0x204"/>
      <component glyphName="circumflex" x="107" y="280" flags="0x4"/>
    </TTGlyph>
    <TTGlyph name="Wdieresis" xMin="7" yMin="0" xMax="607" yMax="919">
      <component glyphName="W" x="0" y="0" flags="0x204"/>
      <component glyphName="dieresis" x="107" y="280" flags="0x4"/>
    </TTGlyph>
    <TTGlyph name="Wgrave" xMin="7" yMin="0" xMax="607" yMax="985">
      <component glyphName="W" x="0" y="0" flags="0x204"/>
      <component glyphName="grave" x="41" y="280" flags="0x4"/>
    </TTGlyph>
    <TTGlyph name="X" xMin="-2" yMin="0" xMax="432" yMax="733">
      <contour>
        <pt x="288" y="0" on="1"/>
        <pt x="215" y="239" on="1"/>
        <pt x="139" y="0" on="1"/>
        <pt x="-2" y="0" on="1"/>
        <pt x="135" y="368" on="1"/>
        <pt x="5" y="733" on="1"/>
        <pt x="147" y="733" on="1"/>
        <pt x="217" y="503" on="1"/>
        <pt x="284" y="733" on="1"/>
        <pt x="425" y="733" on="1"/>
        <pt x="299" y="368" on="1"/>
        <pt x="432" y="0" on="1"/>
      </contour>
    </TTGlyph>
    <TTGlyph name="Y" xMin="-8" yMin="0" xMax="434" yMax="733">
      <contour>
        <pt x="283" y="258" on="1"/>
        <pt x="283" y="0" on="1"/>
        <pt x="145" y="0" on="1"/>
        <pt x="145" y="259" on="1"/>
        <pt x="-8" y="733" on="1"/>
        <pt x="135" y="733" on="1"/>
        <pt x="213" y="436" on="1"/>
        <pt x="293" y="733" on="1"/>
        <pt x="434" y="733" on="1"/>
      </contour>
    </TTGlyph>
    <TTGlyph name="Yacute" xMin="-8" yMin="0" xMax="434" yMax="983">
      <component glyphName="Y" x="0" y="0" flags="0x204"/>
      <component glyphName="acute" x="79" y="280" flags="0x4"/>
    </TTGlyph>
    <TTGlyph name="Ycircumflex" xMin="-8" yMin="0" xMax="434" yMax="943">
      <component glyphName="Y" x="0" y="0" flags="0x204"/>
      <component glyphName="circumflex" x="13" y="280" flags="0x4"/>
    </TTGlyph>
    <TTGlyph name="Ydieresis" xMin="-8" yMin="0" xMax="434" yMax="919">
      <component glyphName="Y" x="0" y="0" flags="0x204"/>
      <component glyphName="dieresis" x="13" y="280" flags="0x4"/>
    </TTGlyph>
    <TTGlyph name="Ygrave" xMin="-8" yMin="0" xMax="434" yMax="985">
      <component glyphName="Y" x="0" y="0" flags="0x204"/>
      <component glyphName="grave" x="-52" y="280" flags="0x4"/>
    </TTGlyph>
    <TTGlyph name="Z" xMin="10" yMin="0" xMax="388" yMax="733">
      <contour>
        <pt x="190" y="128" on="1"/>
        <pt x="377" y="128" on="1"/>
        <pt x="377" y="0" on="1"/>
        <pt x="13" y="0" on="1"/>
        <pt x="10" y="20" on="1"/>
        <pt x="214" y="605" on="1"/>
        <pt x="26" y="605" on="1"/>
        <pt x="26" y="733" on="1"/>
        <pt x="385" y="733" on="1"/>
        <pt x="388" y="713" on="1"/>
      </contour>
    </TTGlyph>
    <TTGlyph name="Zacute" xMin="10" yMin="0" xMax="388" yMax="983">
      <component glyphName="Z" x="0" y="0" flags="0x204"/>
      <component glyphName="acute" x="65" y="280" flags="0x4"/>
    </TTGlyph>
    <TTGlyph name="Zcaron" xMin="10" yMin="0" xMax="388" yMax="938">
      <component glyphName="Z" x="0" y="0" flags="0x204"/>
      <component glyphName="caron" x="0" y="280" flags="0x4"/>
    </TTGlyph>
    <TTGlyph name="Zdotaccent" xMin="10" yMin="0" xMax="388" yMax="919">
      <component glyphName="Z" x="0" y="0" flags="0x204"/>
      <component glyphName="dotaccent" x="0" y="280" flags="0x4"/>
    </TTGlyph>
    <TTGlyph name="a" xMin="12" yMin="-7" xMax="329" yMax="484">
      <contour>
        <pt x="213" y="0" on="1"/>
        <pt x="213" y="47" on="1"/>
        <pt x="198" y="25" on="0"/>
        <pt x="146" y="-7" on="0"/>
        <pt x="117" y="-7" on="1"/>
        <pt x="96" y="-7" on="0"/>
        <pt x="58" y="13" on="0"/>
        <pt x="29" y="52" on="0"/>
        <pt x="12" y="108" on="0"/>
        <pt x="12" y="143" on="1"/>
        <pt x="12" y="176" on="0"/>
        <pt x="29" y="233" on="0"/>
        <pt x="60" y="276" on="0"/>
        <pt x="104" y="300" on="0"/>
        <pt x="131" y="300" on="1"/>
        <pt x="156" y="300" on="0"/>
        <pt x="191" y="289" on="0"/>
        <pt x="207" y="279" on="1"/>
        <pt x="207" y="322" on="1"/>
        <pt x="207" y="351" on="0"/>
        <pt x="180" y="374" on="0"/>
        <pt x="148" y="374" on="1"/>
        <pt x="127" y="374" on="0"/>
        <pt x="85" y="366" on="0"/>
        <pt x="62" y="358" on="1"/>
        <pt x="50" y="462" on="1"/>
        <pt x="76" y="471" on="0"/>
        <pt x="136" y="484" on="0"/>
        <pt x="166" y="484" on="1"/>
        <pt x="250" y="484" on="0"/>
        <pt x="329" y="414" on="0"/>
        <pt x="329" y="339" on="1"/>
        <pt x="329" y="0" on="1"/>
      </contour>
      <contour>
        <pt x="207" y="216" on="1"/>
        <pt x="194" y="223" on="0"/>
        <pt x="174" y="223" on="1"/>
        <pt x="159" y="223" on="0"/>
        <pt x="131" y="195" on="0"/>
        <pt x="131" y="154" on="1"/>
        <pt x="131" y="116" on="0"/>
        <pt x="159" y="88" on="0"/>
        <pt x="175" y="88" on="1"/>
        <pt x="185" y="88" on="0"/>
        <pt x="200" y="92" on="0"/>
        <pt x="207" y="95" on="1"/>
      </contour>
    </TTGlyph>
    <TTGlyph name="aacute" xMin="12" yMin="-7" xMax="337" yMax="703">
      <component glyphName="a" x="0" y="0" flags="0x204"/>
      <component glyphName="acute" x="51" y="0" flags="0x4"/>
    </TTGlyph>
    <TTGlyph name="abreve" xMin="12" yMin="-7" xMax="329" yMax="652">
      <component glyphName="a" x="0" y="0" flags="0x204"/>
      <component glyphName="breve" x="-14" y="0" flags="0x4"/>
    </TTGlyph>
    <TTGlyph name="acircumflex" xMin="12" yMin="-7" xMax="329" yMax="663">
      <component glyphName="a" x="0" y="0" flags="0x204"/>
      <component glyphName="circumflex" x="-14" y="0" flags="0x4"/>
    </TTGlyph>
    <TTGlyph name="acute" xMin="86" yMin="513" xMax="286" yMax="703">
      <contour>
        <pt x="126" y="513" on="1"/>
        <pt x="86" y="563" on="1"/>
        <pt x="218" y="703" on="1"/>
        <pt x="286" y="615" on="1"/>
      </contour>
    </TTGlyph>
    <TTGlyph name="adieresis" xMin="12" yMin="-7" xMax="329" yMax="639">
      <component glyphName="a" x="0" y="0" flags="0x204"/>
      <component glyphName="dieresis" x="-14" y="0" flags="0x4"/>
    </TTGlyph>
    <TTGlyph name="ae" xMin="22" yMin="-10" xMax="529" yMax="484">
      <contour>
        <pt x="217" y="322" on="1"/>
        <pt x="217" y="351" on="0"/>
        <pt x="190" y="374" on="0"/>
        <pt x="158" y="374" on="1"/>
        <pt x="137" y="374" on="0"/>
        <pt x="95" y="366" on="0"/>
        <pt x="72" y="358" on="1"/>
        <pt x="60" y="462" on="1"/>
        <pt x="86" y="471" on="0"/>
        <pt x="146" y="484" on="0"/>
        <pt x="176" y="484" on="1"/>
        <pt x="225" y="484" on="0"/>
        <pt x="268" y="456" on="0"/>
        <pt x="279" y="432" on="1"/>
        <pt x="293" y="456" on="0"/>
        <pt x="347" y="484" on="0"/>
        <pt x="385" y="484" on="1"/>
        <pt x="422" y="484" on="0"/>
        <pt x="476" y="449" on="0"/>
        <pt x="512" y="388" on="0"/>
        <pt x="529" y="306" on="0"/>
        <pt x="529" y="259" on="1"/>
        <pt x="529" y="248" on="0"/>
        <pt x="527" y="208" on="0"/>
        <pt x="525" y="196" on="1"/>
        <pt x="321" y="196" on="1"/>
        <pt x="321" y="148" on="0"/>
        <pt x="365" y="97" on="0"/>
        <pt x="407" y="97" on="1"/>
        <pt x="427" y="97" on="0"/>
        <pt x="472" y="111" on="0"/>
        <pt x="495" y="121" on="1"/>
        <pt x="501" y="20" on="1"/>
        <pt x="472" y="5" on="0"/>
        <pt x="419" y="-10" on="0"/>
        <pt x="390" y="-10" on="1"/>
        <pt x="337" y="-10" on="0"/>
        <pt x="272" y="34" on="0"/>
        <pt x="260" y="74" on="1"/>
        <pt x="245" y="41" on="0"/>
        <pt x="186" y="-7" on="0"/>
        <pt x="137" y="-7" on="1"/>
        <pt x="80" y="-7" on="0"/>
        <pt x="22" y="72" on="0"/>
        <pt x="22" y="143" on="1"/>
        <pt x="22" y="176" on="0"/>
        <pt x="39" y="233" on="0"/>
        <pt x="70" y="276" on="0"/>
        <pt x="114" y="300" on="0"/>
        <pt x="141" y="300" on="1"/>
        <pt x="166" y="300" on="0"/>
        <pt x="201" y="289" on="0"/>
        <pt x="217" y="279" on="1"/>
      </contour>
      <contour>
        <pt x="423" y="271" on="1"/>
        <pt x="421" y="321" on="0"/>
        <pt x="402" y="379" on="0"/>
        <pt x="376" y="379" on="1"/>
        <pt x="355" y="379" on="0"/>
        <pt x="327" y="329" on="0"/>
        <pt x="324" y="271" on="1"/>
      </contour>
      <contour>
        <pt x="218" y="212" on="1"/>
        <pt x="207" y="217" on="0"/>
        <pt x="194" y="223" on="0"/>
        <pt x="184" y="223" on="1"/>
        <pt x="169" y="223" on="0"/>
        <pt x="141" y="195" on="0"/>
        <pt x="141" y="154" on="1"/>
        <pt x="141" y="116" on="0"/>
        <pt x="158" y="88" on="0"/>
        <pt x="172" y="88" on="1"/>
        <pt x="181" y="88" on="0"/>
        <pt x="198" y="99" on="0"/>
        <pt x="211" y="127" on="0"/>
        <pt x="218" y="175" on="0"/>
      </contour>
    </TTGlyph>
    <TTGlyph name="aeacute" xMin="22" yMin="-10" xMax="529" yMax="703">
      <component glyphName="ae" x="0" y="0" flags="0x204"/>
      <component glyphName="acute" x="148" y="0" flags="0x4"/>
    </TTGlyph>
    <TTGlyph name="agrave" xMin="12" yMin="-7" xMax="329" yMax="705">
      <component glyphName="a" x="0" y="0" flags="0x204"/>
      <component glyphName="grave" x="-80" y="0" flags="0x4"/>
    </TTGlyph>
    <TTGlyph name="amacron" xMin="12" yMin="-7" xMax="329" yMax="600">
      <component glyphName="a" x="0" y="0" flags="0x204"/>
      <component glyphName="macron" x="-13" y="0" flags="0x4"/>
    </TTGlyph>
    <TTGlyph name="ampersand" xMin="9" yMin="-17" xMax="498" yMax="733">
      <contour>
        <pt x="495" y="311" on="1"/>
        <pt x="478" y="262" on="0"/>
        <pt x="442" y="177" on="0"/>
        <pt x="421" y="142" on="1"/>
        <pt x="441" y="118" on="0"/>
        <pt x="479" y="72" on="0"/>
        <pt x="498" y="51" on="1"/>
        <pt x="391" y="-17" on="1"/>
        <pt x="344" y="44" on="1"/>
        <pt x="280" y="-11" on="0"/>
        <pt x="200" y="-11" on="1"/>
        <pt x="156" y="-11" on="0"/>
        <pt x="85" y="19" on="0"/>
        <pt x="36" y="72" on="0"/>
        <pt x="9" y="145" on="0"/>
        <pt x="9" y="189" on="1"/>
        <pt x="9" y="247" on="0"/>
        <pt x="66" y="349" on="0"/>
        <pt x="127" y="386" on="1"/>
        <pt x="110" y="426" on="0"/>
        <pt x="91" y="500" on="0"/>
        <pt x="91" y="535" on="1"/>
        <pt x="91" y="572" on="0"/>
        <pt x="111" y="644" on="0"/>
        <pt x="153" y="699" on="0"/>
        <pt x="217" y="733" on="0"/>
        <pt x="262" y="733" on="1"/>
        <pt x="300" y="733" on="0"/>
        <pt x="359" y="705" on="0"/>
        <pt x="400" y="659" on="0"/>
        <pt x="421" y="596" on="0"/>
        <pt x="421" y="562" on="1"/>
        <pt x="421" y="497" on="0"/>
        <pt x="348" y="386" on="0"/>
        <pt x="278" y="351" on="1"/>
        <pt x="292" y="325" on="0"/>
        <pt x="326" y="273" on="0"/>
        <pt x="343" y="247" on="1"/>
        <pt x="368" y="298" on="0"/>
        <pt x="387" y="365" on="1"/>
      </contour>
      <contour>
        <pt x="277" y="134" on="1"/>
        <pt x="220" y="212" on="0"/>
        <pt x="176" y="289" on="1"/>
        <pt x="161" y="273" on="0"/>
        <pt x="142" y="226" on="0"/>
        <pt x="142" y="196" on="1"/>
        <pt x="142" y="159" on="0"/>
        <pt x="174" y="107" on="0"/>
        <pt x="209" y="107" on="1"/>
        <pt x="226" y="107" on="0"/>
        <pt x="260" y="119" on="0"/>
      </contour>
      <contour>
        <pt x="303" y="554" on="1"/>
        <pt x="303" y="623" on="0"/>
        <pt x="262" y="623" on="1"/>
        <pt x="236" y="623" on="0"/>
        <pt x="214" y="571" on="0"/>
        <pt x="214" y="532" on="1"/>
        <pt x="214" y="506" on="0"/>
        <pt x="226" y="458" on="0"/>
        <pt x="236" y="436" on="1"/>
        <pt x="271" y="459" on="0"/>
        <pt x="303" y="524" on="0"/>
      </contour>
    </TTGlyph>
    <TTGlyph name="ampersand.cap" xMin="9" yMin="-17" xMax="498" yMax="733">
      <contour>
        <pt x="278" y="351" on="1"/>
        <pt x="292" y="325" on="0"/>
        <pt x="326" y="273" on="0"/>
        <pt x="343" y="247" on="1"/>
        <pt x="368" y="298" on="0"/>
        <pt x="387" y="365" on="1"/>
        <pt x="495" y="311" on="1"/>
        <pt x="478" y="262" on="0"/>
        <pt x="442" y="177" on="0"/>
        <pt x="421" y="142" on="1"/>
        <pt x="441" y="118" on="0"/>
        <pt x="479" y="72" on="0"/>
        <pt x="498" y="51" on="1"/>
        <pt x="391" y="-17" on="1"/>
        <pt x="344" y="44" on="1"/>
        <pt x="280" y="-11" on="0"/>
        <pt x="200" y="-11" on="1"/>
        <pt x="156" y="-11" on="0"/>
        <pt x="85" y="19" on="0"/>
        <pt x="36" y="72" on="0"/>
        <pt x="9" y="145" on="0"/>
        <pt x="9" y="189" on="1"/>
        <pt x="9" y="247" on="0"/>
        <pt x="66" y="349" on="0"/>
        <pt x="127" y="386" on="1"/>
        <pt x="110" y="426" on="0"/>
        <pt x="91" y="500" on="0"/>
        <pt x="91" y="535" on="1"/>
        <pt x="91" y="572" on="0"/>
        <pt x="111" y="644" on="0"/>
        <pt x="153" y="699" on="0"/>
        <pt x="217" y="733" on="0"/>
        <pt x="262" y="733" on="1"/>
        <pt x="300" y="733" on="0"/>
        <pt x="359" y="705" on="0"/>
        <pt x="400" y="659" on="0"/>
        <pt x="421" y="596" on="0"/>
        <pt x="421" y="562" on="1"/>
        <pt x="421" y="497" on="0"/>
        <pt x="348" y="386" on="0"/>
      </contour>
      <contour>
        <pt x="277" y="134" on="1"/>
        <pt x="220" y="212" on="0"/>
        <pt x="176" y="289" on="1"/>
        <pt x="161" y="273" on="0"/>
        <pt x="142" y="226" on="0"/>
        <pt x="142" y="196" on="1"/>
        <pt x="142" y="159" on="0"/>
        <pt x="174" y="107" on="0"/>
        <pt x="209" y="107" on="1"/>
        <pt x="226" y="107" on="0"/>
        <pt x="260" y="119" on="0"/>
      </contour>
      <contour>
        <pt x="236" y="436" on="1"/>
        <pt x="271" y="459" on="0"/>
        <pt x="303" y="524" on="0"/>
        <pt x="303" y="554" on="1"/>
        <pt x="303" y="623" on="0"/>
        <pt x="262" y="623" on="1"/>
        <pt x="236" y="623" on="0"/>
        <pt x="214" y="571" on="0"/>
        <pt x="214" y="532" on="1"/>
        <pt x="214" y="506" on="0"/>
        <pt x="226" y="458" on="0"/>
      </contour>
    </TTGlyph>
    <TTGlyph name="aogonek" xMin="12" yMin="-198" xMax="331" yMax="484">
      <contour>
        <pt x="331" y="-157" on="1"/>
        <pt x="317" y="-172" on="0"/>
        <pt x="267" y="-198" on="0"/>
        <pt x="235" y="-198" on="1"/>
        <pt x="197" y="-198" on="0"/>
        <pt x="159" y="-154" on="0"/>
        <pt x="159" y="-122" on="1"/>
        <pt x="159" y="-95" on="0"/>
        <pt x="184" y="-38" on="0"/>
        <pt x="213" y="1" on="1"/>
        <pt x="213" y="47" on="1"/>
        <pt x="198" y="25" on="0"/>
        <pt x="146" y="-7" on="0"/>
        <pt x="117" y="-7" on="1"/>
        <pt x="96" y="-7" on="0"/>
        <pt x="58" y="13" on="0"/>
        <pt x="29" y="52" on="0"/>
        <pt x="12" y="108" on="0"/>
        <pt x="12" y="143" on="1"/>
        <pt x="12" y="176" on="0"/>
        <pt x="29" y="233" on="0"/>
        <pt x="60" y="276" on="0"/>
        <pt x="104" y="300" on="0"/>
        <pt x="131" y="300" on="1"/>
        <pt x="156" y="300" on="0"/>
        <pt x="191" y="289" on="0"/>
        <pt x="207" y="279" on="1"/>
        <pt x="207" y="322" on="1"/>
        <pt x="207" y="351" on="0"/>
        <pt x="180" y="374" on="0"/>
        <pt x="148" y="374" on="1"/>
        <pt x="127" y="374" on="0"/>
        <pt x="85" y="366" on="0"/>
        <pt x="62" y="358" on="1"/>
        <pt x="50" y="462" on="1"/>
        <pt x="76" y="471" on="0"/>
        <pt x="136" y="484" on="0"/>
        <pt x="166" y="484" on="1"/>
        <pt x="250" y="484" on="0"/>
        <pt x="329" y="414" on="0"/>
        <pt x="329" y="339" on="1"/>
        <pt x="329" y="0" on="1"/>
        <pt x="282" y="0" on="1"/>
        <pt x="257" y="-37" on="0"/>
        <pt x="241" y="-77" on="0"/>
        <pt x="241" y="-94" on="1"/>
        <pt x="241" y="-111" on="0"/>
        <pt x="260" y="-129" on="0"/>
        <pt x="275" y="-129" on="1"/>
        <pt x="285" y="-129" on="0"/>
        <pt x="305" y="-123" on="0"/>
        <pt x="312" y="-118" on="1"/>
      </contour>
      <contour>
        <pt x="207" y="216" on="1"/>
        <pt x="194" y="223" on="0"/>
        <pt x="174" y="223" on="1"/>
        <pt x="159" y="223" on="0"/>
        <pt x="131" y="195" on="0"/>
        <pt x="131" y="154" on="1"/>
        <pt x="131" y="116" on="0"/>
        <pt x="159" y="88" on="0"/>
        <pt x="175" y="88" on="1"/>
        <pt x="185" y="88" on="0"/>
        <pt x="200" y="92" on="0"/>
        <pt x="207" y="95" on="1"/>
      </contour>
    </TTGlyph>
    <TTGlyph name="aring" xMin="12" yMin="-7" xMax="329" yMax="719">
      <component glyphName="a" x="0" y="0" flags="0x204"/>
      <component glyphName="ring" x="-14" y="0" flags="0x4"/>
    </TTGlyph>
    <TTGlyph name="aringacute" xMin="12" yMin="-7" xMax="332" yMax="938">
      <component glyphName="a" x="0" y="0" flags="0x204"/>
      <component glyphName="ring" x="-19" y="0" flags="0x4"/>
      <component glyphName="acute" x="46" y="235" flags="0x4"/>
    </TTGlyph>
    <TTGlyph name="arrowleft" xMin="17" yMin="41" xMax="387" yMax="495">
      <contour>
        <pt x="165" y="214" on="1"/>
        <pt x="241" y="101" on="1"/>
        <pt x="154" y="41" on="1"/>
        <pt x="17" y="260" on="1"/>
        <pt x="17" y="276" on="1"/>
        <pt x="154" y="495" on="1"/>
        <pt x="241" y="435" on="1"/>
        <pt x="165" y="322" on="1"/>
        <pt x="387" y="322" on="1"/>
        <pt x="387" y="214" on="1"/>
      </contour>
    </TTGlyph>
    <TTGlyph name="arrowleft.cap" xMin="17" yMin="144" xMax="387" yMax="598">
      <component glyphName="arrowleft" x="0" y="103" flags="0x204"/>
    </TTGlyph>
    <TTGlyph name="arrowright" xMin="32" yMin="41" xMax="402" yMax="495">
      <contour>
        <pt x="254" y="322" on="1"/>
        <pt x="178" y="435" on="1"/>
        <pt x="265" y="495" on="1"/>
        <pt x="402" y="276" on="1"/>
        <pt x="402" y="260" on="1"/>
        <pt x="265" y="41" on="1"/>
        <pt x="178" y="101" on="1"/>
        <pt x="254" y="214" on="1"/>
        <pt x="32" y="214" on="1"/>
        <pt x="32" y="322" on="1"/>
      </contour>
    </TTGlyph>
    <TTGlyph name="arrowright.cap" xMin="32" yMin="144" xMax="402" yMax="598">
      <component glyphName="arrowright" x="0" y="103" flags="0x204"/>
    </TTGlyph>
    <TTGlyph name="asciicircum" xMin="47" yMin="557" xMax="359" yMax="733">
      <contour>
        <pt x="252" y="557" on="1"/>
        <pt x="202" y="647" on="1"/>
        <pt x="151" y="557" on="1"/>
        <pt x="47" y="557" on="1"/>
        <pt x="166" y="733" on="1"/>
        <pt x="243" y="733" on="1"/>
        <pt x="359" y="557" on="1"/>
      </contour>
    </TTGlyph>
    <TTGlyph name="asciitilde" xMin="29" yMin="200" xMax="379" yMax="338">
      <contour>
        <pt x="379" y="259" on="1"/>
        <pt x="359" y="236" on="0"/>
        <pt x="299" y="201" on="0"/>
        <pt x="270" y="201" on="1"/>
        <pt x="247" y="201" on="0"/>
        <pt x="216" y="210" on="0"/>
        <pt x="202" y="218" on="1"/>
        <pt x="182" y="229" on="0"/>
        <pt x="158" y="235" on="0"/>
        <pt x="141" y="235" on="1"/>
        <pt x="122" y="235" on="0"/>
        <pt x="85" y="218" on="0"/>
        <pt x="69" y="200" on="1"/>
        <pt x="29" y="275" on="1"/>
        <pt x="49" y="299" on="0"/>
        <pt x="109" y="335" on="0"/>
        <pt x="138" y="335" on="1"/>
        <pt x="161" y="335" on="0"/>
        <pt x="192" y="325" on="0"/>
        <pt x="207" y="316" on="1"/>
        <pt x="224" y="308" on="0"/>
        <pt x="247" y="301" on="0"/>
        <pt x="263" y="301" on="1"/>
        <pt x="303" y="301" on="0"/>
        <pt x="333" y="338" on="1"/>
        <pt x="379" y="259" on="1"/>
      </contour>
    </TTGlyph>
    <TTGlyph name="asterisk" xMin="5" yMin="511" xMax="237" yMax="732">
      <contour>
        <pt x="162" y="607" on="1"/>
        <pt x="213" y="549" on="1"/>
        <pt x="160" y="511" on="1"/>
        <pt x="121" y="577" on="1"/>
        <pt x="82" y="511" on="1"/>
        <pt x="29" y="549" on="1"/>
        <pt x="80" y="607" on="1"/>
        <pt x="5" y="624" on="1"/>
        <pt x="25" y="686" on="1"/>
        <pt x="95" y="656" on="1"/>
        <pt x="88" y="732" on="1"/>
        <pt x="154" y="732" on="1"/>
        <pt x="147" y="656" on="1"/>
        <pt x="217" y="686" on="1"/>
        <pt x="237" y="624" on="1"/>
      </contour>
    </TTGlyph>
    <TTGlyph name="at" xMin="40" yMin="-11" xMax="485" yMax="669">
      <contour>
        <pt x="485" y="362" on="1"/>
        <pt x="485" y="298" on="0"/>
        <pt x="464" y="213" on="0"/>
        <pt x="433" y="182" on="1"/>
        <pt x="414" y="166" on="0"/>
        <pt x="392" y="166" on="1"/>
        <pt x="365" y="166" on="0"/>
        <pt x="335" y="194" on="0"/>
        <pt x="327" y="218" on="1"/>
        <pt x="312" y="194" on="0"/>
        <pt x="267" y="169" on="0"/>
        <pt x="242" y="169" on="1"/>
        <pt x="202" y="169" on="0"/>
        <pt x="156" y="220" on="0"/>
        <pt x="156" y="263" on="1"/>
        <pt x="156" y="303" on="0"/>
        <pt x="199" y="360" on="0"/>
        <pt x="238" y="360" on="1"/>
        <pt x="255" y="360" on="0"/>
        <pt x="279" y="353" on="0"/>
        <pt x="289" y="346" on="1"/>
        <pt x="289" y="366" on="1"/>
        <pt x="289" y="387" on="0"/>
        <pt x="271" y="403" on="0"/>
        <pt x="249" y="403" on="1"/>
        <pt x="219" y="403" on="0"/>
        <pt x="190" y="393" on="1"/>
        <pt x="182" y="464" on="1"/>
        <pt x="199" y="471" on="0"/>
        <pt x="241" y="479" on="0"/>
        <pt x="261" y="479" on="1"/>
        <pt x="318" y="479" on="0"/>
        <pt x="373" y="432" on="0"/>
        <pt x="373" y="380" on="1"/>
        <pt x="373" y="287" on="1"/>
        <pt x="373" y="247" on="0"/>
        <pt x="384" y="220" on="0"/>
        <pt x="399" y="220" on="1"/>
        <pt x="408" y="220" on="0"/>
        <pt x="415" y="227" on="1"/>
        <pt x="432" y="244" on="0"/>
        <pt x="443" y="307" on="0"/>
        <pt x="443" y="354" on="1"/>
        <pt x="443" y="395" on="0"/>
        <pt x="428" y="491" on="0"/>
        <pt x="390" y="572" on="0"/>
        <pt x="325" y="626" on="0"/>
        <pt x="275" y="626" on="1"/>
        <pt x="229" y="626" on="0"/>
        <pt x="158" y="577" on="0"/>
        <pt x="109" y="494" on="0"/>
        <pt x="83" y="386" on="0"/>
        <pt x="83" y="327" on="1"/>
        <pt x="83" y="268" on="0"/>
        <pt x="106" y="162" on="0"/>
        <pt x="155" y="80" on="0"/>
        <pt x="232" y="32" on="0"/>
        <pt x="286" y="32" on="1"/>
        <pt x="309" y="32" on="0"/>
        <pt x="355" y="47" on="0"/>
        <pt x="376" y="60" on="1"/>
        <pt x="387" y="18" on="1"/>
        <pt x="364" y="5" on="0"/>
        <pt x="310" y="-11" on="0"/>
        <pt x="285" y="-11" on="1"/>
        <pt x="223" y="-11" on="0"/>
        <pt x="131" y="42" on="0"/>
        <pt x="70" y="133" on="0"/>
        <pt x="40" y="256" on="0"/>
        <pt x="40" y="327" on="1"/>
        <pt x="40" y="398" on="0"/>
        <pt x="73" y="522" on="0"/>
        <pt x="134" y="615" on="0"/>
        <pt x="222" y="669" on="0"/>
        <pt x="276" y="669" on="1"/>
        <pt x="333" y="669" on="0"/>
        <pt x="413" y="614" on="0"/>
        <pt x="462" y="526" on="0"/>
        <pt x="485" y="416" on="0"/>
      </contour>
      <contour>
        <pt x="289" y="295" on="1"/>
        <pt x="281" y="306" on="0"/>
        <pt x="266" y="306" on="1"/>
        <pt x="255" y="306" on="0"/>
        <pt x="238" y="290" on="0"/>
        <pt x="238" y="270" on="1"/>
        <pt x="238" y="252" on="0"/>
        <pt x="255" y="234" on="0"/>
        <pt x="266" y="234" on="1"/>
        <pt x="274" y="234" on="0"/>
        <pt x="285" y="242" on="0"/>
        <pt x="289" y="247" on="1"/>
      </contour>
    </TTGlyph>
    <TTGlyph name="at.cap" xMin="40" yMin="-12" xMax="485" yMax="744">
      <contour>
        <pt x="485" y="400" on="1"/>
        <pt x="485" y="336" on="0"/>
        <pt x="464" y="231" on="0"/>
        <pt x="433" y="200" on="1"/>
        <pt x="414" y="184" on="0"/>
        <pt x="392" y="184" on="1"/>
        <pt x="365" y="184" on="0"/>
        <pt x="335" y="212" on="0"/>
        <pt x="327" y="236" on="1"/>
        <pt x="312" y="212" on="0"/>
        <pt x="267" y="187" on="0"/>
        <pt x="242" y="187" on="1"/>
        <pt x="202" y="187" on="0"/>
        <pt x="156" y="242" on="0"/>
        <pt x="156" y="291" on="1"/>
        <pt x="156" y="337" on="0"/>
        <pt x="199" y="398" on="0"/>
        <pt x="238" y="398" on="1"/>
        <pt x="255" y="398" on="0"/>
        <pt x="279" y="391" on="0"/>
        <pt x="289" y="384" on="1"/>
        <pt x="289" y="424" on="1"/>
        <pt x="289" y="445" on="0"/>
        <pt x="271" y="461" on="0"/>
        <pt x="249" y="461" on="1"/>
        <pt x="219" y="461" on="0"/>
        <pt x="190" y="451" on="1"/>
        <pt x="182" y="522" on="1"/>
        <pt x="199" y="529" on="0"/>
        <pt x="241" y="537" on="0"/>
        <pt x="261" y="537" on="1"/>
        <pt x="318" y="537" on="0"/>
        <pt x="373" y="490" on="0"/>
        <pt x="373" y="438" on="1"/>
        <pt x="373" y="305" on="1"/>
        <pt x="373" y="265" on="0"/>
        <pt x="384" y="238" on="0"/>
        <pt x="399" y="238" on="1"/>
        <pt x="408" y="238" on="0"/>
        <pt x="415" y="245" on="1"/>
        <pt x="432" y="262" on="0"/>
        <pt x="443" y="345" on="0"/>
        <pt x="443" y="392" on="1"/>
        <pt x="443" y="441" on="0"/>
        <pt x="428" y="549" on="0"/>
        <pt x="390" y="641" on="0"/>
        <pt x="325" y="701" on="0"/>
        <pt x="275" y="701" on="1"/>
        <pt x="229" y="701" on="0"/>
        <pt x="158" y="646" on="0"/>
        <pt x="109" y="553" on="0"/>
        <pt x="83" y="431" on="0"/>
        <pt x="83" y="365" on="1"/>
        <pt x="83" y="299" on="0"/>
        <pt x="106" y="178" on="0"/>
        <pt x="155" y="86" on="0"/>
        <pt x="232" y="31" on="0"/>
        <pt x="286" y="31" on="1"/>
        <pt x="309" y="31" on="0"/>
        <pt x="355" y="46" on="0"/>
        <pt x="376" y="59" on="1"/>
        <pt x="387" y="17" on="1"/>
        <pt x="364" y="4" on="0"/>
        <pt x="310" y="-12" on="0"/>
        <pt x="285" y="-12" on="1"/>
        <pt x="223" y="-12" on="0"/>
        <pt x="131" y="47" on="0"/>
        <pt x="70" y="150" on="0"/>
        <pt x="40" y="287" on="0"/>
        <pt x="40" y="365" on="1"/>
        <pt x="40" y="443" on="0"/>
        <pt x="73" y="581" on="0"/>
        <pt x="134" y="684" on="0"/>
        <pt x="222" y="744" on="0"/>
        <pt x="276" y="744" on="1"/>
        <pt x="333" y="744" on="0"/>
        <pt x="413" y="683" on="0"/>
        <pt x="462" y="585" on="0"/>
        <pt x="485" y="462" on="0"/>
      </contour>
      <contour>
        <pt x="289" y="333" on="1"/>
        <pt x="281" y="344" on="0"/>
        <pt x="268" y="344" on="1"/>
        <pt x="256" y="344" on="0"/>
        <pt x="238" y="327" on="0"/>
        <pt x="238" y="298" on="1"/>
        <pt x="238" y="272" on="0"/>
        <pt x="256" y="252" on="0"/>
        <pt x="268" y="252" on="1"/>
        <pt x="275" y="252" on="0"/>
        <pt x="285" y="260" on="0"/>
        <pt x="289" y="265" on="1"/>
      </contour>
    </TTGlyph>
    <TTGlyph name="atilde" xMin="12" yMin="-7" xMax="347" yMax="636">
      <component glyphName="a" x="0" y="0" flags="0x204"/>
      <component glyphName="tilde" x="-14" y="0" flags="0x4"/>
    </TTGlyph>
    <TTGlyph name="b" xMin="34" yMin="-7" xMax="372" yMax="733">
      <contour>
        <pt x="372" y="245" on="1"/>
        <pt x="372" y="189" on="0"/>
        <pt x="349" y="96" on="0"/>
        <pt x="311" y="30" on="0"/>
        <pt x="263" y="-7" on="0"/>
        <pt x="238" y="-7" on="1"/>
        <pt x="214" y="-7" on="0"/>
        <pt x="169" y="16" on="0"/>
        <pt x="150" y="36" on="1"/>
        <pt x="150" y="0" on="1"/>
        <pt x="34" y="0" on="1"/>
        <pt x="34" y="733" on="1"/>
        <pt x="158" y="733" on="1"/>
        <pt x="158" y="455" on="1"/>
        <pt x="176" y="469" on="0"/>
        <pt x="214" y="484" on="0"/>
        <pt x="238" y="484" on="1"/>
        <pt x="266" y="484" on="0"/>
        <pt x="315" y="453" on="0"/>
        <pt x="351" y="393" on="0"/>
        <pt x="372" y="303" on="0"/>
      </contour>
      <contour>
        <pt x="251" y="245" on="1"/>
        <pt x="251" y="287" on="0"/>
        <pt x="242" y="340" on="0"/>
        <pt x="226" y="371" on="0"/>
        <pt x="205" y="382" on="0"/>
        <pt x="193" y="382" on="1"/>
        <pt x="182" y="382" on="0"/>
        <pt x="167" y="377" on="0"/>
        <pt x="158" y="372" on="1"/>
        <pt x="158" y="103" on="1"/>
        <pt x="174" y="95" on="0"/>
        <pt x="193" y="95" on="1"/>
        <pt x="204" y="95" on="0"/>
        <pt x="225" y="110" on="0"/>
        <pt x="241" y="146" on="0"/>
        <pt x="251" y="203" on="0"/>
      </contour>
    </TTGlyph>
    <TTGlyph name="backslash" xMin="0" yMin="-216" xMax="231" yMax="733">
      <contour>
        <pt x="140" y="-216" on="1"/>
        <pt x="0" y="733" on="1"/>
        <pt x="92" y="733" on="1"/>
        <pt x="231" y="-216" on="1"/>
      </contour>
    </TTGlyph>
    <TTGlyph name="backslash.cap" xMin="9" yMin="-109" xMax="240" yMax="840">
      <component glyphName="backslash" x="9" y="107" flags="0x204"/>
    </TTGlyph>
    <TTGlyph name="bar" xMin="56" yMin="-215" xMax="147" yMax="734">
      <contour>
        <pt x="56" y="-215" on="1"/>
        <pt x="56" y="734" on="1"/>
        <pt x="147" y="734" on="1"/>
        <pt x="147" y="-215" on="1"/>
      </contour>
    </TTGlyph>
    <TTGlyph name="bar.cap" xMin="56" yMin="-109" xMax="147" yMax="840">
      <component glyphName="bar" x="0" y="106" flags="0x204"/>
    </TTGlyph>
    <TTGlyph name="braceleft" xMin="15" yMin="-223" xMax="257" yMax="740">
      <contour>
        <pt x="257" y="-223" on="1"/>
        <pt x="221" y="-223" on="0"/>
        <pt x="158" y="-202" on="0"/>
        <pt x="112" y="-162" on="0"/>
        <pt x="86" y="-104" on="0"/>
        <pt x="86" y="-68" on="1"/>
        <pt x="86" y="152" on="1"/>
        <pt x="86" y="184" on="0"/>
        <pt x="50" y="207" on="0"/>
        <pt x="28" y="207" on="1"/>
        <pt x="15" y="207" on="1"/>
        <pt x="15" y="308" on="1"/>
        <pt x="28" y="308" on="1"/>
        <pt x="50" y="308" on="0"/>
        <pt x="86" y="331" on="0"/>
        <pt x="86" y="363" on="1"/>
        <pt x="86" y="584" on="1"/>
        <pt x="86" y="620" on="0"/>
        <pt x="112" y="678" on="0"/>
        <pt x="158" y="719" on="0"/>
        <pt x="221" y="740" on="0"/>
        <pt x="257" y="740" on="1"/>
        <pt x="257" y="634" on="1"/>
        <pt x="230" y="634" on="0"/>
        <pt x="194" y="603" on="0"/>
        <pt x="194" y="560" on="1"/>
        <pt x="194" y="361" on="1"/>
        <pt x="194" y="315" on="0"/>
        <pt x="155" y="270" on="0"/>
        <pt x="126" y="258" on="1"/>
        <pt x="155" y="246" on="0"/>
        <pt x="194" y="202" on="0"/>
        <pt x="194" y="155" on="1"/>
        <pt x="194" y="-45" on="1"/>
        <pt x="194" y="-86" on="0"/>
        <pt x="230" y="-116" on="0"/>
        <pt x="257" y="-116" on="1"/>
        <pt x="257" y="-223" on="1"/>
      </contour>
    </TTGlyph>
    <TTGlyph name="braceleft.cap" xMin="15" yMin="-116" xMax="257" yMax="847">
      <component glyphName="braceleft" x="0" y="107" flags="0x204"/>
    </TTGlyph>
    <TTGlyph name="braceright" xMin="4" yMin="-223" xMax="246" yMax="740">
      <contour>
        <pt x="233" y="207" on="1"/>
        <pt x="211" y="207" on="0"/>
        <pt x="175" y="184" on="0"/>
        <pt x="175" y="152" on="1"/>
        <pt x="175" y="-68" on="1"/>
        <pt x="175" y="-104" on="0"/>
        <pt x="149" y="-162" on="0"/>
        <pt x="103" y="-202" on="0"/>
        <pt x="40" y="-223" on="0"/>
        <pt x="4" y="-223" on="1"/>
        <pt x="4" y="-116" on="1"/>
        <pt x="31" y="-116" on="0"/>
        <pt x="67" y="-86" on="0"/>
        <pt x="67" y="-45" on="1"/>
        <pt x="67" y="155" on="1"/>
        <pt x="67" y="202" on="0"/>
        <pt x="106" y="246" on="0"/>
        <pt x="135" y="258" on="1"/>
        <pt x="106" y="270" on="0"/>
        <pt x="67" y="315" on="0"/>
        <pt x="67" y="361" on="1"/>
        <pt x="67" y="560" on="1"/>
        <pt x="67" y="603" on="0"/>
        <pt x="31" y="634" on="0"/>
        <pt x="4" y="634" on="1"/>
        <pt x="4" y="740" on="1"/>
        <pt x="40" y="740" on="0"/>
        <pt x="103" y="719" on="0"/>
        <pt x="149" y="678" on="0"/>
        <pt x="175" y="620" on="0"/>
        <pt x="175" y="584" on="1"/>
        <pt x="175" y="363" on="1"/>
        <pt x="175" y="331" on="0"/>
        <pt x="211" y="308" on="0"/>
        <pt x="233" y="308" on="1"/>
        <pt x="246" y="308" on="1"/>
        <pt x="246" y="207" on="1"/>
      </contour>
    </TTGlyph>
    <TTGlyph name="braceright.cap" xMin="4" yMin="-116" xMax="246" yMax="847">
      <component glyphName="braceright" x="0" y="107" flags="0x204"/>
    </TTGlyph>
    <TTGlyph name="bracketleft" xMin="34" yMin="-216" xMax="247" yMax="733">
      <contour>
        <pt x="34" y="-216" on="1"/>
        <pt x="34" y="733" on="1"/>
        <pt x="247" y="733" on="1"/>
        <pt x="247" y="631" on="1"/>
        <pt x="142" y="631" on="1"/>
        <pt x="142" y="-113" on="1"/>
        <pt x="247" y="-113" on="1"/>
        <pt x="247" y="-216" on="1"/>
      </contour>
    </TTGlyph>
    <TTGlyph name="bracketleft.cap" xMin="34" yMin="-109" xMax="247" yMax="840">
      <component glyphName="bracketleft" x="0" y="107" flags="0x204"/>
    </TTGlyph>
    <TTGlyph name="bracketright" xMin="4" yMin="-216" xMax="217" yMax="733">
      <contour>
        <pt x="4" y="-216" on="1"/>
        <pt x="4" y="-113" on="1"/>
        <pt x="109" y="-113" on="1"/>
        <pt x="109" y="631" on="1"/>
        <pt x="4" y="631" on="1"/>
        <pt x="4" y="733" on="1"/>
        <pt x="217" y="733" on="1"/>
        <pt x="217" y="-216" on="1"/>
      </contour>
    </TTGlyph>
    <TTGlyph name="bracketright.cap" xMin="4" yMin="-109" xMax="217" yMax="840">
      <component glyphName="bracketright" x="0" y="107" flags="0x204"/>
    </TTGlyph>
    <TTGlyph name="breve" xMin="64" yMin="514" xMax="337" yMax="652">
      <contour>
        <pt x="337" y="645" on="1"/>
        <pt x="337" y="618" on="0"/>
        <pt x="318" y="571" on="0"/>
        <pt x="283" y="535" on="0"/>
        <pt x="232" y="514" on="0"/>
        <pt x="200" y="514" on="1"/>
        <pt x="168" y="514" on="0"/>
        <pt x="117" y="535" on="0"/>
        <pt x="82" y="571" on="0"/>
        <pt x="64" y="618" on="0"/>
        <pt x="64" y="645" on="1"/>
        <pt x="151" y="652" on="1"/>
        <pt x="151" y="590" on="0"/>
        <pt x="200" y="590" on="1"/>
        <pt x="249" y="590" on="0"/>
        <pt x="249" y="652" on="1"/>
        <pt x="337" y="645" on="1"/>
      </contour>
    </TTGlyph>
    <TTGlyph name="bullet" xMin="29" yMin="227" xMax="301" yMax="505">
      <contour>
        <pt x="301" y="366" on="1"/>
        <pt x="301" y="337" on="0"/>
        <pt x="280" y="286" on="0"/>
        <pt x="243" y="249" on="0"/>
        <pt x="193" y="227" on="0"/>
        <pt x="165" y="227" on="1"/>
        <pt x="137" y="227" on="0"/>
        <pt x="87" y="249" on="0"/>
        <pt x="50" y="286" on="0"/>
        <pt x="29" y="337" on="0"/>
        <pt x="29" y="366" on="1"/>
        <pt x="29" y="395" on="0"/>
        <pt x="50" y="446" on="0"/>
        <pt x="87" y="483" on="0"/>
        <pt x="137" y="505" on="0"/>
        <pt x="165" y="505" on="1"/>
        <pt x="193" y="505" on="0"/>
        <pt x="243" y="483" on="0"/>
        <pt x="280" y="446" on="0"/>
        <pt x="301" y="395" on="0"/>
      </contour>
    </TTGlyph>
    <TTGlyph name="c" xMin="20" yMin="-10" xMax="302" yMax="484">
      <contour>
        <pt x="302" y="25" on="1"/>
        <pt x="283" y="11" on="0"/>
        <pt x="234" y="-10" on="0"/>
        <pt x="200" y="-10" on="1"/>
        <pt x="157" y="-10" on="0"/>
        <pt x="90" y="27" on="0"/>
        <pt x="44" y="93" on="0"/>
        <pt x="20" y="182" on="0"/>
        <pt x="20" y="235" on="1"/>
        <pt x="20" y="287" on="0"/>
        <pt x="44" y="378" on="0"/>
        <pt x="90" y="445" on="0"/>
        <pt x="157" y="484" on="0"/>
        <pt x="200" y="484" on="1"/>
        <pt x="234" y="484" on="0"/>
        <pt x="283" y="463" on="0"/>
        <pt x="302" y="449" on="1"/>
        <pt x="261" y="356" on="1"/>
        <pt x="238" y="374" on="0"/>
        <pt x="208" y="374" on="1"/>
        <pt x="182" y="374" on="0"/>
        <pt x="141" y="305" on="0"/>
        <pt x="141" y="235" on="1"/>
        <pt x="141" y="165" on="0"/>
        <pt x="182" y="100" on="0"/>
        <pt x="208" y="100" on="1"/>
        <pt x="238" y="100" on="0"/>
        <pt x="261" y="118" on="1"/>
        <pt x="302" y="25" on="1"/>
      </contour>
    </TTGlyph>
    <TTGlyph name="cacute" xMin="20" yMin="-10" xMax="331" yMax="703">
      <component glyphName="c" x="0" y="0" flags="0x204"/>
      <component glyphName="acute" x="45" y="0" flags="0x4"/>
    </TTGlyph>
    <TTGlyph name="caron" xMin="60" yMin="509" xMax="340" yMax="658">
      <contour>
        <pt x="236" y="509" on="1"/>
        <pt x="167" y="509" on="1"/>
        <pt x="60" y="658" on="1"/>
        <pt x="153" y="658" on="1"/>
        <pt x="199" y="587" on="1"/>
        <pt x="244" y="658" on="1"/>
        <pt x="340" y="658" on="1"/>
      </contour>
    </TTGlyph>
    <TTGlyph name="caron.alt" xMin="54" yMin="501" xMax="172" yMax="739">
      <contour>
        <pt x="169" y="731" on="1"/>
        <pt x="172" y="664" on="0"/>
        <pt x="134" y="545" on="0"/>
        <pt x="100" y="501" on="1"/>
        <pt x="54" y="526" on="1"/>
        <pt x="75" y="576" on="0"/>
        <pt x="83" y="682" on="0"/>
        <pt x="80" y="739" on="1"/>
      </contour>
    </TTGlyph>
    <TTGlyph name="ccaron" xMin="20" yMin="-10" xMax="320" yMax="658">
      <component glyphName="c" x="0" y="0" flags="0x204"/>
      <component glyphName="caron" x="-20" y="0" flags="0x4"/>
    </TTGlyph>
    <TTGlyph name="ccedilla" xMin="20" yMin="-199" xMax="302" yMax="484">
      <contour>
        <pt x="282" y="-112" on="1"/>
        <pt x="282" y="-147" on="0"/>
        <pt x="231" y="-199" on="0"/>
        <pt x="182" y="-199" on="1"/>
        <pt x="157" y="-199" on="0"/>
        <pt x="109" y="-181" on="0"/>
        <pt x="83" y="-167" on="1"/>
        <pt x="107" y="-105" on="1"/>
        <pt x="151" y="-137" on="0"/>
        <pt x="187" y="-137" on="1"/>
        <pt x="198" y="-137" on="0"/>
        <pt x="211" y="-127" on="0"/>
        <pt x="211" y="-113" on="1"/>
        <pt x="211" y="-104" on="0"/>
        <pt x="181" y="-87" on="0"/>
        <pt x="137" y="-87" on="1"/>
        <pt x="135" y="-79" on="1"/>
        <pt x="155" y="-3" on="1"/>
        <pt x="123" y="6" on="0"/>
        <pt x="72" y="48" on="0"/>
        <pt x="38" y="110" on="0"/>
        <pt x="20" y="190" on="0"/>
        <pt x="20" y="235" on="1"/>
        <pt x="20" y="287" on="0"/>
        <pt x="44" y="378" on="0"/>
        <pt x="90" y="445" on="0"/>
        <pt x="157" y="484" on="0"/>
        <pt x="200" y="484" on="1"/>
        <pt x="234" y="484" on="0"/>
        <pt x="283" y="463" on="0"/>
        <pt x="302" y="449" on="1"/>
        <pt x="261" y="356" on="1"/>
        <pt x="238" y="374" on="0"/>
        <pt x="208" y="374" on="1"/>
        <pt x="182" y="374" on="0"/>
        <pt x="141" y="305" on="0"/>
        <pt x="141" y="235" on="1"/>
        <pt x="141" y="165" on="0"/>
        <pt x="182" y="100" on="0"/>
        <pt x="208" y="100" on="1"/>
        <pt x="238" y="100" on="0"/>
        <pt x="261" y="118" on="1"/>
        <pt x="302" y="25" on="1"/>
        <pt x="283" y="11" on="0"/>
        <pt x="234" y="-10" on="0"/>
        <pt x="200" y="-10" on="1"/>
        <pt x="198" y="-10" on="1"/>
        <pt x="193" y="-33" on="1"/>
        <pt x="241" y="-44" on="0"/>
        <pt x="282" y="-84" on="0"/>
      </contour>
    </TTGlyph>
    <TTGlyph name="cdotaccent" xMin="20" yMin="-10" xMax="302" yMax="639">
      <component glyphName="c" x="0" y="0" flags="0x204"/>
      <component glyphName="dotaccent" x="-20" y="0" flags="0x4"/>
    </TTGlyph>
    <TTGlyph name="cedilla" xMin="90" yMin="-199" xMax="289" yMax="20">
      <contour>
        <pt x="289" y="-112" on="1"/>
        <pt x="289" y="-147" on="0"/>
        <pt x="238" y="-199" on="0"/>
        <pt x="189" y="-199" on="1"/>
        <pt x="164" y="-199" on="0"/>
        <pt x="116" y="-181" on="0"/>
        <pt x="90" y="-167" on="1"/>
        <pt x="114" y="-105" on="1"/>
        <pt x="158" y="-137" on="0"/>
        <pt x="194" y="-137" on="1"/>
        <pt x="205" y="-137" on="0"/>
        <pt x="218" y="-127" on="0"/>
        <pt x="218" y="-113" on="1"/>
        <pt x="218" y="-104" on="0"/>
        <pt x="188" y="-87" on="0"/>
        <pt x="144" y="-87" on="1"/>
        <pt x="142" y="-79" on="1"/>
        <pt x="168" y="20" on="1"/>
        <pt x="209" y="9" on="1"/>
        <pt x="200" y="-33" on="1"/>
        <pt x="248" y="-44" on="0"/>
        <pt x="289" y="-84" on="0"/>
      </contour>
    </TTGlyph>
    <TTGlyph name="cent" xMin="20" yMin="-77" xMax="326" yMax="551">
      <contour>
        <pt x="148" y="-1" on="1"/>
        <pt x="86" y="19" on="0"/>
        <pt x="20" y="147" on="0"/>
        <pt x="20" y="235" on="1"/>
        <pt x="20" y="287" on="0"/>
        <pt x="44" y="377" on="0"/>
        <pt x="91" y="445" on="0"/>
        <pt x="161" y="484" on="0"/>
        <pt x="206" y="484" on="1"/>
        <pt x="214" y="551" on="1"/>
        <pt x="269" y="551" on="1"/>
        <pt x="260" y="477" on="1"/>
        <pt x="283" y="470" on="0"/>
        <pt x="315" y="451" on="0"/>
        <pt x="326" y="443" on="1"/>
        <pt x="285" y="351" on="1"/>
        <pt x="282" y="353" on="0"/>
        <pt x="262" y="368" on="0"/>
        <pt x="248" y="375" on="1"/>
        <pt x="214" y="90" on="1"/>
        <pt x="228" y="92" on="0"/>
        <pt x="254" y="107" on="0"/>
        <pt x="264" y="115" on="1"/>
        <pt x="302" y="25" on="1"/>
        <pt x="283" y="11" on="0"/>
        <pt x="235" y="-9" on="0"/>
        <pt x="202" y="-10" on="1"/>
        <pt x="194" y="-77" on="1"/>
        <pt x="139" y="-77" on="1"/>
      </contour>
      <contour>
        <pt x="132" y="223" on="1"/>
        <pt x="132" y="181" on="0"/>
        <pt x="147" y="125" on="0"/>
        <pt x="161" y="110" on="1"/>
        <pt x="193" y="380" on="1"/>
        <pt x="167" y="370" on="0"/>
        <pt x="132" y="294" on="0"/>
      </contour>
    </TTGlyph>
    <TTGlyph name="cent.lin" xMin="20" yMin="57" xMax="326" yMax="685">
      <component glyphName="cent" x="0" y="134" flags="0x204"/>
    </TTGlyph>
    <TTGlyph name="circumflex" xMin="60" yMin="514" xMax="340" yMax="663">
      <contour>
        <pt x="244" y="514" on="1"/>
        <pt x="199" y="585" on="1"/>
        <pt x="153" y="514" on="1"/>
        <pt x="60" y="514" on="1"/>
        <pt x="167" y="663" on="1"/>
        <pt x="236" y="663" on="1"/>
        <pt x="340" y="514" on="1"/>
      </contour>
    </TTGlyph>
    <TTGlyph name="colon" xMin="22" yMin="-11" xMax="168" yMax="427">
      <contour>
        <pt x="22" y="64" on="1"/>
        <pt x="22" y="95" on="0"/>
        <pt x="63" y="139" on="0"/>
        <pt x="95" y="139" on="1"/>
        <pt x="127" y="139" on="0"/>
        <pt x="168" y="95" on="0"/>
        <pt x="168" y="64" on="1"/>
        <pt x="168" y="33" on="0"/>
        <pt x="127" y="-11" on="0"/>
        <pt x="95" y="-11" on="1"/>
        <pt x="63" y="-11" on="0"/>
        <pt x="22" y="33" on="0"/>
      </contour>
      <contour>
        <pt x="22" y="352" on="1"/>
        <pt x="22" y="383" on="0"/>
        <pt x="63" y="427" on="0"/>
        <pt x="95" y="427" on="1"/>
        <pt x="127" y="427" on="0"/>
        <pt x="168" y="383" on="0"/>
        <pt x="168" y="352" on="1"/>
        <pt x="168" y="321" on="0"/>
        <pt x="127" y="277" on="0"/>
        <pt x="95" y="277" on="1"/>
        <pt x="63" y="277" on="0"/>
        <pt x="22" y="321" on="0"/>
      </contour>
    </TTGlyph>
    <TTGlyph name="comma" xMin="22" yMin="-109" xMax="163" yMax="138">
      <contour>
        <pt x="163" y="57" on="1"/>
        <pt x="163" y="33" on="0"/>
        <pt x="143" y="-17" on="0"/>
        <pt x="110" y="-62" on="0"/>
        <pt x="66" y="-99" on="0"/>
        <pt x="41" y="-109" on="1"/>
        <pt x="28" y="-89" on="1"/>
        <pt x="57" y="-65" on="0"/>
        <pt x="84" y="-22" on="0"/>
        <pt x="92" y="6" on="1"/>
        <pt x="60" y="8" on="0"/>
        <pt x="22" y="47" on="0"/>
        <pt x="22" y="73" on="1"/>
        <pt x="22" y="99" on="0"/>
        <pt x="63" y="138" on="0"/>
        <pt x="89" y="138" on="1"/>
        <pt x="124" y="138" on="0"/>
        <pt x="163" y="91" on="0"/>
      </contour>
    </TTGlyph>
    <TTGlyph name="commaaccent" xMin="22" yMin="-309" xMax="163" yMax="-62">
      <contour>
        <pt x="163" y="-143" on="1"/>
        <pt x="163" y="-167" on="0"/>
        <pt x="143" y="-217" on="0"/>
        <pt x="110" y="-262" on="0"/>
        <pt x="66" y="-299" on="0"/>
        <pt x="41" y="-309" on="1"/>
        <pt x="28" y="-289" on="1"/>
        <pt x="57" y="-265" on="0"/>
        <pt x="84" y="-222" on="0"/>
        <pt x="92" y="-194" on="1"/>
        <pt x="60" y="-192" on="0"/>
        <pt x="22" y="-153" on="0"/>
        <pt x="22" y="-127" on="1"/>
        <pt x="22" y="-101" on="0"/>
        <pt x="63" y="-62" on="0"/>
        <pt x="89" y="-62" on="1"/>
        <pt x="124" y="-62" on="0"/>
        <pt x="163" y="-109" on="0"/>
      </contour>
    </TTGlyph>
    <TTGlyph name="copyright" xMin="27" yMin="-12" xMax="478" yMax="745">
      <contour>
        <pt x="478" y="366" on="1"/>
        <pt x="478" y="288" on="0"/>
        <pt x="446" y="150" on="0"/>
        <pt x="387" y="47" on="0"/>
        <pt x="304" y="-12" on="0"/>
        <pt x="253" y="-12" on="1"/>
        <pt x="202" y="-12" on="0"/>
        <pt x="119" y="47" on="0"/>
        <pt x="60" y="150" on="0"/>
        <pt x="27" y="288" on="0"/>
        <pt x="27" y="366" on="1"/>
        <pt x="27" y="444" on="0"/>
        <pt x="60" y="582" on="0"/>
        <pt x="119" y="685" on="0"/>
        <pt x="202" y="745" on="0"/>
        <pt x="253" y="745" on="1"/>
        <pt x="304" y="745" on="0"/>
        <pt x="387" y="685" on="0"/>
        <pt x="446" y="582" on="0"/>
        <pt x="478" y="444" on="0"/>
      </contour>
      <contour>
        <pt x="435" y="366" on="1"/>
        <pt x="435" y="432" on="0"/>
        <pt x="409" y="555" on="0"/>
        <pt x="361" y="649" on="0"/>
        <pt x="294" y="705" on="0"/>
        <pt x="253" y="705" on="1"/>
        <pt x="211" y="705" on="0"/>
        <pt x="144" y="649" on="0"/>
        <pt x="96" y="555" on="0"/>
        <pt x="70" y="432" on="0"/>
        <pt x="70" y="366" on="1"/>
        <pt x="70" y="300" on="0"/>
        <pt x="96" y="178" on="0"/>
        <pt x="144" y="84" on="0"/>
        <pt x="211" y="28" on="0"/>
        <pt x="253" y="28" on="1"/>
        <pt x="294" y="28" on="0"/>
        <pt x="361" y="84" on="0"/>
        <pt x="409" y="178" on="0"/>
        <pt x="435" y="300" on="0"/>
      </contour>
      <contour>
        <pt x="334" y="203" on="1"/>
        <pt x="316" y="191" on="0"/>
        <pt x="286" y="182" on="0"/>
        <pt x="267" y="182" on="1"/>
        <pt x="242" y="182" on="0"/>
        <pt x="198" y="208" on="0"/>
        <pt x="165" y="257" on="0"/>
        <pt x="145" y="326" on="0"/>
        <pt x="145" y="368" on="1"/>
        <pt x="145" y="411" on="0"/>
        <pt x="164" y="481" on="0"/>
        <pt x="197" y="531" on="0"/>
        <pt x="243" y="559" on="0"/>
        <pt x="270" y="559" on="1"/>
        <pt x="288" y="559" on="0"/>
        <pt x="317" y="550" on="0"/>
        <pt x="333" y="538" on="1"/>
        <pt x="305" y="477" on="1"/>
        <pt x="297" y="484" on="0"/>
        <pt x="283" y="491" on="0"/>
        <pt x="273" y="491" on="1"/>
        <pt x="253" y="491" on="0"/>
        <pt x="221" y="432" on="0"/>
        <pt x="221" y="374" on="1"/>
        <pt x="221" y="316" on="0"/>
        <pt x="251" y="250" on="0"/>
        <pt x="276" y="250" on="1"/>
        <pt x="286" y="250" on="0"/>
        <pt x="300" y="258" on="0"/>
        <pt x="308" y="263" on="1"/>
      </contour>
    </TTGlyph>
    <TTGlyph name="d" xMin="20" yMin="-7" xMax="358" yMax="733">
      <contour>
        <pt x="242" y="0" on="1"/>
        <pt x="242" y="36" on="1"/>
        <pt x="225" y="20" on="0"/>
        <pt x="179" y="-7" on="0"/>
        <pt x="154" y="-7" on="1"/>
        <pt x="126" y="-7" on="0"/>
        <pt x="77" y="24" on="0"/>
        <pt x="41" y="85" on="0"/>
        <pt x="20" y="176" on="0"/>
        <pt x="20" y="236" on="1"/>
        <pt x="20" y="292" on="0"/>
        <pt x="43" y="383" on="0"/>
        <pt x="81" y="448" on="0"/>
        <pt x="129" y="484" on="0"/>
        <pt x="154" y="484" on="1"/>
        <pt x="178" y="484" on="0"/>
        <pt x="214" y="472" on="0"/>
        <pt x="234" y="459" on="1"/>
        <pt x="234" y="733" on="1"/>
        <pt x="358" y="733" on="1"/>
        <pt x="358" y="0" on="1"/>
      </contour>
      <contour>
        <pt x="234" y="374" on="1"/>
        <pt x="218" y="382" on="0"/>
        <pt x="199" y="382" on="1"/>
        <pt x="188" y="382" on="0"/>
        <pt x="167" y="368" on="0"/>
        <pt x="151" y="334" on="0"/>
        <pt x="141" y="278" on="0"/>
        <pt x="141" y="236" on="1"/>
        <pt x="141" y="192" on="0"/>
        <pt x="150" y="137" on="0"/>
        <pt x="166" y="106" on="0"/>
        <pt x="187" y="95" on="0"/>
        <pt x="199" y="95" on="1"/>
        <pt x="210" y="95" on="0"/>
        <pt x="226" y="99" on="0"/>
        <pt x="234" y="103" on="1"/>
      </contour>
    </TTGlyph>
    <TTGlyph name="dagger" xMin="29" yMin="218" xMax="310" yMax="733">
      <contour>
        <pt x="226" y="505" on="1"/>
        <pt x="226" y="218" on="1"/>
        <pt x="115" y="218" on="1"/>
        <pt x="115" y="505" on="1"/>
        <pt x="29" y="505" on="1"/>
        <pt x="29" y="612" on="1"/>
        <pt x="115" y="612" on="1"/>
        <pt x="115" y="733" on="1"/>
        <pt x="226" y="733" on="1"/>
        <pt x="226" y="612" on="1"/>
        <pt x="310" y="612" on="1"/>
        <pt x="310" y="505" on="1"/>
      </contour>
    </TTGlyph>
    <TTGlyph name="daggerdbl" xMin="29" yMin="188" xMax="310" yMax="733">
      <contour>
        <pt x="226" y="292" on="1"/>
        <pt x="226" y="188" on="1"/>
        <pt x="115" y="188" on="1"/>
        <pt x="115" y="292" on="1"/>
        <pt x="29" y="292" on="1"/>
        <pt x="29" y="399" on="1"/>
        <pt x="116" y="399" on="1"/>
        <pt x="116" y="518" on="1"/>
        <pt x="29" y="518" on="1"/>
        <pt x="29" y="625" on="1"/>
        <pt x="115" y="625" on="1"/>
        <pt x="115" y="733" on="1"/>
        <pt x="226" y="733" on="1"/>
        <pt x="226" y="625" on="1"/>
        <pt x="310" y="625" on="1"/>
        <pt x="310" y="518" on="1"/>
        <pt x="225" y="518" on="1"/>
        <pt x="225" y="399" on="1"/>
        <pt x="310" y="399" on="1"/>
        <pt x="310" y="292" on="1"/>
      </contour>
    </TTGlyph>
    <TTGlyph name="dcaron" xMin="20" yMin="-7" xMax="493" yMax="733">
      <component glyphName="d" x="0" y="0" flags="0x204"/>
      <component glyphName="caron.alt" x="321" y="-6" flags="0x4"/>
    </TTGlyph>
    <TTGlyph name="dcroat" xMin="20" yMin="-7" xMax="392" yMax="733">
      <contour>
        <pt x="242" y="0" on="1"/>
        <pt x="242" y="36" on="1"/>
        <pt x="225" y="20" on="0"/>
        <pt x="179" y="-7" on="0"/>
        <pt x="154" y="-7" on="1"/>
        <pt x="126" y="-7" on="0"/>
        <pt x="77" y="24" on="0"/>
        <pt x="41" y="85" on="0"/>
        <pt x="20" y="176" on="0"/>
        <pt x="20" y="236" on="1"/>
        <pt x="20" y="292" on="0"/>
        <pt x="43" y="383" on="0"/>
        <pt x="81" y="448" on="0"/>
        <pt x="129" y="484" on="0"/>
        <pt x="154" y="484" on="1"/>
        <pt x="178" y="484" on="0"/>
        <pt x="214" y="472" on="0"/>
        <pt x="234" y="459" on="1"/>
        <pt x="234" y="543" on="1"/>
        <pt x="142" y="543" on="1"/>
        <pt x="142" y="647" on="1"/>
        <pt x="234" y="647" on="1"/>
        <pt x="234" y="733" on="1"/>
        <pt x="358" y="733" on="1"/>
        <pt x="358" y="647" on="1"/>
        <pt x="392" y="647" on="1"/>
        <pt x="392" y="543" on="1"/>
        <pt x="358" y="543" on="1"/>
        <pt x="358" y="0" on="1"/>
      </contour>
      <contour>
        <pt x="234" y="374" on="1"/>
        <pt x="218" y="382" on="0"/>
        <pt x="199" y="382" on="1"/>
        <pt x="188" y="382" on="0"/>
        <pt x="167" y="368" on="0"/>
        <pt x="151" y="334" on="0"/>
        <pt x="141" y="278" on="0"/>
        <pt x="141" y="236" on="1"/>
        <pt x="141" y="192" on="0"/>
        <pt x="150" y="137" on="0"/>
        <pt x="166" y="106" on="0"/>
        <pt x="187" y="95" on="0"/>
        <pt x="199" y="95" on="1"/>
        <pt x="210" y="95" on="0"/>
        <pt x="226" y="99" on="0"/>
        <pt x="234" y="103" on="1"/>
      </contour>
    </TTGlyph>
    <TTGlyph name="degree" xMin="40" yMin="451" xMax="327" yMax="733">
      <contour>
        <pt x="327" y="592" on="1"/>
        <pt x="327" y="563" on="0"/>
        <pt x="307" y="512" on="0"/>
        <pt x="270" y="474" on="0"/>
        <pt x="217" y="451" on="0"/>
        <pt x="183" y="451" on="1"/>
        <pt x="150" y="451" on="0"/>
        <pt x="97" y="474" on="0"/>
        <pt x="60" y="512" on="0"/>
        <pt x="40" y="563" on="0"/>
        <pt x="40" y="592" on="1"/>
        <pt x="40" y="620" on="0"/>
        <pt x="60" y="672" on="0"/>
        <pt x="97" y="710" on="0"/>
        <pt x="150" y="733" on="0"/>
        <pt x="183" y="733" on="1"/>
        <pt x="217" y="733" on="0"/>
        <pt x="270" y="710" on="0"/>
        <pt x="307" y="672" on="0"/>
        <pt x="327" y="620" on="0"/>
      </contour>
      <contour>
        <pt x="242" y="592" on="1"/>
        <pt x="242" y="626" on="0"/>
        <pt x="210" y="666" on="0"/>
        <pt x="183" y="666" on="1"/>
        <pt x="156" y="666" on="0"/>
        <pt x="124" y="626" on="0"/>
        <pt x="124" y="592" on="1"/>
        <pt x="124" y="558" on="0"/>
        <pt x="156" y="518" on="0"/>
        <pt x="183" y="518" on="1"/>
        <pt x="210" y="518" on="0"/>
        <pt x="242" y="558" on="0"/>
      </contour>
    </TTGlyph>
    <TTGlyph name="degree.lin" xMin="40" yMin="451" xMax="327" yMax="733">
      <contour>
        <pt x="327" y="592" on="1"/>
        <pt x="327" y="563" on="0"/>
        <pt x="307" y="512" on="0"/>
        <pt x="270" y="474" on="0"/>
        <pt x="217" y="451" on="0"/>
        <pt x="183" y="451" on="1"/>
        <pt x="150" y="451" on="0"/>
        <pt x="97" y="474" on="0"/>
        <pt x="60" y="512" on="0"/>
        <pt x="40" y="563" on="0"/>
        <pt x="40" y="592" on="1"/>
        <pt x="40" y="620" on="0"/>
        <pt x="60" y="672" on="0"/>
        <pt x="97" y="710" on="0"/>
        <pt x="150" y="733" on="0"/>
        <pt x="183" y="733" on="1"/>
        <pt x="217" y="733" on="0"/>
        <pt x="270" y="710" on="0"/>
        <pt x="307" y="672" on="0"/>
        <pt x="327" y="620" on="0"/>
      </contour>
      <contour>
        <pt x="242" y="592" on="1"/>
        <pt x="242" y="626" on="0"/>
        <pt x="210" y="666" on="0"/>
        <pt x="183" y="666" on="1"/>
        <pt x="156" y="666" on="0"/>
        <pt x="124" y="626" on="0"/>
        <pt x="124" y="592" on="1"/>
        <pt x="124" y="558" on="0"/>
        <pt x="156" y="518" on="0"/>
        <pt x="183" y="518" on="1"/>
        <pt x="210" y="518" on="0"/>
        <pt x="242" y="558" on="0"/>
      </contour>
    </TTGlyph>
    <TTGlyph name="dieresis" xMin="57" yMin="514" xMax="343" yMax="639">
      <contour>
        <pt x="343" y="575" on="1"/>
        <pt x="343" y="550" on="0"/>
        <pt x="306" y="514" on="0"/>
        <pt x="280" y="514" on="1"/>
        <pt x="254" y="514" on="0"/>
        <pt x="216" y="550" on="0"/>
        <pt x="216" y="575" on="1"/>
        <pt x="216" y="602" on="0"/>
        <pt x="254" y="639" on="0"/>
        <pt x="280" y="639" on="1"/>
        <pt x="306" y="639" on="0"/>
        <pt x="343" y="602" on="0"/>
      </contour>
      <contour>
        <pt x="184" y="575" on="1"/>
        <pt x="184" y="550" on="0"/>
        <pt x="146" y="514" on="0"/>
        <pt x="120" y="514" on="1"/>
        <pt x="94" y="514" on="0"/>
        <pt x="57" y="550" on="0"/>
        <pt x="57" y="575" on="1"/>
        <pt x="57" y="602" on="0"/>
        <pt x="94" y="639" on="0"/>
        <pt x="120" y="639" on="1"/>
        <pt x="146" y="639" on="0"/>
        <pt x="184" y="602" on="0"/>
      </contour>
    </TTGlyph>
    <TTGlyph name="divide" xMin="26" yMin="210" xMax="326" yMax="533">
      <contour>
        <pt x="26" y="408" on="1"/>
        <pt x="326" y="408" on="1"/>
        <pt x="326" y="335" on="1"/>
        <pt x="26" y="335" on="1"/>
      </contour>
      <contour>
        <pt x="129" y="485" on="1"/>
        <pt x="129" y="505" on="0"/>
        <pt x="155" y="533" on="0"/>
        <pt x="176" y="533" on="1"/>
        <pt x="197" y="533" on="0"/>
        <pt x="223" y="505" on="0"/>
        <pt x="223" y="485" on="1"/>
        <pt x="223" y="465" on="0"/>
        <pt x="197" y="437" on="0"/>
        <pt x="176" y="437" on="1"/>
        <pt x="155" y="437" on="0"/>
        <pt x="129" y="465" on="0"/>
      </contour>
      <contour>
        <pt x="129" y="258" on="1"/>
        <pt x="129" y="278" on="0"/>
        <pt x="155" y="306" on="0"/>
        <pt x="176" y="306" on="1"/>
        <pt x="197" y="306" on="0"/>
        <pt x="223" y="278" on="0"/>
        <pt x="223" y="258" on="1"/>
        <pt x="223" y="238" on="0"/>
        <pt x="197" y="210" on="0"/>
        <pt x="176" y="210" on="1"/>
        <pt x="155" y="210" on="0"/>
        <pt x="129" y="238" on="0"/>
      </contour>
    </TTGlyph>
    <TTGlyph name="divide.lin" xMin="26" yMin="210" xMax="326" yMax="533">
      <component glyphName="divide" x="0" y="0" flags="0x204"/>
    </TTGlyph>
    <TTGlyph name="dollar" xMin="-2" yMin="-108" xMax="405" yMax="817">
      <contour>
        <pt x="298" y="817" on="1"/>
        <pt x="286" y="725" on="1"/>
        <pt x="348" y="710" on="0"/>
        <pt x="405" y="666" on="1"/>
        <pt x="348" y="553" on="1"/>
        <pt x="307" y="588" on="0"/>
        <pt x="271" y="601" on="1"/>
        <pt x="249" y="421" on="1"/>
        <pt x="262" y="409" on="1"/>
        <pt x="299" y="374" on="0"/>
        <pt x="351" y="317" on="0"/>
        <pt x="383" y="265" on="0"/>
        <pt x="398" y="213" on="0"/>
        <pt x="398" y="183" on="1"/>
        <pt x="398" y="141" on="0"/>
        <pt x="371" y="70" on="0"/>
        <pt x="319" y="19" on="0"/>
        <pt x="244" y="-10" on="0"/>
        <pt x="196" y="-10" on="1"/>
        <pt x="193" y="-10" on="1"/>
        <pt x="181" y="-108" on="1"/>
        <pt x="125" y="-108" on="1"/>
        <pt x="138" y="-3" on="1"/>
        <pt x="100" y="5" on="0"/>
        <pt x="27" y="41" on="0"/>
        <pt x="-2" y="67" on="1"/>
        <pt x="57" y="179" on="1"/>
        <pt x="77" y="162" on="0"/>
        <pt x="125" y="130" on="0"/>
        <pt x="153" y="120" on="1"/>
        <pt x="177" y="314" on="1"/>
        <pt x="163" y="327" on="1"/>
        <pt x="128" y="358" on="0"/>
        <pt x="77" y="410" on="0"/>
        <pt x="44" y="460" on="0"/>
        <pt x="28" y="513" on="0"/>
        <pt x="28" y="545" on="1"/>
        <pt x="28" y="580" on="0"/>
        <pt x="53" y="647" on="0"/>
        <pt x="104" y="700" on="0"/>
        <pt x="178" y="732" on="0"/>
        <pt x="228" y="732" on="1"/>
        <pt x="231" y="732" on="1"/>
        <pt x="242" y="817" on="1"/>
      </contour>
      <contour>
        <pt x="271" y="180" on="1"/>
        <pt x="271" y="202" on="0"/>
        <pt x="252" y="240" on="0"/>
        <pt x="227" y="266" on="1"/>
        <pt x="208" y="112" on="1"/>
        <pt x="225" y="112" on="0"/>
        <pt x="249" y="125" on="0"/>
        <pt x="264" y="144" on="0"/>
        <pt x="271" y="168" on="0"/>
      </contour>
      <contour>
        <pt x="155" y="549" on="1"/>
        <pt x="155" y="529" on="0"/>
        <pt x="176" y="494" on="0"/>
        <pt x="199" y="470" on="1"/>
        <pt x="216" y="610" on="1"/>
        <pt x="188" y="609" on="0"/>
        <pt x="155" y="574" on="0"/>
      </contour>
    </TTGlyph>
    <TTGlyph name="dollar.lin" xMin="-2" yMin="-108" xMax="405" yMax="817">
      <contour>
        <pt x="298" y="817" on="1"/>
        <pt x="286" y="725" on="1"/>
        <pt x="348" y="710" on="0"/>
        <pt x="405" y="666" on="1"/>
        <pt x="348" y="553" on="1"/>
        <pt x="307" y="588" on="0"/>
        <pt x="271" y="601" on="1"/>
        <pt x="249" y="421" on="1"/>
        <pt x="262" y="409" on="1"/>
        <pt x="299" y="374" on="0"/>
        <pt x="351" y="317" on="0"/>
        <pt x="383" y="265" on="0"/>
        <pt x="398" y="213" on="0"/>
        <pt x="398" y="183" on="1"/>
        <pt x="398" y="141" on="0"/>
        <pt x="371" y="70" on="0"/>
        <pt x="319" y="19" on="0"/>
        <pt x="244" y="-10" on="0"/>
        <pt x="196" y="-10" on="1"/>
        <pt x="193" y="-10" on="1"/>
        <pt x="181" y="-108" on="1"/>
        <pt x="125" y="-108" on="1"/>
        <pt x="138" y="-3" on="1"/>
        <pt x="100" y="5" on="0"/>
        <pt x="27" y="41" on="0"/>
        <pt x="-2" y="67" on="1"/>
        <pt x="57" y="179" on="1"/>
        <pt x="77" y="162" on="0"/>
        <pt x="125" y="130" on="0"/>
        <pt x="153" y="120" on="1"/>
        <pt x="177" y="314" on="1"/>
        <pt x="163" y="327" on="1"/>
        <pt x="128" y="358" on="0"/>
        <pt x="77" y="410" on="0"/>
        <pt x="44" y="460" on="0"/>
        <pt x="28" y="513" on="0"/>
        <pt x="28" y="545" on="1"/>
        <pt x="28" y="580" on="0"/>
        <pt x="53" y="647" on="0"/>
        <pt x="104" y="700" on="0"/>
        <pt x="178" y="732" on="0"/>
        <pt x="228" y="732" on="1"/>
        <pt x="231" y="732" on="1"/>
        <pt x="242" y="817" on="1"/>
      </contour>
      <contour>
        <pt x="271" y="180" on="1"/>
        <pt x="271" y="202" on="0"/>
        <pt x="252" y="240" on="0"/>
        <pt x="227" y="266" on="1"/>
        <pt x="208" y="112" on="1"/>
        <pt x="225" y="112" on="0"/>
        <pt x="249" y="125" on="0"/>
        <pt x="264" y="144" on="0"/>
        <pt x="271" y="168" on="0"/>
      </contour>
      <contour>
        <pt x="155" y="549" on="1"/>
        <pt x="155" y="529" on="0"/>
        <pt x="176" y="494" on="0"/>
        <pt x="199" y="470" on="1"/>
        <pt x="216" y="610" on="1"/>
        <pt x="188" y="609" on="0"/>
        <pt x="155" y="574" on="0"/>
      </contour>
    </TTGlyph>
    <TTGlyph name="dotaccent" xMin="137" yMin="513" xMax="263" yMax="639">
      <contour>
        <pt x="137" y="576" on="1"/>
        <pt x="137" y="603" on="0"/>
        <pt x="174" y="639" on="0"/>
        <pt x="200" y="639" on="1"/>
        <pt x="226" y="639" on="0"/>
        <pt x="263" y="603" on="0"/>
        <pt x="263" y="576" on="1"/>
        <pt x="263" y="549" on="0"/>
        <pt x="226" y="513" on="0"/>
        <pt x="200" y="513" on="1"/>
        <pt x="174" y="513" on="0"/>
        <pt x="137" y="549" on="0"/>
      </contour>
    </TTGlyph>
    <TTGlyph name="dotlessi" xMin="34" yMin="0" xMax="158" yMax="473">
      <contour>
        <pt x="34" y="0" on="1"/>
        <pt x="34" y="473" on="1"/>
        <pt x="158" y="473" on="1"/>
        <pt x="158" y="0" on="1"/>
      </contour>
    </TTGlyph>
    <TTGlyph name="e" xMin="20" yMin="-10" xMax="347" yMax="484">
      <contour>
        <pt x="347" y="259" on="1"/>
        <pt x="347" y="248" on="0"/>
        <pt x="345" y="208" on="0"/>
        <pt x="343" y="196" on="1"/>
        <pt x="139" y="196" on="1"/>
        <pt x="139" y="148" on="0"/>
        <pt x="183" y="97" on="0"/>
        <pt x="225" y="97" on="1"/>
        <pt x="245" y="97" on="0"/>
        <pt x="290" y="111" on="0"/>
        <pt x="313" y="121" on="1"/>
        <pt x="319" y="20" on="1"/>
        <pt x="290" y="5" on="0"/>
        <pt x="237" y="-10" on="0"/>
        <pt x="208" y="-10" on="1"/>
        <pt x="161" y="-10" on="0"/>
        <pt x="91" y="25" on="0"/>
        <pt x="44" y="89" on="0"/>
        <pt x="20" y="181" on="0"/>
        <pt x="20" y="237" on="1"/>
        <pt x="20" y="286" on="0"/>
        <pt x="43" y="376" on="0"/>
        <pt x="86" y="444" on="0"/>
        <pt x="151" y="484" on="0"/>
        <pt x="193" y="484" on="1"/>
        <pt x="233" y="484" on="0"/>
        <pt x="292" y="449" on="0"/>
        <pt x="329" y="388" on="0"/>
        <pt x="347" y="306" on="0"/>
      </contour>
      <contour>
        <pt x="241" y="271" on="1"/>
        <pt x="239" y="321" on="0"/>
        <pt x="220" y="379" on="0"/>
        <pt x="194" y="379" on="1"/>
        <pt x="173" y="379" on="0"/>
        <pt x="145" y="329" on="0"/>
        <pt x="142" y="271" on="1"/>
      </contour>
    </TTGlyph>
    <TTGlyph name="eacute" xMin="20" yMin="-10" xMax="347" yMax="703">
      <component glyphName="e" x="0" y="0" flags="0x204"/>
      <component glyphName="acute" x="54" y="0" flags="0x4"/>
    </TTGlyph>
    <TTGlyph name="ebreve" xMin="20" yMin="-10" xMax="347" yMax="652">
      <component glyphName="e" x="0" y="0" flags="0x204"/>
      <component glyphName="breve" x="-11" y="0" flags="0x4"/>
    </TTGlyph>
    <TTGlyph name="ecaron" xMin="20" yMin="-10" xMax="347" yMax="658">
      <component glyphName="e" x="0" y="0" flags="0x204"/>
      <component glyphName="caron" x="-11" y="0" flags="0x4"/>
    </TTGlyph>
    <TTGlyph name="ecircumflex" xMin="20" yMin="-10" xMax="347" yMax="663">
      <component glyphName="e" x="0" y="0" flags="0x204"/>
      <component glyphName="circumflex" x="-11" y="0" flags="0x4"/>
    </TTGlyph>
    <TTGlyph name="edieresis" xMin="20" yMin="-10" xMax="347" yMax="639">
      <component glyphName="e" x="0" y="0" flags="0x204"/>
      <component glyphName="dieresis" x="-11" y="0" flags="0x4"/>
    </TTGlyph>
    <TTGlyph name="edotaccent" xMin="20" yMin="-10" xMax="347" yMax="639">
      <component glyphName="e" x="0" y="0" flags="0x204"/>
      <component glyphName="dotaccent" x="-11" y="0" flags="0x4"/>
    </TTGlyph>
    <TTGlyph name="egrave" xMin="20" yMin="-10" xMax="347" yMax="705">
      <component glyphName="e" x="0" y="0" flags="0x204"/>
      <component glyphName="grave" x="-77" y="0" flags="0x4"/>
    </TTGlyph>
    <TTGlyph name="eight" xMin="22" yMin="-11" xMax="407" yMax="734">
      <contour>
        <pt x="407" y="190" on="1"/>
        <pt x="407" y="148" on="0"/>
        <pt x="381" y="74" on="0"/>
        <pt x="332" y="20" on="0"/>
        <pt x="260" y="-11" on="0"/>
        <pt x="215" y="-11" on="1"/>
        <pt x="169" y="-11" on="0"/>
        <pt x="97" y="20" on="0"/>
        <pt x="48" y="74" on="0"/>
        <pt x="22" y="148" on="0"/>
        <pt x="22" y="190" on="1"/>
        <pt x="22" y="247" on="0"/>
        <pt x="68" y="341" on="0"/>
        <pt x="117" y="366" on="1"/>
        <pt x="80" y="392" on="0"/>
        <pt x="31" y="475" on="0"/>
        <pt x="31" y="534" on="1"/>
        <pt x="31" y="575" on="0"/>
        <pt x="56" y="648" on="0"/>
        <pt x="104" y="702" on="0"/>
        <pt x="172" y="734" on="0"/>
        <pt x="215" y="734" on="1"/>
        <pt x="258" y="734" on="0"/>
        <pt x="326" y="702" on="0"/>
        <pt x="373" y="648" on="0"/>
        <pt x="398" y="575" on="0"/>
        <pt x="398" y="534" on="1"/>
        <pt x="398" y="476" on="0"/>
        <pt x="348" y="391" on="0"/>
        <pt x="312" y="365" on="1"/>
        <pt x="361" y="341" on="0"/>
        <pt x="407" y="247" on="0"/>
      </contour>
      <contour>
        <pt x="266" y="518" on="1"/>
        <pt x="266" y="569" on="0"/>
        <pt x="242" y="624" on="0"/>
        <pt x="216" y="624" on="1"/>
        <pt x="190" y="624" on="0"/>
        <pt x="163" y="569" on="0"/>
        <pt x="163" y="518" on="1"/>
        <pt x="163" y="469" on="0"/>
        <pt x="192" y="416" on="0"/>
        <pt x="216" y="416" on="1"/>
        <pt x="239" y="416" on="0"/>
        <pt x="266" y="469" on="0"/>
      </contour>
      <contour>
        <pt x="269" y="205" on="1"/>
        <pt x="269" y="251" on="0"/>
        <pt x="241" y="308" on="0"/>
        <pt x="215" y="308" on="1"/>
        <pt x="189" y="308" on="0"/>
        <pt x="160" y="251" on="0"/>
        <pt x="160" y="205" on="1"/>
        <pt x="160" y="157" on="0"/>
        <pt x="187" y="99" on="0"/>
        <pt x="214" y="99" on="1"/>
        <pt x="242" y="99" on="0"/>
        <pt x="269" y="157" on="0"/>
      </contour>
    </TTGlyph>
    <TTGlyph name="eight.lin" xMin="22" yMin="-11" xMax="407" yMax="734">
      <contour>
        <pt x="407" y="190" on="1"/>
        <pt x="407" y="148" on="0"/>
        <pt x="381" y="74" on="0"/>
        <pt x="332" y="20" on="0"/>
        <pt x="260" y="-11" on="0"/>
        <pt x="215" y="-11" on="1"/>
        <pt x="169" y="-11" on="0"/>
        <pt x="97" y="20" on="0"/>
        <pt x="48" y="74" on="0"/>
        <pt x="22" y="148" on="0"/>
        <pt x="22" y="190" on="1"/>
        <pt x="22" y="247" on="0"/>
        <pt x="68" y="341" on="0"/>
        <pt x="117" y="366" on="1"/>
        <pt x="80" y="392" on="0"/>
        <pt x="31" y="475" on="0"/>
        <pt x="31" y="534" on="1"/>
        <pt x="31" y="575" on="0"/>
        <pt x="56" y="648" on="0"/>
        <pt x="104" y="702" on="0"/>
        <pt x="172" y="734" on="0"/>
        <pt x="215" y="734" on="1"/>
        <pt x="258" y="734" on="0"/>
        <pt x="326" y="702" on="0"/>
        <pt x="373" y="648" on="0"/>
        <pt x="398" y="575" on="0"/>
        <pt x="398" y="534" on="1"/>
        <pt x="398" y="476" on="0"/>
        <pt x="348" y="391" on="0"/>
        <pt x="312" y="365" on="1"/>
        <pt x="361" y="341" on="0"/>
        <pt x="407" y="247" on="0"/>
      </contour>
      <contour>
        <pt x="266" y="518" on="1"/>
        <pt x="266" y="569" on="0"/>
        <pt x="242" y="624" on="0"/>
        <pt x="216" y="624" on="1"/>
        <pt x="190" y="624" on="0"/>
        <pt x="163" y="569" on="0"/>
        <pt x="163" y="518" on="1"/>
        <pt x="163" y="469" on="0"/>
        <pt x="192" y="416" on="0"/>
        <pt x="216" y="416" on="1"/>
        <pt x="239" y="416" on="0"/>
        <pt x="266" y="469" on="0"/>
      </contour>
      <contour>
        <pt x="269" y="205" on="1"/>
        <pt x="269" y="251" on="0"/>
        <pt x="241" y="308" on="0"/>
        <pt x="215" y="308" on="1"/>
        <pt x="189" y="308" on="0"/>
        <pt x="160" y="251" on="0"/>
        <pt x="160" y="205" on="1"/>
        <pt x="160" y="157" on="0"/>
        <pt x="187" y="99" on="0"/>
        <pt x="214" y="99" on="1"/>
        <pt x="242" y="99" on="0"/>
        <pt x="269" y="157" on="0"/>
      </contour>
    </TTGlyph>
    <TTGlyph name="ellipsis" xMin="32" yMin="-11" xMax="580" yMax="139">
      <contour>
        <pt x="32" y="64" on="1"/>
        <pt x="32" y="95" on="0"/>
        <pt x="73" y="139" on="0"/>
        <pt x="105" y="139" on="1"/>
        <pt x="137" y="139" on="0"/>
        <pt x="178" y="95" on="0"/>
        <pt x="178" y="64" on="1"/>
        <pt x="178" y="33" on="0"/>
        <pt x="137" y="-11" on="0"/>
        <pt x="105" y="-11" on="1"/>
        <pt x="73" y="-11" on="0"/>
        <pt x="32" y="33" on="0"/>
      </contour>
      <contour>
        <pt x="233" y="64" on="1"/>
        <pt x="233" y="95" on="0"/>
        <pt x="274" y="139" on="0"/>
        <pt x="306" y="139" on="1"/>
        <pt x="338" y="139" on="0"/>
        <pt x="379" y="95" on="0"/>
        <pt x="379" y="64" on="1"/>
        <pt x="379" y="33" on="0"/>
        <pt x="338" y="-11" on="0"/>
        <pt x="306" y="-11" on="1"/>
        <pt x="274" y="-11" on="0"/>
        <pt x="233" y="33" on="0"/>
      </contour>
      <contour>
        <pt x="434" y="64" on="1"/>
        <pt x="434" y="95" on="0"/>
        <pt x="475" y="139" on="0"/>
        <pt x="507" y="139" on="1"/>
        <pt x="539" y="139" on="0"/>
        <pt x="580" y="95" on="0"/>
        <pt x="580" y="64" on="1"/>
        <pt x="580" y="33" on="0"/>
        <pt x="539" y="-11" on="0"/>
        <pt x="507" y="-11" on="1"/>
        <pt x="475" y="-11" on="0"/>
        <pt x="434" y="33" on="0"/>
      </contour>
    </TTGlyph>
    <TTGlyph name="emacron" xMin="20" yMin="-10" xMax="347" yMax="600">
      <component glyphName="e" x="0" y="0" flags="0x204"/>
      <component glyphName="macron" x="-10" y="0" flags="0x4"/>
    </TTGlyph>
    <TTGlyph name="emdash" xMin="30" yMin="230" xMax="420" yMax="312">
      <contour>
        <pt x="30" y="230" on="1"/>
        <pt x="30" y="312" on="1"/>
        <pt x="420" y="312" on="1"/>
        <pt x="420" y="230" on="1"/>
      </contour>
    </TTGlyph>
    <TTGlyph name="emdash.cap" xMin="30" yMin="330" xMax="420" yMax="412">
      <component glyphName="emdash" x="0" y="100" flags="0x204"/>
    </TTGlyph>
    <TTGlyph name="endash" xMin="30" yMin="230" xMax="270" yMax="312">
      <contour>
        <pt x="30" y="230" on="1"/>
        <pt x="30" y="312" on="1"/>
        <pt x="270" y="312" on="1"/>
        <pt x="270" y="230" on="1"/>
      </contour>
    </TTGlyph>
    <TTGlyph name="endash.cap" xMin="30" yMin="330" xMax="270" yMax="412">
      <component glyphName="endash" x="0" y="100" flags="0x204"/>
    </TTGlyph>
    <TTGlyph name="eogonek" xMin="20" yMin="-198" xMax="347" yMax="484">
      <contour>
        <pt x="347" y="259" on="1"/>
        <pt x="347" y="248" on="0"/>
        <pt x="345" y="208" on="0"/>
        <pt x="343" y="196" on="1"/>
        <pt x="139" y="196" on="1"/>
        <pt x="139" y="148" on="0"/>
        <pt x="183" y="97" on="0"/>
        <pt x="225" y="97" on="1"/>
        <pt x="245" y="97" on="0"/>
        <pt x="290" y="111" on="0"/>
        <pt x="313" y="121" on="1"/>
        <pt x="319" y="20" on="1"/>
        <pt x="283" y="-20" on="0"/>
        <pt x="253" y="-76" on="0"/>
        <pt x="253" y="-94" on="1"/>
        <pt x="253" y="-111" on="0"/>
        <pt x="272" y="-129" on="0"/>
        <pt x="287" y="-129" on="1"/>
        <pt x="297" y="-129" on="0"/>
        <pt x="317" y="-123" on="0"/>
        <pt x="324" y="-118" on="1"/>
        <pt x="343" y="-157" on="1"/>
        <pt x="329" y="-172" on="0"/>
        <pt x="279" y="-198" on="0"/>
        <pt x="247" y="-198" on="1"/>
        <pt x="209" y="-198" on="0"/>
        <pt x="171" y="-154" on="0"/>
        <pt x="171" y="-122" on="1"/>
        <pt x="171" y="-96" on="0"/>
        <pt x="194" y="-45" on="0"/>
        <pt x="220" y="-10" on="1"/>
        <pt x="208" y="-10" on="1"/>
        <pt x="161" y="-10" on="0"/>
        <pt x="91" y="25" on="0"/>
        <pt x="44" y="89" on="0"/>
        <pt x="20" y="181" on="0"/>
        <pt x="20" y="237" on="1"/>
        <pt x="20" y="286" on="0"/>
        <pt x="43" y="376" on="0"/>
        <pt x="86" y="444" on="0"/>
        <pt x="151" y="484" on="0"/>
        <pt x="193" y="484" on="1"/>
        <pt x="233" y="484" on="0"/>
        <pt x="292" y="449" on="0"/>
        <pt x="329" y="388" on="0"/>
        <pt x="347" y="306" on="0"/>
      </contour>
      <contour>
        <pt x="241" y="271" on="1"/>
        <pt x="239" y="321" on="0"/>
        <pt x="220" y="379" on="0"/>
        <pt x="194" y="379" on="1"/>
        <pt x="173" y="379" on="0"/>
        <pt x="145" y="329" on="0"/>
        <pt x="142" y="271" on="1"/>
      </contour>
    </TTGlyph>
    <TTGlyph name="equal" xMin="36" yMin="236" xMax="269" yMax="506">
      <contour>
        <pt x="36" y="416" on="1"/>
        <pt x="36" y="506" on="1"/>
        <pt x="269" y="506" on="1"/>
        <pt x="269" y="416" on="1"/>
      </contour>
      <contour>
        <pt x="36" y="236" on="1"/>
        <pt x="36" y="326" on="1"/>
        <pt x="269" y="326" on="1"/>
        <pt x="269" y="236" on="1"/>
      </contour>
    </TTGlyph>
    <TTGlyph name="equal.lin" xMin="36" yMin="236" xMax="269" yMax="506">
      <component glyphName="equal" x="0" y="0" flags="0x204"/>
    </TTGlyph>
    <TTGlyph name="eth" xMin="21" yMin="-10" xMax="364" yMax="752">
      <contour>
        <pt x="27" y="554" on="1"/>
        <pt x="95" y="609" on="1"/>
        <pt x="78" y="629" on="0"/>
        <pt x="49" y="659" on="0"/>
        <pt x="40" y="670" on="1"/>
        <pt x="135" y="752" on="1"/>
        <pt x="165" y="723" on="0"/>
        <pt x="195" y="689" on="1"/>
        <pt x="255" y="737" on="1"/>
        <pt x="311" y="668" on="1"/>
        <pt x="303" y="662" on="0"/>
        <pt x="293" y="654" on="1"/>
        <pt x="285" y="647" on="0"/>
        <pt x="262" y="630" on="0"/>
        <pt x="249" y="619" on="1"/>
        <pt x="298" y="547" on="0"/>
        <pt x="364" y="363" on="0"/>
        <pt x="364" y="252" on="1"/>
        <pt x="364" y="193" on="0"/>
        <pt x="342" y="97" on="0"/>
        <pt x="300" y="28" on="0"/>
        <pt x="236" y="-10" on="0"/>
        <pt x="194" y="-10" on="1"/>
        <pt x="152" y="-10" on="0"/>
        <pt x="88" y="25" on="0"/>
        <pt x="44" y="89" on="0"/>
        <pt x="21" y="181" on="0"/>
        <pt x="21" y="237" on="1"/>
        <pt x="21" y="290" on="0"/>
        <pt x="42" y="371" on="0"/>
        <pt x="78" y="425" on="0"/>
        <pt x="126" y="452" on="0"/>
        <pt x="153" y="452" on="1"/>
        <pt x="167" y="452" on="0"/>
        <pt x="198" y="442" on="0"/>
        <pt x="209" y="434" on="1"/>
        <pt x="201" y="459" on="0"/>
        <pt x="170" y="513" on="0"/>
        <pt x="150" y="539" on="1"/>
        <pt x="123" y="518" on="0"/>
        <pt x="103" y="501" on="1"/>
        <pt x="92" y="492" on="0"/>
        <pt x="83" y="485" on="1"/>
      </contour>
      <contour>
        <pt x="243" y="231" on="1"/>
        <pt x="243" y="303" on="0"/>
        <pt x="220" y="365" on="0"/>
        <pt x="192" y="365" on="1"/>
        <pt x="164" y="365" on="0"/>
        <pt x="142" y="298" on="0"/>
        <pt x="142" y="232" on="1"/>
        <pt x="142" y="160" on="0"/>
        <pt x="166" y="95" on="0"/>
        <pt x="194" y="95" on="1"/>
        <pt x="222" y="95" on="0"/>
        <pt x="243" y="165" on="0"/>
      </contour>
    </TTGlyph>
    <TTGlyph name="exclam" xMin="33" yMin="-11" xMax="180" yMax="733">
      <contour>
        <pt x="144" y="217" on="1"/>
        <pt x="67" y="217" on="1"/>
        <pt x="36" y="733" on="1"/>
        <pt x="174" y="733" on="1"/>
      </contour>
      <contour>
        <pt x="180" y="63" on="1"/>
        <pt x="180" y="32" on="0"/>
        <pt x="137" y="-11" on="0"/>
        <pt x="106" y="-11" on="1"/>
        <pt x="74" y="-11" on="0"/>
        <pt x="33" y="32" on="0"/>
        <pt x="33" y="63" on="1"/>
        <pt x="33" y="93" on="0"/>
        <pt x="74" y="138" on="0"/>
        <pt x="106" y="138" on="1"/>
        <pt x="137" y="138" on="0"/>
        <pt x="180" y="93" on="0"/>
      </contour>
    </TTGlyph>
    <TTGlyph name="exclamdown" xMin="32" yMin="0" xMax="179" yMax="744">
      <contour>
        <pt x="32" y="670" on="1"/>
        <pt x="32" y="701" on="0"/>
        <pt x="75" y="744" on="0"/>
        <pt x="106" y="744" on="1"/>
        <pt x="138" y="744" on="0"/>
        <pt x="179" y="701" on="0"/>
        <pt x="179" y="670" on="1"/>
        <pt x="179" y="640" on="0"/>
        <pt x="138" y="595" on="0"/>
        <pt x="106" y="595" on="1"/>
        <pt x="75" y="595" on="0"/>
        <pt x="32" y="640" on="0"/>
      </contour>
      <contour>
        <pt x="68" y="516" on="1"/>
        <pt x="145" y="516" on="1"/>
        <pt x="176" y="0" on="1"/>
        <pt x="38" y="0" on="1"/>
      </contour>
    </TTGlyph>
    <TTGlyph name="f" xMin="11" yMin="0" xMax="265" yMax="740">
      <contour>
        <pt x="258" y="621" on="1"/>
        <pt x="252" y="623" on="0"/>
        <pt x="237" y="625" on="0"/>
        <pt x="229" y="625" on="1"/>
        <pt x="211" y="625" on="0"/>
        <pt x="190" y="599" on="0"/>
        <pt x="190" y="567" on="1"/>
        <pt x="190" y="473" on="1"/>
        <pt x="259" y="473" on="1"/>
        <pt x="259" y="366" on="1"/>
        <pt x="190" y="366" on="1"/>
        <pt x="190" y="0" on="1"/>
        <pt x="66" y="0" on="1"/>
        <pt x="66" y="366" on="1"/>
        <pt x="11" y="366" on="1"/>
        <pt x="11" y="449" on="1"/>
        <pt x="66" y="475" on="1"/>
        <pt x="66" y="589" on="1"/>
        <pt x="66" y="662" on="0"/>
        <pt x="131" y="740" on="0"/>
        <pt x="193" y="740" on="1"/>
        <pt x="216" y="740" on="0"/>
        <pt x="255" y="733" on="0"/>
        <pt x="265" y="730" on="1"/>
      </contour>
    </TTGlyph>
    <TTGlyph name="f_f" xMin="11" yMin="0" xMax="528" yMax="740">
      <contour>
        <pt x="258" y="621" on="1"/>
        <pt x="252" y="623" on="0"/>
        <pt x="237" y="625" on="0"/>
        <pt x="229" y="625" on="1"/>
        <pt x="211" y="625" on="0"/>
        <pt x="190" y="599" on="0"/>
        <pt x="190" y="567" on="1"/>
        <pt x="190" y="473" on="1"/>
        <pt x="259" y="473" on="1"/>
        <pt x="259" y="366" on="1"/>
        <pt x="190" y="366" on="1"/>
        <pt x="190" y="0" on="1"/>
        <pt x="66" y="0" on="1"/>
        <pt x="66" y="366" on="1"/>
        <pt x="11" y="366" on="1"/>
        <pt x="11" y="449" on="1"/>
        <pt x="66" y="475" on="1"/>
        <pt x="66" y="589" on="1"/>
        <pt x="66" y="662" on="0"/>
        <pt x="131" y="740" on="0"/>
        <pt x="193" y="740" on="1"/>
        <pt x="216" y="740" on="0"/>
        <pt x="255" y="733" on="0"/>
        <pt x="265" y="730" on="1"/>
      </contour>
      <contour>
        <pt x="521" y="621" on="1"/>
        <pt x="515" y="623" on="0"/>
        <pt x="500" y="625" on="0"/>
        <pt x="492" y="625" on="1"/>
        <pt x="474" y="625" on="0"/>
        <pt x="453" y="599" on="0"/>
        <pt x="453" y="567" on="1"/>
        <pt x="453" y="473" on="1"/>
        <pt x="522" y="473" on="1"/>
        <pt x="522" y="366" on="1"/>
        <pt x="453" y="366" on="1"/>
        <pt x="453" y="0" on="1"/>
        <pt x="329" y="0" on="1"/>
        <pt x="329" y="366" on="1"/>
        <pt x="274" y="366" on="1"/>
        <pt x="274" y="449" on="1"/>
        <pt x="329" y="475" on="1"/>
        <pt x="329" y="589" on="1"/>
        <pt x="329" y="662" on="0"/>
        <pt x="394" y="740" on="0"/>
        <pt x="456" y="740" on="1"/>
        <pt x="479" y="740" on="0"/>
        <pt x="518" y="733" on="0"/>
        <pt x="528" y="730" on="1"/>
      </contour>
    </TTGlyph>
    <TTGlyph name="f_f_i" xMin="11" yMin="0" xMax="695" yMax="740">
      <contour>
        <pt x="258" y="621" on="1"/>
        <pt x="252" y="623" on="0"/>
        <pt x="237" y="625" on="0"/>
        <pt x="229" y="625" on="1"/>
        <pt x="211" y="625" on="0"/>
        <pt x="190" y="599" on="0"/>
        <pt x="190" y="567" on="1"/>
        <pt x="190" y="473" on="1"/>
        <pt x="259" y="473" on="1"/>
        <pt x="259" y="366" on="1"/>
        <pt x="190" y="366" on="1"/>
        <pt x="190" y="0" on="1"/>
        <pt x="66" y="0" on="1"/>
        <pt x="66" y="366" on="1"/>
        <pt x="11" y="366" on="1"/>
        <pt x="11" y="449" on="1"/>
        <pt x="66" y="475" on="1"/>
        <pt x="66" y="589" on="1"/>
        <pt x="66" y="662" on="0"/>
        <pt x="131" y="740" on="0"/>
        <pt x="193" y="740" on="1"/>
        <pt x="216" y="740" on="0"/>
        <pt x="255" y="733" on="0"/>
        <pt x="265" y="730" on="1"/>
      </contour>
      <contour>
        <pt x="521" y="621" on="1"/>
        <pt x="515" y="623" on="0"/>
        <pt x="500" y="625" on="0"/>
        <pt x="492" y="625" on="1"/>
        <pt x="474" y="625" on="0"/>
        <pt x="453" y="599" on="0"/>
        <pt x="453" y="567" on="1"/>
        <pt x="453" y="473" on="1"/>
        <pt x="522" y="473" on="1"/>
        <pt x="522" y="366" on="1"/>
        <pt x="453" y="366" on="1"/>
        <pt x="453" y="0" on="1"/>
        <pt x="329" y="0" on="1"/>
        <pt x="329" y="366" on="1"/>
        <pt x="274" y="366" on="1"/>
        <pt x="274" y="449" on="1"/>
        <pt x="329" y="475" on="1"/>
        <pt x="329" y="589" on="1"/>
        <pt x="329" y="662" on="0"/>
        <pt x="394" y="740" on="0"/>
        <pt x="456" y="740" on="1"/>
        <pt x="479" y="740" on="0"/>
        <pt x="518" y="733" on="0"/>
        <pt x="528" y="730" on="1"/>
      </contour>
      <contour>
        <pt x="695" y="609" on="1"/>
        <pt x="695" y="578" on="0"/>
        <pt x="654" y="530" on="0"/>
        <pt x="622" y="530" on="1"/>
        <pt x="590" y="530" on="0"/>
        <pt x="549" y="578" on="0"/>
        <pt x="549" y="609" on="1"/>
        <pt x="549" y="641" on="0"/>
        <pt x="590" y="688" on="0"/>
        <pt x="622" y="688" on="1"/>
        <pt x="654" y="688" on="0"/>
        <pt x="695" y="641" on="0"/>
      </contour>
      <contour>
        <pt x="560" y="0" on="1"/>
        <pt x="560" y="473" on="1"/>
        <pt x="684" y="473" on="1"/>
        <pt x="684" y="0" on="1"/>
      </contour>
    </TTGlyph>
    <TTGlyph name="f_f_l" xMin="11" yMin="0" xMax="684" yMax="740">
      <contour>
        <pt x="258" y="621" on="1"/>
        <pt x="252" y="623" on="0"/>
        <pt x="237" y="625" on="0"/>
        <pt x="229" y="625" on="1"/>
        <pt x="211" y="625" on="0"/>
        <pt x="190" y="599" on="0"/>
        <pt x="190" y="567" on="1"/>
        <pt x="190" y="473" on="1"/>
        <pt x="259" y="473" on="1"/>
        <pt x="259" y="366" on="1"/>
        <pt x="190" y="366" on="1"/>
        <pt x="190" y="0" on="1"/>
        <pt x="66" y="0" on="1"/>
        <pt x="66" y="366" on="1"/>
        <pt x="11" y="366" on="1"/>
        <pt x="11" y="449" on="1"/>
        <pt x="66" y="475" on="1"/>
        <pt x="66" y="589" on="1"/>
        <pt x="66" y="662" on="0"/>
        <pt x="131" y="740" on="0"/>
        <pt x="193" y="740" on="1"/>
        <pt x="216" y="740" on="0"/>
        <pt x="255" y="733" on="0"/>
        <pt x="265" y="730" on="1"/>
      </contour>
      <contour>
        <pt x="521" y="621" on="1"/>
        <pt x="515" y="623" on="0"/>
        <pt x="500" y="625" on="0"/>
        <pt x="492" y="625" on="1"/>
        <pt x="474" y="625" on="0"/>
        <pt x="453" y="599" on="0"/>
        <pt x="453" y="567" on="1"/>
        <pt x="453" y="473" on="1"/>
        <pt x="522" y="473" on="1"/>
        <pt x="522" y="366" on="1"/>
        <pt x="453" y="366" on="1"/>
        <pt x="453" y="0" on="1"/>
        <pt x="329" y="0" on="1"/>
        <pt x="329" y="366" on="1"/>
        <pt x="274" y="366" on="1"/>
        <pt x="274" y="449" on="1"/>
        <pt x="329" y="475" on="1"/>
        <pt x="329" y="589" on="1"/>
        <pt x="329" y="662" on="0"/>
        <pt x="394" y="740" on="0"/>
        <pt x="456" y="740" on="1"/>
        <pt x="479" y="740" on="0"/>
        <pt x="518" y="733" on="0"/>
        <pt x="528" y="730" on="1"/>
      </contour>
      <contour>
        <pt x="560" y="0" on="1"/>
        <pt x="560" y="733" on="1"/>
        <pt x="684" y="733" on="1"/>
        <pt x="684" y="0" on="1"/>
      </contour>
    </TTGlyph>
    <TTGlyph name="fi" xMin="11" yMin="0" xMax="432" yMax="740">
      <contour>
        <pt x="432" y="609" on="1"/>
        <pt x="432" y="578" on="0"/>
        <pt x="391" y="530" on="0"/>
        <pt x="359" y="530" on="1"/>
        <pt x="327" y="530" on="0"/>
        <pt x="286" y="578" on="0"/>
        <pt x="286" y="609" on="1"/>
        <pt x="286" y="641" on="0"/>
        <pt x="327" y="688" on="0"/>
        <pt x="359" y="688" on="1"/>
        <pt x="391" y="688" on="0"/>
        <pt x="432" y="641" on="0"/>
      </contour>
      <contour>
        <pt x="258" y="621" on="1"/>
        <pt x="252" y="623" on="0"/>
        <pt x="237" y="625" on="0"/>
        <pt x="229" y="625" on="1"/>
        <pt x="211" y="625" on="0"/>
        <pt x="190" y="599" on="0"/>
        <pt x="190" y="567" on="1"/>
        <pt x="190" y="473" on="1"/>
        <pt x="259" y="473" on="1"/>
        <pt x="259" y="366" on="1"/>
        <pt x="190" y="366" on="1"/>
        <pt x="190" y="0" on="1"/>
        <pt x="66" y="0" on="1"/>
        <pt x="66" y="366" on="1"/>
        <pt x="11" y="366" on="1"/>
        <pt x="11" y="449" on="1"/>
        <pt x="66" y="475" on="1"/>
        <pt x="66" y="589" on="1"/>
        <pt x="66" y="662" on="0"/>
        <pt x="131" y="740" on="0"/>
        <pt x="193" y="740" on="1"/>
        <pt x="216" y="740" on="0"/>
        <pt x="255" y="733" on="0"/>
        <pt x="265" y="730" on="1"/>
      </contour>
      <contour>
        <pt x="297" y="0" on="1"/>
        <pt x="297" y="473" on="1"/>
        <pt x="421" y="473" on="1"/>
        <pt x="421" y="0" on="1"/>
      </contour>
    </TTGlyph>
    <TTGlyph name="five" xMin="17" yMin="-10" xMax="376" yMax="723">
      <contour>
        <pt x="376" y="239" on="1"/>
        <pt x="376" y="178" on="0"/>
        <pt x="345" y="85" on="0"/>
        <pt x="289" y="22" on="0"/>
        <pt x="211" y="-10" on="0"/>
        <pt x="164" y="-10" on="1"/>
        <pt x="131" y="-10" on="0"/>
        <pt x="57" y="4" on="0"/>
        <pt x="17" y="22" on="1"/>
        <pt x="52" y="140" on="1"/>
        <pt x="75" y="129" on="0"/>
        <pt x="125" y="116" on="0"/>
        <pt x="148" y="116" on="1"/>
        <pt x="187" y="116" on="0"/>
        <pt x="235" y="170" on="0"/>
        <pt x="235" y="236" on="1"/>
        <pt x="235" y="295" on="0"/>
        <pt x="172" y="348" on="0"/>
        <pt x="127" y="348" on="1"/>
        <pt x="107" y="348" on="0"/>
        <pt x="75" y="344" on="0"/>
        <pt x="61" y="340" on="1"/>
        <pt x="50" y="349" on="1"/>
        <pt x="50" y="723" on="1"/>
        <pt x="350" y="723" on="1"/>
        <pt x="350" y="595" on="1"/>
        <pt x="176" y="595" on="1"/>
        <pt x="176" y="458" on="1"/>
        <pt x="181" y="459" on="0"/>
        <pt x="190" y="460" on="0"/>
        <pt x="198" y="460" on="1"/>
        <pt x="235" y="460" on="0"/>
        <pt x="300" y="431" on="0"/>
        <pt x="348" y="376" on="0"/>
        <pt x="376" y="293" on="0"/>
      </contour>
    </TTGlyph>
    <TTGlyph name="five.lin" xMin="17" yMin="-10" xMax="376" yMax="723">
      <contour>
        <pt x="376" y="239" on="1"/>
        <pt x="376" y="178" on="0"/>
        <pt x="345" y="85" on="0"/>
        <pt x="289" y="22" on="0"/>
        <pt x="211" y="-10" on="0"/>
        <pt x="164" y="-10" on="1"/>
        <pt x="131" y="-10" on="0"/>
        <pt x="57" y="4" on="0"/>
        <pt x="17" y="22" on="1"/>
        <pt x="52" y="140" on="1"/>
        <pt x="75" y="129" on="0"/>
        <pt x="125" y="116" on="0"/>
        <pt x="148" y="116" on="1"/>
        <pt x="187" y="116" on="0"/>
        <pt x="235" y="170" on="0"/>
        <pt x="235" y="236" on="1"/>
        <pt x="235" y="295" on="0"/>
        <pt x="172" y="348" on="0"/>
        <pt x="127" y="348" on="1"/>
        <pt x="107" y="348" on="0"/>
        <pt x="75" y="344" on="0"/>
        <pt x="61" y="340" on="1"/>
        <pt x="50" y="349" on="1"/>
        <pt x="50" y="723" on="1"/>
        <pt x="350" y="723" on="1"/>
        <pt x="350" y="595" on="1"/>
        <pt x="176" y="595" on="1"/>
        <pt x="176" y="458" on="1"/>
        <pt x="181" y="459" on="0"/>
        <pt x="190" y="460" on="0"/>
        <pt x="198" y="460" on="1"/>
        <pt x="235" y="460" on="0"/>
        <pt x="300" y="431" on="0"/>
        <pt x="348" y="376" on="0"/>
        <pt x="376" y="293" on="0"/>
      </contour>
    </TTGlyph>
    <TTGlyph name="fl" xMin="11" yMin="0" xMax="421" yMax="740">
      <contour>
        <pt x="258" y="621" on="1"/>
        <pt x="252" y="623" on="0"/>
        <pt x="237" y="625" on="0"/>
        <pt x="229" y="625" on="1"/>
        <pt x="211" y="625" on="0"/>
        <pt x="190" y="599" on="0"/>
        <pt x="190" y="567" on="1"/>
        <pt x="190" y="473" on="1"/>
        <pt x="259" y="473" on="1"/>
        <pt x="259" y="366" on="1"/>
        <pt x="190" y="366" on="1"/>
        <pt x="190" y="0" on="1"/>
        <pt x="66" y="0" on="1"/>
        <pt x="66" y="366" on="1"/>
        <pt x="11" y="366" on="1"/>
        <pt x="11" y="449" on="1"/>
        <pt x="66" y="475" on="1"/>
        <pt x="66" y="589" on="1"/>
        <pt x="66" y="662" on="0"/>
        <pt x="131" y="740" on="0"/>
        <pt x="193" y="740" on="1"/>
        <pt x="216" y="740" on="0"/>
        <pt x="255" y="733" on="0"/>
        <pt x="265" y="730" on="1"/>
      </contour>
      <contour>
        <pt x="297" y="0" on="1"/>
        <pt x="297" y="733" on="1"/>
        <pt x="421" y="733" on="1"/>
        <pt x="421" y="0" on="1"/>
      </contour>
    </TTGlyph>
    <TTGlyph name="florin" xMin="9" yMin="0" xMax="307" yMax="733">
      <contour>
        <pt x="287" y="609" on="1"/>
        <pt x="280" y="611" on="0"/>
        <pt x="262" y="615" on="0"/>
        <pt x="254" y="615" on="1"/>
        <pt x="237" y="615" on="0"/>
        <pt x="216" y="591" on="0"/>
        <pt x="212" y="560" on="1"/>
        <pt x="201" y="473" on="1"/>
        <pt x="270" y="473" on="1"/>
        <pt x="257" y="366" on="1"/>
        <pt x="188" y="366" on="1"/>
        <pt x="143" y="0" on="1"/>
        <pt x="19" y="0" on="1"/>
        <pt x="64" y="366" on="1"/>
        <pt x="9" y="366" on="1"/>
        <pt x="19" y="449" on="1"/>
        <pt x="77" y="475" on="1"/>
        <pt x="91" y="589" on="1"/>
        <pt x="99" y="659" on="0"/>
        <pt x="170" y="733" on="0"/>
        <pt x="227" y="733" on="1"/>
        <pt x="253" y="733" on="0"/>
        <pt x="297" y="721" on="0"/>
        <pt x="307" y="717" on="1"/>
      </contour>
    </TTGlyph>
    <TTGlyph name="florin.lin" xMin="9" yMin="0" xMax="307" yMax="733">
      <contour>
        <pt x="287" y="609" on="1"/>
        <pt x="280" y="611" on="0"/>
        <pt x="262" y="615" on="0"/>
        <pt x="254" y="615" on="1"/>
        <pt x="237" y="615" on="0"/>
        <pt x="216" y="591" on="0"/>
        <pt x="212" y="560" on="1"/>
        <pt x="201" y="473" on="1"/>
        <pt x="270" y="473" on="1"/>
        <pt x="257" y="366" on="1"/>
        <pt x="188" y="366" on="1"/>
        <pt x="143" y="0" on="1"/>
        <pt x="19" y="0" on="1"/>
        <pt x="64" y="366" on="1"/>
        <pt x="9" y="366" on="1"/>
        <pt x="19" y="449" on="1"/>
        <pt x="77" y="475" on="1"/>
        <pt x="91" y="589" on="1"/>
        <pt x="99" y="659" on="0"/>
        <pt x="170" y="733" on="0"/>
        <pt x="227" y="733" on="1"/>
        <pt x="253" y="733" on="0"/>
        <pt x="297" y="721" on="0"/>
        <pt x="307" y="717" on="1"/>
      </contour>
    </TTGlyph>
    <TTGlyph name="four" xMin="16" yMin="0" xMax="414" yMax="725">
      <contour>
        <pt x="361" y="136" on="1"/>
        <pt x="361" y="0" on="1"/>
        <pt x="239" y="0" on="1"/>
        <pt x="239" y="136" on="1"/>
        <pt x="16" y="136" on="1"/>
        <pt x="16" y="251" on="1"/>
        <pt x="243" y="725" on="1"/>
        <pt x="361" y="725" on="1"/>
        <pt x="361" y="263" on="1"/>
        <pt x="414" y="263" on="1"/>
        <pt x="414" y="136" on="1"/>
      </contour>
      <contour>
        <pt x="240" y="502" on="1"/>
        <pt x="133" y="259" on="1"/>
        <pt x="240" y="259" on="1"/>
      </contour>
    </TTGlyph>
    <TTGlyph name="four.lin" xMin="16" yMin="0" xMax="414" yMax="725">
      <contour>
        <pt x="361" y="136" on="1"/>
        <pt x="361" y="0" on="1"/>
        <pt x="239" y="0" on="1"/>
        <pt x="239" y="136" on="1"/>
        <pt x="16" y="136" on="1"/>
        <pt x="16" y="251" on="1"/>
        <pt x="243" y="725" on="1"/>
        <pt x="361" y="725" on="1"/>
        <pt x="361" y="263" on="1"/>
        <pt x="414" y="263" on="1"/>
        <pt x="414" y="136" on="1"/>
      </contour>
      <contour>
        <pt x="240" y="502" on="1"/>
        <pt x="133" y="259" on="1"/>
        <pt x="240" y="259" on="1"/>
      </contour>
    </TTGlyph>
    <TTGlyph name="fraction" xMin="16" yMin="-17" xMax="417" yMax="757">
      <contour>
        <pt x="70" y="-17" on="1"/>
        <pt x="16" y="17" on="1"/>
        <pt x="366" y="757" on="1"/>
        <pt x="417" y="723" on="1"/>
      </contour>
    </TTGlyph>
    <TTGlyph name="fraction.lin" xMin="16" yMin="-17" xMax="417" yMax="757">
      <contour>
        <pt x="70" y="-17" on="1"/>
        <pt x="16" y="17" on="1"/>
        <pt x="366" y="757" on="1"/>
        <pt x="417" y="723" on="1"/>
      </contour>
    </TTGlyph>
    <TTGlyph name="g" xMin="20" yMin="-197" xMax="358" yMax="480">
      <contour>
        <pt x="358" y="-31" on="1"/>
        <pt x="358" y="-116" on="0"/>
        <pt x="282" y="-197" on="0"/>
        <pt x="211" y="-197" on="1"/>
        <pt x="170" y="-197" on="0"/>
        <pt x="117" y="-189" on="0"/>
        <pt x="89" y="-181" on="1"/>
        <pt x="101" y="-82" on="1"/>
        <pt x="140" y="-93" on="0"/>
        <pt x="180" y="-93" on="1"/>
        <pt x="211" y="-93" on="0"/>
        <pt x="234" y="-61" on="0"/>
        <pt x="234" y="-29" on="1"/>
        <pt x="234" y="21" on="1"/>
        <pt x="217" y="8" on="0"/>
        <pt x="181" y="-7" on="0"/>
        <pt x="158" y="-7" on="1"/>
        <pt x="130" y="-7" on="0"/>
        <pt x="80" y="24" on="0"/>
        <pt x="42" y="85" on="0"/>
        <pt x="20" y="174" on="0"/>
        <pt x="20" y="233" on="1"/>
        <pt x="20" y="287" on="0"/>
        <pt x="43" y="378" on="0"/>
        <pt x="81" y="443" on="0"/>
        <pt x="131" y="480" on="0"/>
        <pt x="159" y="480" on="1"/>
        <pt x="188" y="480" on="0"/>
        <pt x="230" y="454" on="0"/>
        <pt x="242" y="437" on="1"/>
        <pt x="242" y="473" on="1"/>
        <pt x="358" y="473" on="1"/>
      </contour>
      <contour>
        <pt x="234" y="372" on="1"/>
        <pt x="226" y="376" on="0"/>
        <pt x="210" y="380" on="0"/>
        <pt x="199" y="380" on="1"/>
        <pt x="176" y="380" on="0"/>
        <pt x="141" y="309" on="0"/>
        <pt x="141" y="235" on="1"/>
        <pt x="141" y="193" on="0"/>
        <pt x="151" y="139" on="0"/>
        <pt x="167" y="107" on="0"/>
        <pt x="189" y="95" on="0"/>
        <pt x="201" y="95" on="1"/>
        <pt x="212" y="95" on="0"/>
        <pt x="226" y="98" on="0"/>
        <pt x="234" y="103" on="1"/>
      </contour>
    </TTGlyph>
    <TTGlyph name="gbreve" xMin="20" yMin="-197" xMax="358" yMax="652">
      <component glyphName="g" x="0" y="0" flags="0x204"/>
      <component glyphName="breve" x="0" y="0" flags="0x4"/>
    </TTGlyph>
    <TTGlyph name="gcommaaccent" xMin="20" yMin="-197" xMax="358" yMax="746">
      <contour>
        <pt x="358" y="-31" on="1"/>
        <pt x="358" y="-116" on="0"/>
        <pt x="282" y="-197" on="0"/>
        <pt x="211" y="-197" on="1"/>
        <pt x="170" y="-197" on="0"/>
        <pt x="117" y="-189" on="0"/>
        <pt x="89" y="-181" on="1"/>
        <pt x="101" y="-82" on="1"/>
        <pt x="140" y="-93" on="0"/>
        <pt x="180" y="-93" on="1"/>
        <pt x="211" y="-93" on="0"/>
        <pt x="234" y="-61" on="0"/>
        <pt x="234" y="-29" on="1"/>
        <pt x="234" y="21" on="1"/>
        <pt x="217" y="8" on="0"/>
        <pt x="181" y="-7" on="0"/>
        <pt x="158" y="-7" on="1"/>
        <pt x="130" y="-7" on="0"/>
        <pt x="80" y="24" on="0"/>
        <pt x="42" y="85" on="0"/>
        <pt x="20" y="174" on="0"/>
        <pt x="20" y="233" on="1"/>
        <pt x="20" y="287" on="0"/>
        <pt x="43" y="378" on="0"/>
        <pt x="81" y="443" on="0"/>
        <pt x="131" y="480" on="0"/>
        <pt x="159" y="480" on="1"/>
        <pt x="188" y="480" on="0"/>
        <pt x="230" y="454" on="0"/>
        <pt x="242" y="437" on="1"/>
        <pt x="242" y="473" on="1"/>
        <pt x="358" y="473" on="1"/>
      </contour>
      <contour>
        <pt x="234" y="372" on="1"/>
        <pt x="226" y="376" on="0"/>
        <pt x="210" y="380" on="0"/>
        <pt x="199" y="380" on="1"/>
        <pt x="176" y="380" on="0"/>
        <pt x="141" y="309" on="0"/>
        <pt x="141" y="235" on="1"/>
        <pt x="141" y="193" on="0"/>
        <pt x="151" y="139" on="0"/>
        <pt x="167" y="107" on="0"/>
        <pt x="189" y="95" on="0"/>
        <pt x="201" y="95" on="1"/>
        <pt x="212" y="95" on="0"/>
        <pt x="226" y="98" on="0"/>
        <pt x="234" y="103" on="1"/>
      </contour>
      <contour>
        <pt x="126" y="580" on="1"/>
        <pt x="126" y="604" on="0"/>
        <pt x="146" y="654" on="0"/>
        <pt x="179" y="699" on="0"/>
        <pt x="223" y="735" on="0"/>
        <pt x="248" y="746" on="1"/>
        <pt x="261" y="726" on="1"/>
        <pt x="232" y="702" on="0"/>
        <pt x="205" y="659" on="0"/>
        <pt x="197" y="631" on="1"/>
        <pt x="229" y="629" on="0"/>
        <pt x="267" y="590" on="0"/>
        <pt x="267" y="564" on="1"/>
        <pt x="267" y="538" on="0"/>
        <pt x="226" y="499" on="0"/>
        <pt x="200" y="499" on="1"/>
        <pt x="165" y="499" on="0"/>
        <pt x="126" y="546" on="0"/>
      </contour>
    </TTGlyph>
    <TTGlyph name="gdotaccent" xMin="20" yMin="-197" xMax="358" yMax="639">
      <component glyphName="g" x="0" y="0" flags="0x204"/>
      <component glyphName="dotaccent" x="0" y="0" flags="0x4"/>
    </TTGlyph>
    <TTGlyph name="germandbls" xMin="34" yMin="-94" xMax="405" yMax="740">
      <contour>
        <pt x="309" y="221" on="1"/>
        <pt x="350" y="197" on="0"/>
        <pt x="386" y="129" on="0"/>
        <pt x="386" y="78" on="1"/>
        <pt x="386" y="36" on="0"/>
        <pt x="362" y="-28" on="0"/>
        <pt x="321" y="-71" on="0"/>
        <pt x="267" y="-94" on="0"/>
        <pt x="237" y="-94" on="1"/>
        <pt x="226" y="-94" on="0"/>
        <pt x="204" y="-92" on="0"/>
        <pt x="196" y="-90" on="1"/>
        <pt x="206" y="11" on="1"/>
        <pt x="211" y="10" on="0"/>
        <pt x="214" y="10" on="0"/>
        <pt x="218" y="10" on="1"/>
        <pt x="238" y="10" on="0"/>
        <pt x="266" y="47" on="0"/>
        <pt x="266" y="82" on="1"/>
        <pt x="266" y="115" on="0"/>
        <pt x="238" y="157" on="0"/>
        <pt x="200" y="157" on="1"/>
        <pt x="191" y="157" on="1"/>
        <pt x="187" y="170" on="1"/>
        <pt x="261" y="366" on="1"/>
        <pt x="158" y="366" on="1"/>
        <pt x="158" y="0" on="1"/>
        <pt x="34" y="0" on="1"/>
        <pt x="34" y="589" on="1"/>
        <pt x="34" y="662" on="0"/>
        <pt x="99" y="740" on="0"/>
        <pt x="161" y="740" on="1"/>
        <pt x="184" y="740" on="0"/>
        <pt x="223" y="733" on="0"/>
        <pt x="233" y="730" on="1"/>
        <pt x="226" y="621" on="1"/>
        <pt x="220" y="623" on="0"/>
        <pt x="205" y="625" on="0"/>
        <pt x="197" y="625" on="1"/>
        <pt x="179" y="625" on="0"/>
        <pt x="158" y="599" on="0"/>
        <pt x="158" y="567" on="1"/>
        <pt x="158" y="473" on="1"/>
        <pt x="404" y="473" on="1"/>
        <pt x="405" y="461" on="1"/>
      </contour>
    </TTGlyph>
    <TTGlyph name="grave" xMin="109" yMin="513" xMax="313" yMax="705">
      <contour>
        <pt x="270" y="513" on="1"/>
        <pt x="109" y="619" on="1"/>
        <pt x="179" y="705" on="1"/>
        <pt x="313" y="558" on="1"/>
      </contour>
    </TTGlyph>
    <TTGlyph name="greater" xMin="21" yMin="127" xMax="265" yMax="615">
      <contour>
        <pt x="92" y="127" on="1"/>
        <pt x="21" y="204" on="1"/>
        <pt x="142" y="371" on="1"/>
        <pt x="21" y="538" on="1"/>
        <pt x="92" y="615" on="1"/>
        <pt x="265" y="371" on="1"/>
      </contour>
    </TTGlyph>
    <TTGlyph name="greater.lin" xMin="21" yMin="127" xMax="265" yMax="615">
      <component glyphName="greater" x="0" y="0" flags="0x204"/>
    </TTGlyph>
    <TTGlyph name="guillemotleft" xMin="27" yMin="60" xMax="372" yMax="387">
      <contour>
        <pt x="255" y="60" on="1"/>
        <pt x="192" y="224" on="1"/>
        <pt x="255" y="387" on="1"/>
        <pt x="372" y="387" on="1"/>
        <pt x="306" y="224" on="1"/>
        <pt x="372" y="60" on="1"/>
      </contour>
      <contour>
        <pt x="90" y="60" on="1"/>
        <pt x="27" y="224" on="1"/>
        <pt x="90" y="387" on="1"/>
        <pt x="205" y="387" on="1"/>
        <pt x="141" y="224" on="1"/>
        <pt x="205" y="60" on="1"/>
      </contour>
    </TTGlyph>
    <TTGlyph name="guillemotleft.cap" xMin="27" yMin="207" xMax="372" yMax="534">
      <component glyphName="guillemotleft" x="0" y="147" flags="0x204"/>
    </TTGlyph>
    <TTGlyph name="guillemotright" xMin="15" yMin="60" xMax="360" yMax="387">
      <contour>
        <pt x="297" y="60" on="1"/>
        <pt x="182" y="60" on="1"/>
        <pt x="246" y="224" on="1"/>
        <pt x="182" y="387" on="1"/>
        <pt x="297" y="387" on="1"/>
        <pt x="360" y="224" on="1"/>
      </contour>
      <contour>
        <pt x="130" y="60" on="1"/>
        <pt x="15" y="60" on="1"/>
        <pt x="79" y="224" on="1"/>
        <pt x="15" y="387" on="1"/>
        <pt x="130" y="387" on="1"/>
        <pt x="193" y="224" on="1"/>
      </contour>
    </TTGlyph>
    <TTGlyph name="guillemotright.cap" xMin="15" yMin="208" xMax="360" yMax="535">
      <component glyphName="guillemotright" x="0" y="148" flags="0x204"/>
    </TTGlyph>
    <TTGlyph name="guilsinglleft" xMin="27" yMin="60" xMax="205" yMax="387">
      <contour>
        <pt x="90" y="60" on="1"/>
        <pt x="27" y="224" on="1"/>
        <pt x="90" y="387" on="1"/>
        <pt x="205" y="387" on="1"/>
        <pt x="141" y="224" on="1"/>
        <pt x="205" y="60" on="1"/>
      </contour>
    </TTGlyph>
    <TTGlyph name="guilsinglleft.cap" xMin="27" yMin="207" xMax="205" yMax="534">
      <component glyphName="guilsinglleft" x="0" y="147" flags="0x204"/>
    </TTGlyph>
    <TTGlyph name="guilsinglright" xMin="23" yMin="60" xMax="203" yMax="387">
      <contour>
        <pt x="140" y="60" on="1"/>
        <pt x="23" y="60" on="1"/>
        <pt x="89" y="224" on="1"/>
        <pt x="23" y="387" on="1"/>
        <pt x="140" y="387" on="1"/>
        <pt x="203" y="224" on="1"/>
      </contour>
    </TTGlyph>
    <TTGlyph name="guilsinglright.cap" xMin="23" yMin="207" xMax="203" yMax="534">
      <component glyphName="guilsinglright" x="0" y="147" flags="0x204"/>
    </TTGlyph>
    <TTGlyph name="h" xMin="34" yMin="0" xMax="367" yMax="733">
      <contour>
        <pt x="243" y="0" on="1"/>
        <pt x="243" y="334" on="1"/>
        <pt x="243" y="374" on="0"/>
        <pt x="209" y="374" on="1"/>
        <pt x="195" y="374" on="0"/>
        <pt x="172" y="363" on="0"/>
        <pt x="158" y="352" on="1"/>
        <pt x="158" y="0" on="1"/>
        <pt x="34" y="0" on="1"/>
        <pt x="34" y="733" on="1"/>
        <pt x="158" y="733" on="1"/>
        <pt x="158" y="410" on="1"/>
        <pt x="181" y="445" on="0"/>
        <pt x="237" y="484" on="0"/>
        <pt x="272" y="484" on="1"/>
        <pt x="321" y="484" on="0"/>
        <pt x="367" y="421" on="0"/>
        <pt x="367" y="367" on="1"/>
        <pt x="367" y="0" on="1"/>
      </contour>
    </TTGlyph>
    <TTGlyph name="hbar" xMin="0" yMin="0" xMax="367" yMax="733">
      <contour>
        <pt x="243" y="0" on="1"/>
        <pt x="243" y="334" on="1"/>
        <pt x="243" y="374" on="0"/>
        <pt x="209" y="374" on="1"/>
        <pt x="195" y="374" on="0"/>
        <pt x="172" y="363" on="0"/>
        <pt x="158" y="352" on="1"/>
        <pt x="158" y="0" on="1"/>
        <pt x="34" y="0" on="1"/>
        <pt x="34" y="543" on="1"/>
        <pt x="0" y="543" on="1"/>
        <pt x="0" y="647" on="1"/>
        <pt x="34" y="647" on="1"/>
        <pt x="34" y="733" on="1"/>
        <pt x="158" y="733" on="1"/>
        <pt x="158" y="647" on="1"/>
        <pt x="250" y="647" on="1"/>
        <pt x="250" y="543" on="1"/>
        <pt x="158" y="543" on="1"/>
        <pt x="158" y="410" on="1"/>
        <pt x="181" y="445" on="0"/>
        <pt x="237" y="484" on="0"/>
        <pt x="272" y="484" on="1"/>
        <pt x="321" y="484" on="0"/>
        <pt x="367" y="421" on="0"/>
        <pt x="367" y="367" on="1"/>
        <pt x="367" y="0" on="1"/>
      </contour>
    </TTGlyph>
    <TTGlyph name="hcoslug" xMin="50" yMin="-100" xMax="644" yMax="700">
      <contour>
        <pt x="273" y="18" on="1"/>
        <pt x="275" y="40" on="0"/>
        <pt x="254" y="40" on="1"/>
        <pt x="245" y="40" on="0"/>
        <pt x="234" y="29" on="0"/>
        <pt x="234" y="19" on="1"/>
        <pt x="235" y="-1" on="0"/>
        <pt x="255" y="-1" on="1"/>
        <pt x="270" y="-1" on="0"/>
        <pt x="273" y="13" on="1"/>
        <pt x="266" y="13" on="1"/>
        <pt x="264" y="6" on="0"/>
        <pt x="257" y="6" on="1"/>
        <pt x="247" y="6" on="0"/>
        <pt x="247" y="18" on="1"/>
      </contour>
      <contour>
        <pt x="254" y="35" on="1"/>
        <pt x="261" y="35" on="0"/>
        <pt x="261" y="23" on="1"/>
        <pt x="247" y="23" on="1"/>
        <pt x="247" y="35" on="0"/>
      </contour>
      <contour>
        <pt x="195" y="78" on="1"/>
        <pt x="187" y="78" on="0"/>
        <pt x="187" y="94" on="1"/>
        <pt x="187" y="109" on="0"/>
        <pt x="195" y="109" on="1"/>
        <pt x="203" y="109" on="0"/>
        <pt x="203" y="94" on="1"/>
        <pt x="203" y="78" on="0"/>
      </contour>
      <contour>
        <pt x="210" y="4" on="1"/>
        <pt x="202" y="4" on="0"/>
        <pt x="202" y="20" on="1"/>
        <pt x="202" y="35" on="0"/>
        <pt x="210" y="35" on="1"/>
        <pt x="218" y="35" on="0"/>
        <pt x="218" y="20" on="1"/>
        <pt x="218" y="4" on="0"/>
      </contour>
      <contour>
        <pt x="210" y="-1" on="1"/>
        <pt x="219" y="-1" on="0"/>
        <pt x="231" y="11" on="0"/>
        <pt x="231" y="20" on="1"/>
        <pt x="231" y="29" on="0"/>
        <pt x="219" y="40" on="0"/>
        <pt x="210" y="40" on="1"/>
        <pt x="201" y="40" on="0"/>
        <pt x="189" y="29" on="0"/>
        <pt x="189" y="20" on="1"/>
        <pt x="189" y="10" on="0"/>
        <pt x="201" y="-1" on="0"/>
      </contour>
      <contour>
        <pt x="546" y="4" on="1"/>
        <pt x="538" y="4" on="0"/>
        <pt x="538" y="20" on="1"/>
        <pt x="538" y="35" on="0"/>
        <pt x="546" y="35" on="1"/>
        <pt x="554" y="35" on="0"/>
        <pt x="554" y="20" on="1"/>
        <pt x="554" y="4" on="0"/>
      </contour>
      <contour>
        <pt x="546" y="-1" on="1"/>
        <pt x="555" y="-1" on="0"/>
        <pt x="567" y="11" on="0"/>
        <pt x="567" y="20" on="1"/>
        <pt x="567" y="29" on="0"/>
        <pt x="555" y="40" on="0"/>
        <pt x="546" y="40" on="1"/>
        <pt x="537" y="40" on="0"/>
        <pt x="525" y="29" on="0"/>
        <pt x="525" y="20" on="1"/>
        <pt x="525" y="10" on="0"/>
        <pt x="537" y="-1" on="0"/>
      </contour>
      <contour>
        <pt x="125" y="74" on="1"/>
        <pt x="155" y="74" on="1"/>
        <pt x="155" y="81" on="1"/>
        <pt x="145" y="81" on="1"/>
        <pt x="145" y="97" on="1"/>
        <pt x="149" y="97" on="1"/>
        <pt x="154" y="97" on="0"/>
        <pt x="155" y="89" on="1"/>
        <pt x="162" y="89" on="1"/>
        <pt x="162" y="112" on="1"/>
        <pt x="155" y="112" on="1"/>
        <pt x="154" y="104" on="0"/>
        <pt x="149" y="104" on="1"/>
        <pt x="145" y="104" on="1"/>
        <pt x="145" y="122" on="1"/>
        <pt x="157" y="122" on="1"/>
        <pt x="162" y="122" on="0"/>
        <pt x="166" y="117" on="0"/>
        <pt x="168" y="109" on="1"/>
        <pt x="176" y="109" on="1"/>
        <pt x="176" y="129" on="1"/>
        <pt x="125" y="129" on="1"/>
        <pt x="125" y="122" on="1"/>
        <pt x="132" y="122" on="1"/>
        <pt x="132" y="81" on="1"/>
        <pt x="125" y="81" on="1"/>
      </contour>
      <contour>
        <pt x="195" y="73" on="1"/>
        <pt x="204" y="73" on="0"/>
        <pt x="216" y="85" on="0"/>
        <pt x="216" y="94" on="1"/>
        <pt x="216" y="103" on="0"/>
        <pt x="204" y="114" on="0"/>
        <pt x="195" y="114" on="1"/>
        <pt x="186" y="114" on="0"/>
        <pt x="174" y="103" on="0"/>
        <pt x="174" y="94" on="1"/>
        <pt x="174" y="84" on="0"/>
        <pt x="186" y="73" on="0"/>
      </contour>
      <contour>
        <pt x="644" y="-100" on="1"/>
        <pt x="50" y="-100" on="1"/>
        <pt x="50" y="700" on="1"/>
        <pt x="644" y="700" on="1"/>
      </contour>
      <contour>
        <pt x="498" y="-1" on="1"/>
        <pt x="520" y="-1" on="0"/>
        <pt x="522" y="22" on="1"/>
        <pt x="514" y="22" on="1"/>
        <pt x="512" y="6" on="0"/>
        <pt x="500" y="6" on="1"/>
        <pt x="484" y="6" on="0"/>
        <pt x="484" y="28" on="1"/>
        <pt x="484" y="50" on="0"/>
        <pt x="498" y="50" on="1"/>
        <pt x="508" y="50" on="0"/>
        <pt x="513" y="34" on="1"/>
        <pt x="521" y="34" on="1"/>
        <pt x="521" y="56" on="1"/>
        <pt x="513" y="56" on="1"/>
        <pt x="512" y="50" on="1"/>
        <pt x="505" y="57" on="0"/>
        <pt x="496" y="57" on="1"/>
        <pt x="485" y="57" on="0"/>
        <pt x="469" y="41" on="0"/>
        <pt x="469" y="27" on="1"/>
        <pt x="469" y="-1" on="0"/>
      </contour>
      <contour>
        <pt x="372" y="80" on="1"/>
        <pt x="364" y="80" on="0"/>
        <pt x="364" y="93" on="1"/>
        <pt x="364" y="106" on="0"/>
        <pt x="372" y="106" on="1"/>
        <pt x="379" y="106" on="0"/>
        <pt x="379" y="93" on="1"/>
        <pt x="379" y="80" on="0"/>
      </contour>
      <contour>
        <pt x="276" y="0" on="1"/>
        <pt x="299" y="0" on="1"/>
        <pt x="299" y="7" on="1"/>
        <pt x="294" y="7" on="1"/>
        <pt x="294" y="32" on="1"/>
        <pt x="308" y="32" on="1"/>
        <pt x="308" y="7" on="1"/>
        <pt x="303" y="7" on="1"/>
        <pt x="303" y="0" on="1"/>
        <pt x="326" y="0" on="1"/>
        <pt x="326" y="7" on="1"/>
        <pt x="320" y="7" on="1"/>
        <pt x="320" y="59" on="1"/>
        <pt x="310" y="57" on="1"/>
        <pt x="306" y="59" on="0"/>
        <pt x="301" y="59" on="1"/>
        <pt x="293" y="59" on="0"/>
        <pt x="282" y="50" on="0"/>
        <pt x="282" y="40" on="1"/>
        <pt x="282" y="39" on="1"/>
        <pt x="275" y="39" on="1"/>
        <pt x="275" y="32" on="1"/>
        <pt x="282" y="32" on="1"/>
        <pt x="282" y="7" on="1"/>
        <pt x="276" y="7" on="1"/>
      </contour>
      <contour>
        <pt x="368" y="0" on="1"/>
        <pt x="394" y="0" on="1"/>
        <pt x="394" y="7" on="1"/>
        <pt x="386" y="7" on="1"/>
        <pt x="386" y="23" on="1"/>
        <pt x="390" y="32" on="0"/>
        <pt x="393" y="32" on="1"/>
        <pt x="393" y="31" on="1"/>
        <pt x="393" y="25" on="0"/>
        <pt x="399" y="25" on="1"/>
        <pt x="406" y="25" on="0"/>
        <pt x="406" y="32" on="1"/>
        <pt x="406" y="40" on="0"/>
        <pt x="398" y="40" on="1"/>
        <pt x="390" y="40" on="0"/>
        <pt x="386" y="29" on="1"/>
        <pt x="386" y="39" on="1"/>
        <pt x="368" y="39" on="1"/>
        <pt x="368" y="32" on="1"/>
        <pt x="374" y="32" on="1"/>
        <pt x="374" y="7" on="1"/>
        <pt x="368" y="7" on="1"/>
      </contour>
      <contour>
        <pt x="352" y="73" on="1"/>
        <pt x="358" y="73" on="1"/>
        <pt x="362" y="81" on="1"/>
        <pt x="367" y="73" on="0"/>
        <pt x="376" y="73" on="1"/>
        <pt x="385" y="73" on="0"/>
        <pt x="392" y="87" on="0"/>
        <pt x="392" y="94" on="1"/>
        <pt x="392" y="114" on="0"/>
        <pt x="377" y="114" on="1"/>
        <pt x="367" y="114" on="0"/>
        <pt x="364" y="105" on="1"/>
        <pt x="364" y="132" on="1"/>
        <pt x="346" y="132" on="1"/>
        <pt x="346" y="125" on="1"/>
        <pt x="352" y="125" on="1"/>
      </contour>
      <contour>
        <pt x="400" y="75" on="1"/>
        <pt x="393" y="75" on="0"/>
        <pt x="393" y="68" on="1"/>
        <pt x="393" y="59" on="0"/>
        <pt x="404" y="59" on="1"/>
        <pt x="416" y="59" on="0"/>
        <pt x="422" y="75" on="1"/>
        <pt x="435" y="106" on="1"/>
        <pt x="440" y="106" on="1"/>
        <pt x="440" y="113" on="1"/>
        <pt x="423" y="113" on="1"/>
        <pt x="423" y="106" on="1"/>
        <pt x="428" y="106" on="1"/>
        <pt x="420" y="86" on="1"/>
        <pt x="411" y="106" on="1"/>
        <pt x="417" y="106" on="1"/>
        <pt x="417" y="113" on="1"/>
        <pt x="392" y="113" on="1"/>
        <pt x="392" y="106" on="1"/>
        <pt x="397" y="106" on="1"/>
        <pt x="399" y="101" on="0"/>
        <pt x="403" y="93" on="1"/>
        <pt x="406" y="87" on="0"/>
        <pt x="411" y="77" on="0"/>
        <pt x="413" y="73" on="1"/>
        <pt x="411" y="65" on="0"/>
        <pt x="405" y="65" on="1"/>
        <pt x="407" y="67" on="0"/>
        <pt x="405" y="75" on="0"/>
      </contour>
      <contour>
        <pt x="247" y="428" on="1"/>
        <pt x="247" y="441" on="0"/>
        <pt x="262" y="457" on="0"/>
        <pt x="274" y="457" on="1"/>
        <pt x="287" y="457" on="0"/>
        <pt x="303" y="436" on="0"/>
        <pt x="303" y="419" on="1"/>
        <pt x="303" y="406" on="0"/>
        <pt x="293" y="382" on="0"/>
        <pt x="285" y="369" on="1"/>
        <pt x="268" y="386" on="0"/>
        <pt x="247" y="411" on="0"/>
      </contour>
      <contour>
        <pt x="302" y="74" on="1"/>
        <pt x="309" y="74" on="1"/>
        <pt x="310" y="78" on="1"/>
        <pt x="312" y="76" on="0"/>
        <pt x="318" y="73" on="0"/>
        <pt x="323" y="73" on="1"/>
        <pt x="337" y="73" on="0"/>
        <pt x="337" y="86" on="1"/>
        <pt x="337" y="92" on="0"/>
        <pt x="329" y="97" on="0"/>
        <pt x="320" y="99" on="0"/>
        <pt x="313" y="101" on="0"/>
        <pt x="313" y="104" on="1"/>
        <pt x="313" y="108" on="0"/>
        <pt x="318" y="108" on="1"/>
        <pt x="323" y="108" on="0"/>
        <pt x="328" y="101" on="1"/>
        <pt x="335" y="101" on="1"/>
        <pt x="335" y="114" on="1"/>
        <pt x="329" y="114" on="1"/>
        <pt x="327" y="109" on="1"/>
        <pt x="324" y="114" on="0"/>
        <pt x="316" y="114" on="1"/>
        <pt x="309" y="114" on="0"/>
        <pt x="302" y="107" on="0"/>
        <pt x="302" y="102" on="1"/>
        <pt x="302" y="96" on="0"/>
        <pt x="309" y="91" on="0"/>
        <pt x="318" y="88" on="0"/>
        <pt x="326" y="86" on="0"/>
        <pt x="326" y="83" on="1"/>
        <pt x="326" y="79" on="0"/>
        <pt x="321" y="79" on="1"/>
        <pt x="315" y="79" on="0"/>
        <pt x="309" y="88" on="1"/>
        <pt x="302" y="88" on="1"/>
      </contour>
      <contour>
        <pt x="261" y="219" on="1"/>
        <pt x="238" y="219" on="0"/>
        <pt x="209" y="250" on="0"/>
        <pt x="209" y="273" on="1"/>
        <pt x="209" y="297" on="0"/>
        <pt x="225" y="313" on="1"/>
        <pt x="239" y="300" on="0"/>
        <pt x="278" y="257" on="0"/>
        <pt x="299" y="231" on="1"/>
        <pt x="284" y="219" on="0"/>
      </contour>
      <contour>
        <pt x="274" y="122" on="1"/>
        <pt x="274" y="113" on="1"/>
        <pt x="267" y="113" on="1"/>
        <pt x="267" y="106" on="1"/>
        <pt x="274" y="106" on="1"/>
        <pt x="274" y="86" on="1"/>
        <pt x="274" y="73" on="0"/>
        <pt x="286" y="73" on="1"/>
        <pt x="297" y="73" on="0"/>
        <pt x="300" y="86" on="1"/>
        <pt x="295" y="88" on="1"/>
        <pt x="294" y="81" on="0"/>
        <pt x="290" y="81" on="1"/>
        <pt x="286" y="81" on="0"/>
        <pt x="286" y="86" on="1"/>
        <pt x="286" y="106" on="1"/>
        <pt x="299" y="106" on="1"/>
        <pt x="299" y="113" on="1"/>
        <pt x="286" y="113" on="1"/>
        <pt x="286" y="124" on="1"/>
      </contour>
      <contour>
        <pt x="428" y="306" on="1"/>
        <pt x="435" y="295" on="0"/>
        <pt x="457" y="281" on="0"/>
        <pt x="471" y="281" on="1"/>
        <pt x="492" y="281" on="0"/>
        <pt x="521" y="312" on="0"/>
        <pt x="521" y="335" on="1"/>
        <pt x="521" y="358" on="0"/>
        <pt x="492" y="387" on="0"/>
        <pt x="471" y="387" on="1"/>
        <pt x="436" y="387" on="0"/>
        <pt x="411" y="349" on="1"/>
        <pt x="409" y="369" on="0"/>
        <pt x="382" y="387" on="0"/>
        <pt x="362" y="386" on="1"/>
        <pt x="371" y="401" on="0"/>
        <pt x="371" y="420" on="1"/>
        <pt x="371" y="433" on="0"/>
        <pt x="359" y="460" on="0"/>
        <pt x="335" y="481" on="0"/>
        <pt x="299" y="494" on="0"/>
        <pt x="276" y="494" on="1"/>
        <pt x="251" y="494" on="0"/>
        <pt x="211" y="480" on="0"/>
        <pt x="182" y="456" on="0"/>
        <pt x="167" y="425" on="0"/>
        <pt x="167" y="409" on="1"/>
        <pt x="167" y="387" on="0"/>
        <pt x="182" y="357" on="0"/>
        <pt x="198" y="340" on="1"/>
        <pt x="116" y="312" on="0"/>
        <pt x="116" y="249" on="1"/>
        <pt x="116" y="229" on="0"/>
        <pt x="133" y="195" on="0"/>
        <pt x="163" y="170" on="0"/>
        <pt x="202" y="156" on="0"/>
        <pt x="225" y="156" on="1"/>
        <pt x="288" y="156" on="0"/>
        <pt x="329" y="201" on="1"/>
        <pt x="354" y="175" on="0"/>
        <pt x="391" y="156" on="0"/>
        <pt x="414" y="156" on="1"/>
        <pt x="446" y="156" on="0"/>
        <pt x="492" y="206" on="0"/>
        <pt x="494" y="250" on="1"/>
        <pt x="487" y="252" on="1"/>
        <pt x="479" y="239" on="0"/>
        <pt x="460" y="223" on="0"/>
        <pt x="444" y="223" on="1"/>
        <pt x="429" y="223" on="0"/>
        <pt x="401" y="242" on="0"/>
        <pt x="382" y="264" on="1"/>
        <pt x="393" y="279" on="0"/>
        <pt x="417" y="299" on="0"/>
      </contour>
      <contour>
        <pt x="219" y="74" on="1"/>
        <pt x="241" y="74" on="1"/>
        <pt x="241" y="81" on="1"/>
        <pt x="237" y="81" on="1"/>
        <pt x="237" y="96" on="1"/>
        <pt x="237" y="106" on="0"/>
        <pt x="244" y="106" on="1"/>
        <pt x="250" y="106" on="0"/>
        <pt x="250" y="99" on="1"/>
        <pt x="250" y="81" on="1"/>
        <pt x="246" y="81" on="1"/>
        <pt x="246" y="74" on="1"/>
        <pt x="268" y="74" on="1"/>
        <pt x="268" y="81" on="1"/>
        <pt x="262" y="81" on="1"/>
        <pt x="262" y="100" on="1"/>
        <pt x="262" y="114" on="0"/>
        <pt x="250" y="114" on="1"/>
        <pt x="241" y="114" on="0"/>
        <pt x="236" y="103" on="1"/>
        <pt x="236" y="113" on="1"/>
        <pt x="219" y="113" on="1"/>
        <pt x="219" y="106" on="1"/>
        <pt x="225" y="106" on="1"/>
        <pt x="225" y="81" on="1"/>
        <pt x="219" y="81" on="1"/>
      </contour>
      <contour>
        <pt x="446" y="33" on="1"/>
        <pt x="446" y="26" on="1"/>
        <pt x="452" y="26" on="1"/>
        <pt x="450" y="21" on="0"/>
        <pt x="446" y="17" on="1"/>
        <pt x="443" y="20" on="0"/>
        <pt x="438" y="26" on="0"/>
        <pt x="434" y="30" on="1"/>
        <pt x="445" y="35" on="0"/>
        <pt x="445" y="42" on="1"/>
        <pt x="445" y="47" on="0"/>
        <pt x="438" y="54" on="0"/>
        <pt x="431" y="54" on="1"/>
        <pt x="423" y="54" on="0"/>
        <pt x="414" y="46" on="0"/>
        <pt x="414" y="40" on="1"/>
        <pt x="414" y="34" on="0"/>
        <pt x="420" y="28" on="1"/>
        <pt x="407" y="24" on="0"/>
        <pt x="407" y="13" on="1"/>
        <pt x="407" y="-1" on="0"/>
        <pt x="425" y="-1" on="1"/>
        <pt x="434" y="-1" on="0"/>
        <pt x="440" y="5" on="1"/>
        <pt x="445" y="-1" on="0"/>
        <pt x="452" y="-1" on="1"/>
        <pt x="462" y="-1" on="0"/>
        <pt x="465" y="11" on="1"/>
        <pt x="460" y="12" on="1"/>
        <pt x="459" y="7" on="0"/>
        <pt x="456" y="7" on="1"/>
        <pt x="453" y="7" on="0"/>
        <pt x="450" y="12" on="1"/>
        <pt x="453" y="15" on="0"/>
        <pt x="457" y="21" on="0"/>
        <pt x="459" y="26" on="1"/>
        <pt x="464" y="26" on="1"/>
        <pt x="464" y="33" on="1"/>
      </contour>
      <contour>
        <pt x="429" y="6" on="1"/>
        <pt x="419" y="6" on="0"/>
        <pt x="419" y="16" on="1"/>
        <pt x="419" y="21" on="0"/>
        <pt x="423" y="25" on="1"/>
        <pt x="427" y="21" on="0"/>
        <pt x="433" y="14" on="0"/>
        <pt x="437" y="9" on="1"/>
        <pt x="433" y="6" on="0"/>
      </contour>
      <contour>
        <pt x="294" y="42" on="1"/>
        <pt x="294" y="49" on="0"/>
        <pt x="297" y="54" on="0"/>
        <pt x="300" y="54" on="1"/>
        <pt x="302" y="54" on="0"/>
        <pt x="303" y="53" on="1"/>
        <pt x="302" y="51" on="0"/>
        <pt x="302" y="49" on="1"/>
        <pt x="302" y="44" on="0"/>
        <pt x="308" y="44" on="1"/>
        <pt x="308" y="39" on="1"/>
        <pt x="294" y="39" on="1"/>
      </contour>
      <contour>
        <pt x="425" y="43" on="1"/>
        <pt x="425" y="48" on="0"/>
        <pt x="430" y="48" on="1"/>
        <pt x="436" y="48" on="0"/>
        <pt x="436" y="42" on="1"/>
        <pt x="436" y="36" on="0"/>
        <pt x="431" y="33" on="1"/>
        <pt x="425" y="39" on="0"/>
      </contour>
      <contour>
        <pt x="312" y="342" on="1"/>
        <pt x="342" y="362" on="0"/>
        <pt x="354" y="376" on="1"/>
        <pt x="371" y="359" on="0"/>
        <pt x="367" y="321" on="0"/>
        <pt x="353" y="296" on="1"/>
        <pt x="343" y="307" on="0"/>
        <pt x="324" y="330" on="0"/>
      </contour>
      <contour>
        <pt x="366" y="18" on="1"/>
        <pt x="368" y="40" on="0"/>
        <pt x="347" y="40" on="1"/>
        <pt x="339" y="40" on="0"/>
        <pt x="327" y="28" on="0"/>
        <pt x="327" y="19" on="1"/>
        <pt x="327" y="-1" on="0"/>
        <pt x="348" y="-1" on="1"/>
        <pt x="362" y="-1" on="0"/>
        <pt x="366" y="13" on="1"/>
        <pt x="359" y="13" on="1"/>
        <pt x="358" y="6" on="0"/>
        <pt x="350" y="6" on="1"/>
        <pt x="340" y="6" on="0"/>
        <pt x="340" y="18" on="1"/>
      </contour>
      <contour>
        <pt x="347" y="35" on="1"/>
        <pt x="354" y="35" on="0"/>
        <pt x="354" y="23" on="1"/>
        <pt x="340" y="23" on="1"/>
        <pt x="340" y="35" on="0"/>
      </contour>
      <contour>
        <pt x="124" y="0" on="1"/>
        <pt x="153" y="0" on="1"/>
        <pt x="153" y="7" on="1"/>
        <pt x="145" y="7" on="1"/>
        <pt x="145" y="25" on="1"/>
        <pt x="167" y="25" on="1"/>
        <pt x="167" y="7" on="1"/>
        <pt x="159" y="7" on="1"/>
        <pt x="159" y="0" on="1"/>
        <pt x="188" y="0" on="1"/>
        <pt x="188" y="7" on="1"/>
        <pt x="180" y="7" on="1"/>
        <pt x="180" y="48" on="1"/>
        <pt x="188" y="48" on="1"/>
        <pt x="188" y="55" on="1"/>
        <pt x="159" y="55" on="1"/>
        <pt x="159" y="48" on="1"/>
        <pt x="167" y="48" on="1"/>
        <pt x="167" y="32" on="1"/>
        <pt x="145" y="32" on="1"/>
        <pt x="145" y="48" on="1"/>
        <pt x="153" y="48" on="1"/>
        <pt x="153" y="55" on="1"/>
        <pt x="124" y="55" on="1"/>
        <pt x="124" y="48" on="1"/>
        <pt x="132" y="48" on="1"/>
        <pt x="132" y="7" on="1"/>
        <pt x="124" y="7" on="1"/>
      </contour>
      <contour>
        <pt x="576" y="13" on="1"/>
        <pt x="569" y="13" on="0"/>
        <pt x="569" y="6" on="1"/>
        <pt x="569" y="-1" on="0"/>
        <pt x="576" y="-1" on="1"/>
        <pt x="583" y="-1" on="0"/>
        <pt x="583" y="6" on="1"/>
        <pt x="583" y="13" on="0"/>
      </contour>
    </TTGlyph>
    <TTGlyph name="hungarumlaut" xMin="50" yMin="514" xMax="372" yMax="730">
      <contour>
        <pt x="96" y="521" on="1"/>
        <pt x="50" y="553" on="1"/>
        <pt x="139" y="730" on="1"/>
        <pt x="221" y="670" on="1"/>
      </contour>
      <contour>
        <pt x="242" y="514" on="1"/>
        <pt x="198" y="549" on="1"/>
        <pt x="292" y="723" on="1"/>
        <pt x="372" y="664" on="1"/>
      </contour>
    </TTGlyph>
    <TTGlyph name="hyphen" xMin="29" yMin="216" xMax="177" yMax="320">
      <contour>
        <pt x="29" y="216" on="1"/>
        <pt x="29" y="320" on="1"/>
        <pt x="177" y="320" on="1"/>
        <pt x="177" y="216" on="1"/>
      </contour>
    </TTGlyph>
    <TTGlyph name="hyphen.cap" xMin="29" yMin="319" xMax="177" yMax="423">
      <component glyphName="hyphen" x="0" y="103" flags="0x204"/>
    </TTGlyph>
    <TTGlyph name="i" xMin="23" yMin="0" xMax="169" yMax="688">
      <contour>
        <pt x="169" y="609" on="1"/>
        <pt x="169" y="578" on="0"/>
        <pt x="128" y="530" on="0"/>
        <pt x="96" y="530" on="1"/>
        <pt x="64" y="530" on="0"/>
        <pt x="23" y="578" on="0"/>
        <pt x="23" y="609" on="1"/>
        <pt x="23" y="641" on="0"/>
        <pt x="64" y="688" on="0"/>
        <pt x="96" y="688" on="1"/>
        <pt x="128" y="688" on="0"/>
        <pt x="169" y="641" on="0"/>
      </contour>
      <contour>
        <pt x="34" y="0" on="1"/>
        <pt x="34" y="473" on="1"/>
        <pt x="158" y="473" on="1"/>
        <pt x="158" y="0" on="1"/>
      </contour>
    </TTGlyph>
    <TTGlyph name="i.dot" xMin="23" yMin="0" xMax="169" yMax="688">
      <contour>
        <pt x="169" y="609" on="1"/>
        <pt x="169" y="578" on="0"/>
        <pt x="128" y="530" on="0"/>
        <pt x="96" y="530" on="1"/>
        <pt x="64" y="530" on="0"/>
        <pt x="23" y="578" on="0"/>
        <pt x="23" y="609" on="1"/>
        <pt x="23" y="641" on="0"/>
        <pt x="64" y="688" on="0"/>
        <pt x="96" y="688" on="1"/>
        <pt x="128" y="688" on="0"/>
        <pt x="169" y="641" on="0"/>
      </contour>
      <contour>
        <pt x="34" y="0" on="1"/>
        <pt x="34" y="473" on="1"/>
        <pt x="158" y="473" on="1"/>
        <pt x="158" y="0" on="1"/>
      </contour>
    </TTGlyph>
    <TTGlyph name="iacute" xMin="34" yMin="0" xMax="249" yMax="703">
      <component glyphName="dotlessi" x="0" y="0" flags="0x204"/>
      <component glyphName="acute" x="-37" y="0" flags="0x4"/>
    </TTGlyph>
    <TTGlyph name="ibreve" xMin="-39" yMin="0" xMax="234" yMax="652">
      <component glyphName="dotlessi" x="0" y="0" flags="0x204"/>
      <component glyphName="breve" x="-103" y="0" flags="0x4"/>
    </TTGlyph>
    <TTGlyph name="icircumflex" xMin="-43" yMin="0" xMax="237" yMax="663">
      <component glyphName="dotlessi" x="0" y="0" flags="0x204"/>
      <component glyphName="circumflex" x="-103" y="0" flags="0x4"/>
    </TTGlyph>
    <TTGlyph name="idieresis" xMin="-46" yMin="0" xMax="240" yMax="639">
      <component glyphName="dotlessi" x="0" y="0" flags="0x204"/>
      <component glyphName="dieresis" x="-103" y="0" flags="0x4"/>
    </TTGlyph>
    <TTGlyph name="igrave" xMin="-60" yMin="0" xMax="158" yMax="705">
      <component glyphName="dotlessi" x="0" y="0" flags="0x204"/>
      <component glyphName="grave" x="-169" y="0" flags="0x4"/>
    </TTGlyph>
    <TTGlyph name="imacron" xMin="-20" yMin="0" xMax="215" yMax="600">
      <component glyphName="dotlessi" x="0" y="0" flags="0x204"/>
      <component glyphName="macron" x="-102" y="0" flags="0x4"/>
    </TTGlyph>
    <TTGlyph name="iogonek" xMin="8" yMin="-198" xMax="180" yMax="688">
      <contour>
        <pt x="180" y="-157" on="1"/>
        <pt x="166" y="-172" on="0"/>
        <pt x="116" y="-198" on="0"/>
        <pt x="84" y="-198" on="1"/>
        <pt x="46" y="-198" on="0"/>
        <pt x="8" y="-154" on="0"/>
        <pt x="8" y="-122" on="1"/>
        <pt x="8" y="-95" on="0"/>
        <pt x="32" y="-38" on="0"/>
        <pt x="61" y="0" on="1"/>
        <pt x="34" y="0" on="1"/>
        <pt x="34" y="473" on="1"/>
        <pt x="158" y="473" on="1"/>
        <pt x="158" y="0" on="1"/>
        <pt x="131" y="0" on="1"/>
        <pt x="106" y="-37" on="0"/>
        <pt x="90" y="-77" on="0"/>
        <pt x="90" y="-94" on="1"/>
        <pt x="90" y="-111" on="0"/>
        <pt x="109" y="-129" on="0"/>
        <pt x="124" y="-129" on="1"/>
        <pt x="134" y="-129" on="0"/>
        <pt x="154" y="-123" on="0"/>
        <pt x="161" y="-118" on="1"/>
      </contour>
      <contour>
        <pt x="169" y="609" on="1"/>
        <pt x="169" y="578" on="0"/>
        <pt x="128" y="530" on="0"/>
        <pt x="96" y="530" on="1"/>
        <pt x="64" y="530" on="0"/>
        <pt x="23" y="578" on="0"/>
        <pt x="23" y="609" on="1"/>
        <pt x="23" y="641" on="0"/>
        <pt x="64" y="688" on="0"/>
        <pt x="96" y="688" on="1"/>
        <pt x="128" y="688" on="0"/>
        <pt x="169" y="641" on="0"/>
      </contour>
    </TTGlyph>
    <TTGlyph name="j" xMin="-36" yMin="-197" xMax="171" yMax="688">
      <contour>
        <pt x="171" y="609" on="1"/>
        <pt x="171" y="578" on="0"/>
        <pt x="130" y="530" on="0"/>
        <pt x="98" y="530" on="1"/>
        <pt x="66" y="530" on="0"/>
        <pt x="25" y="578" on="0"/>
        <pt x="25" y="609" on="1"/>
        <pt x="25" y="641" on="0"/>
        <pt x="66" y="688" on="0"/>
        <pt x="98" y="688" on="1"/>
        <pt x="130" y="688" on="0"/>
        <pt x="171" y="641" on="0"/>
      </contour>
      <contour>
        <pt x="160" y="-36" on="1"/>
        <pt x="160" y="-114" on="0"/>
        <pt x="104" y="-197" on="0"/>
        <pt x="44" y="-197" on="1"/>
        <pt x="11" y="-197" on="0"/>
        <pt x="-22" y="-190" on="0"/>
        <pt x="-36" y="-186" on="1"/>
        <pt x="-28" y="-88" on="1"/>
        <pt x="-20" y="-90" on="0"/>
        <pt x="-6" y="-93" on="0"/>
        <pt x="5" y="-93" on="1"/>
        <pt x="36" y="-93" on="0"/>
        <pt x="36" y="-55" on="1"/>
        <pt x="36" y="473" on="1"/>
        <pt x="160" y="473" on="1"/>
      </contour>
    </TTGlyph>
    <TTGlyph name="k" xMin="34" yMin="0" xMax="371" yMax="733">
      <contour>
        <pt x="237" y="0" on="1"/>
        <pt x="156" y="222" on="1"/>
        <pt x="156" y="0" on="1"/>
        <pt x="34" y="0" on="1"/>
        <pt x="34" y="733" on="1"/>
        <pt x="156" y="733" on="1"/>
        <pt x="156" y="271" on="1"/>
        <pt x="234" y="473" on="1"/>
        <pt x="368" y="473" on="1"/>
        <pt x="264" y="249" on="1"/>
        <pt x="371" y="0" on="1"/>
      </contour>
    </TTGlyph>
    <TTGlyph name="kcommaaccent" xMin="34" yMin="-309" xMax="371" yMax="733">
      <component glyphName="k" x="0" y="0" flags="0x204"/>
      <component glyphName="commaaccent" x="100" y="0" flags="0x4"/>
    </TTGlyph>
</ttFont>
